<svg xmlns="http://www.w3.org/2000/svg" xmlns:xlink="http://www.w3.org/1999/xlink" version="1.1" width="501.84pt" height="288pt" viewBox="0 0 501.84 288">
<defs>
<clipPath id="clip_0">
<path transform="matrix(1,0,0,-1,0,288)" d="M65.45 56H473.71504V271.8H65.45Z"/>
</clipPath>
<clipPath id="clip_1">
<path transform="matrix(1,0,0,-1,0,288)" d="M65.45 56H473.71504V271.8H65.45Z"/>
</clipPath>
<clipPath id="clip_2">
<path transform="matrix(1,0,0,-1,0,288)" d="M65.45 56H473.71504V271.8H65.45Z"/>
</clipPath>
<clipPath id="clip_3">
<path transform="matrix(1,0,0,-1,0,288)" d="M65.45 56H473.71504V271.8H65.45Z"/>
</clipPath>
<clipPath id="clip_4">
<path transform="matrix(1,0,0,-1,0,288)" d="M65.45 56H473.71504V271.8H65.45Z"/>
</clipPath>
</defs>
<path transform="matrix(1,0,0,-1,0,288)" d="M0 0H501.84V288H0Z" fill="#ffffff"/>
<path transform="matrix(1,0,0,-1,65.45,232)" d="M0 0H408.265V215.8H0Z" fill="#ffffff"/>
<g clip-path="url(#clip_0)">
<path transform="matrix(1,0,0,-1,-47.2402,231.1736)" d="M0 0V-.826H3.184 6.368 9.552 12.737 15.921 19.105 22.289 25.473 28.657 31.841 35.026 38.21 41.394 44.578 47.762 50.946 54.131 57.315 60.499 63.683 66.867 70.051 73.235 76.42 79.604 82.788 85.972 89.156 92.34 95.524 98.709 101.893 105.077 108.261 111.445 114.629 117.813 120.998 124.182 127.366 130.55 133.734 136.918 140.102 143.287 146.471 149.655 152.839 156.023 159.207 162.392 165.576 168.76 171.944 175.128 178.312 181.496 184.681 187.865 191.049 194.233 197.417 200.601 203.785 206.97 210.154 213.338 216.522 219.706 222.89 226.074 229.259 232.443 235.627 238.811 241.995 245.179 248.364 251.548 254.732 257.916 261.1 264.284 267.468 270.653 273.837 277.021 280.205 283.389 286.573 289.757 292.942 296.126 299.31 302.494 305.678 308.862 312.046 315.231 318.415 321.599 324.783 327.967 331.151 334.336 337.52 340.704 343.888 347.072 350.256 353.44 356.625 359.809 362.993 366.177 369.361 372.545 375.729 378.914 382.098 385.282 388.466 391.65 394.834 398.018 401.203 404.387 407.571 410.755 413.939 417.123 420.307 423.492 426.676 429.86 433.044 436.228 439.412 442.597 445.781 448.965 452.149 455.333 458.517 461.701 464.886 468.07 471.254 474.438 477.622 480.806 483.99 487.175 490.359 493.543 496.727 499.911 503.095 506.279 509.464 512.648 515.832 519.016 522.2 525.384 528.568 531.753 534.937 538.121 541.305 544.489 547.673 550.858 554.042 557.226 560.41 563.594 566.778 569.962 573.147 576.331 579.515 582.699 585.883 589.067 592.251 595.436 598.62 601.804 604.988 608.172 611.356 614.54 617.725 620.909 624.093 627.277 630.461 633.645V-.767L630.461-.75 627.277-.729 624.093-.702 620.909-.669 617.725-.629 614.54-.581 611.356-.522 608.172-.452 604.988-.37 601.804-.273 598.62-.16 595.436-.029 592.251 .121 589.067 .291 585.883 .484 582.699 .699 579.515 .939 576.331 1.202 573.147 1.49 569.962 1.802 566.778 2.138 563.594 2.495 560.41 2.874 557.226 3.272 554.042 3.687 550.858 4.116 547.673 4.557 544.489 5.007 541.305 5.464 538.121 5.927 534.937 6.391 531.753 6.858 528.568 7.325 525.384 7.792 522.2 8.26 519.016 8.731 515.832 9.206 512.648 9.688 509.464 10.181 506.279 10.688 503.095 11.214 499.911 11.764 496.727 12.341 493.543 12.952 490.359 13.599 487.175 14.288 483.99 15.022 480.806 15.803 477.622 16.635 474.438 17.518 471.254 18.454 468.07 19.444 464.886 20.487 461.701 21.584 458.517 22.732 455.333 23.932 452.149 25.183 448.965 26.482 445.781 27.829 442.597 29.222 439.412 30.66 436.228 32.141 433.044 33.664 429.86 35.226 426.676 36.825 423.492 38.457 420.307 40.12 417.123 41.809 413.939 43.518 410.755 45.241 407.571 46.972 404.387 48.704 401.203 50.429 398.018 52.138 394.834 53.824 391.65 55.479 388.466 57.095 385.282 58.664 382.098 60.181 378.914 61.642 375.729 63.041 372.545 64.378 369.361 65.65 366.177 66.86 362.993 68.009 359.809 69.101 356.625 70.142 353.44 71.137 350.256 72.094 347.072 73.023 343.888 73.931 340.704 74.829 337.52 75.726 334.336 76.632 331.151 77.558 327.967 78.511 324.783 79.502 321.599 80.538 318.415 81.627 315.231 82.774 312.046 83.984 308.862 85.261 305.678 86.607 302.494 88.023 299.31 89.506 296.126 91.053 292.942 92.661 289.757 94.322 286.573 96.027 283.389 97.766 280.205 99.528 277.021 101.3 273.837 103.066 270.653 104.813 267.468 106.525 264.284 108.186 261.1 109.781 257.916 111.295 254.732 112.715 251.548 114.029 248.364 115.227 245.179 116.3 241.995 117.244 238.811 118.055 235.627 118.734 232.443 119.281 229.259 119.704 226.074 120.009 222.89 120.207 219.706 120.312 216.522 120.336 213.338 120.297 210.154 120.212 206.97 120.099 203.785 119.977 200.601 119.864 197.417 119.778 194.233 119.736 191.049 119.753 187.865 119.841 184.681 120.011 181.496 120.27 178.312 120.62 175.128 121.061 171.944 121.587 168.76 122.187 165.576 122.844 162.392 123.537 159.207 124.24 156.023 124.921 152.839 125.544 149.655 126.069 146.471 126.453 143.287 126.653 140.102 126.623 136.918 126.32 133.734 125.702 130.55 124.732 127.366 123.377 124.182 121.613 120.998 119.422 117.813 116.794 114.629 113.732 111.445 110.243 108.261 106.35 105.077 102.08 101.893 97.472 98.709 92.571 95.524 87.428 92.34 82.099 89.156 76.643 85.972 71.12 82.788 65.591 79.604 60.114 76.42 54.743 73.235 49.529 70.051 44.515 66.867 39.738 63.683 35.231 60.499 31.015 57.315 27.108 54.131 23.518 50.946 20.248 47.762 17.296 44.578 14.652 41.394 12.304 38.21 10.237 35.026 8.432 31.841 6.869 28.657 5.525 25.473 4.38 22.289 3.412 19.105 2.6 15.921 1.925 12.737 1.367 9.552 .91 6.368 .539 3.184 .24 0 0Z" fill="#9467bd" fill-opacity=".25"/>
<path transform="matrix(1,0,0,-1,-47.2402,231.1736)" stroke-width="1" stroke-linecap="butt" stroke-linejoin="round" fill="none" stroke="#9467bd" d="M0 0V-.826H3.184 6.368 9.552 12.737 15.921 19.105 22.289 25.473 28.657 31.841 35.026 38.21 41.394 44.578 47.762 50.946 54.131 57.315 60.499 63.683 66.867 70.051 73.235 76.42 79.604 82.788 85.972 89.156 92.34 95.524 98.709 101.893 105.077 108.261 111.445 114.629 117.813 120.998 124.182 127.366 130.55 133.734 136.918 140.102 143.287 146.471 149.655 152.839 156.023 159.207 162.392 165.576 168.76 171.944 175.128 178.312 181.496 184.681 187.865 191.049 194.233 197.417 200.601 203.785 206.97 210.154 213.338 216.522 219.706 222.89 226.074 229.259 232.443 235.627 238.811 241.995 245.179 248.364 251.548 254.732 257.916 261.1 264.284 267.468 270.653 273.837 277.021 280.205 283.389 286.573 289.757 292.942 296.126 299.31 302.494 305.678 308.862 312.046 315.231 318.415 321.599 324.783 327.967 331.151 334.336 337.52 340.704 343.888 347.072 350.256 353.44 356.625 359.809 362.993 366.177 369.361 372.545 375.729 378.914 382.098 385.282 388.466 391.65 394.834 398.018 401.203 404.387 407.571 410.755 413.939 417.123 420.307 423.492 426.676 429.86 433.044 436.228 439.412 442.597 445.781 448.965 452.149 455.333 458.517 461.701 464.886 468.07 471.254 474.438 477.622 480.806 483.99 487.175 490.359 493.543 496.727 499.911 503.095 506.279 509.464 512.648 515.832 519.016 522.2 525.384 528.568 531.753 534.937 538.121 541.305 544.489 547.673 550.858 554.042 557.226 560.41 563.594 566.778 569.962 573.147 576.331 579.515 582.699 585.883 589.067 592.251 595.436 598.62 601.804 604.988 608.172 611.356 614.54 617.725 620.909 624.093 627.277 630.461 633.645V-.767L630.461-.75 627.277-.729 624.093-.702 620.909-.669 617.725-.629 614.54-.581 611.356-.522 608.172-.452 604.988-.37 601.804-.273 598.62-.16 595.436-.029 592.251 .121 589.067 .291 585.883 .484 582.699 .699 579.515 .939 576.331 1.202 573.147 1.49 569.962 1.802 566.778 2.138 563.594 2.495 560.41 2.874 557.226 3.272 554.042 3.687 550.858 4.116 547.673 4.557 544.489 5.007 541.305 5.464 538.121 5.927 534.937 6.391 531.753 6.858 528.568 7.325 525.384 7.792 522.2 8.26 519.016 8.731 515.832 9.206 512.648 9.688 509.464 10.181 506.279 10.688 503.095 11.214 499.911 11.764 496.727 12.341 493.543 12.952 490.359 13.599 487.175 14.288 483.99 15.022 480.806 15.803 477.622 16.635 474.438 17.518 471.254 18.454 468.07 19.444 464.886 20.487 461.701 21.584 458.517 22.732 455.333 23.932 452.149 25.183 448.965 26.482 445.781 27.829 442.597 29.222 439.412 30.66 436.228 32.141 433.044 33.664 429.86 35.226 426.676 36.825 423.492 38.457 420.307 40.12 417.123 41.809 413.939 43.518 410.755 45.241 407.571 46.972 404.387 48.704 401.203 50.429 398.018 52.138 394.834 53.824 391.65 55.479 388.466 57.095 385.282 58.664 382.098 60.181 378.914 61.642 375.729 63.041 372.545 64.378 369.361 65.65 366.177 66.86 362.993 68.009 359.809 69.101 356.625 70.142 353.44 71.137 350.256 72.094 347.072 73.023 343.888 73.931 340.704 74.829 337.52 75.726 334.336 76.632 331.151 77.558 327.967 78.511 324.783 79.502 321.599 80.538 318.415 81.627 315.231 82.774 312.046 83.984 308.862 85.261 305.678 86.607 302.494 88.023 299.31 89.506 296.126 91.053 292.942 92.661 289.757 94.322 286.573 96.027 283.389 97.766 280.205 99.528 277.021 101.3 273.837 103.066 270.653 104.813 267.468 106.525 264.284 108.186 261.1 109.781 257.916 111.295 254.732 112.715 251.548 114.029 248.364 115.227 245.179 116.3 241.995 117.244 238.811 118.055 235.627 118.734 232.443 119.281 229.259 119.704 226.074 120.009 222.89 120.207 219.706 120.312 216.522 120.336 213.338 120.297 210.154 120.212 206.97 120.099 203.785 119.977 200.601 119.864 197.417 119.778 194.233 119.736 191.049 119.753 187.865 119.841 184.681 120.011 181.496 120.27 178.312 120.62 175.128 121.061 171.944 121.587 168.76 122.187 165.576 122.844 162.392 123.537 159.207 124.24 156.023 124.921 152.839 125.544 149.655 126.069 146.471 126.453 143.287 126.653 140.102 126.623 136.918 126.32 133.734 125.702 130.55 124.732 127.366 123.377 124.182 121.613 120.998 119.422 117.813 116.794 114.629 113.732 111.445 110.243 108.261 106.35 105.077 102.08 101.893 97.472 98.709 92.571 95.524 87.428 92.34 82.099 89.156 76.643 85.972 71.12 82.788 65.591 79.604 60.114 76.42 54.743 73.235 49.529 70.051 44.515 66.867 39.738 63.683 35.231 60.499 31.015 57.315 27.108 54.131 23.518 50.946 20.248 47.762 17.296 44.578 14.652 41.394 12.304 38.21 10.237 35.026 8.432 31.841 6.869 28.657 5.525 25.473 4.38 22.289 3.412 19.105 2.6 15.921 1.925 12.737 1.367 9.552 .91 6.368 .539 3.184 .24 0 0Z"/>
</g>
<g clip-path="url(#clip_1)">
<path transform="matrix(1,0,0,-1,-19.8195,231.6069)" d="M0 0V-.393H2.366 4.731 7.097 9.463 11.828 14.194 16.559 18.925 21.291 23.656 26.022 28.388 30.753 33.119 35.484 37.85 40.216 42.581 44.947 47.313 49.678 52.044 54.409 56.775 59.141 61.506 63.872 66.238 68.603 70.969 73.334 75.7 78.066 80.431 82.797 85.163 87.528 89.894 92.259 94.625 96.991 99.356 101.722 104.088 106.453 108.819 111.185 113.55 115.916 118.281 120.647 123.013 125.378 127.744 130.11 132.475 134.841 137.206 139.572 141.938 144.303 146.669 149.035 151.4 153.766 156.131 158.497 160.863 163.228 165.594 167.96 170.325 172.691 175.056 177.422 179.788 182.153 184.519 186.885 189.25 191.616 193.981 196.347 198.713 201.078 203.444 205.81 208.175 210.541 212.907 215.272 217.638 220.003 222.369 224.735 227.1 229.466 231.832 234.197 236.563 238.928 241.294 243.66 246.025 248.391 250.757 253.122 255.488 257.853 260.219 262.585 264.95 267.316 269.682 272.047 274.413 276.778 279.144 281.51 283.875 286.241 288.607 290.972 293.338 295.703 298.069 300.435 302.8 305.166 307.532 309.897 312.263 314.629 316.994 319.36 321.725 324.091 326.457 328.822 331.188 333.554 335.919 338.285 340.65 343.016 345.382 347.747 350.113 352.479 354.844 357.21 359.575 361.941 364.307 366.672 369.038 371.404 373.769 376.135 378.5 380.866 383.232 385.597 387.963 390.329 392.694 395.06 397.425 399.791 402.157 404.522 406.888 409.254 411.619 413.985 416.35 418.716 421.082 423.447 425.813 428.179 430.544 432.91 435.276 437.641 440.007 442.372 444.738 447.104 449.469 451.835 454.201 456.566 458.932 461.297 463.663 466.029 468.394 470.76V-.335L468.394-.317 466.029-.295 463.663-.268 461.297-.233 458.932-.19 456.566-.138 454.201-.074 451.835 .004 449.469 .097 447.104 .209 444.738 .342 442.372 .5 440.007 .684 437.641 .898 435.276 1.147 432.91 1.432 430.544 1.758 428.179 2.129 425.813 2.547 423.447 3.015 421.082 3.537 418.716 4.116 416.35 4.753 413.985 5.451 411.619 6.211 409.254 7.035 406.888 7.923 404.522 8.876 402.157 9.893 399.791 10.973 397.425 12.117 395.06 13.322 392.694 14.588 390.329 15.911 387.963 17.291 385.597 18.725 383.232 20.211 380.866 21.746 378.5 23.328 376.135 24.954 373.769 26.621 371.404 28.327 369.038 30.068 366.672 31.841 364.307 33.643 361.941 35.468 359.575 37.315 357.21 39.177 354.844 41.05 352.479 42.93 350.113 44.812 347.747 46.69 345.382 48.559 343.016 50.415 340.65 52.253 338.285 54.069 335.919 55.859 333.554 57.62 331.188 59.349 328.822 61.045 326.457 62.707 324.091 64.334 321.725 65.927 319.36 67.486 316.994 69.014 314.629 70.513 312.263 71.983 309.897 73.428 307.532 74.848 305.166 76.247 302.8 77.624 300.435 78.98 298.069 80.315 295.703 81.627 293.338 82.916 290.972 84.178 288.607 85.409 286.241 86.607 283.875 87.768 281.51 88.887 279.144 89.96 276.778 90.984 274.413 91.955 272.047 92.872 269.682 93.733 267.316 94.539 264.95 95.289 262.585 95.988 260.219 96.639 257.853 97.247 255.488 97.819 253.122 98.363 250.757 98.888 248.391 99.403 246.025 99.92 243.66 100.447 241.294 100.998 238.928 101.581 236.563 102.209 234.197 102.891 231.832 103.638 229.466 104.458 227.1 105.359 224.735 106.349 222.369 107.435 220.003 108.623 217.638 109.917 215.272 111.323 212.907 112.844 210.541 114.484 208.175 116.246 205.81 118.134 203.444 120.149 201.078 122.294 198.713 124.572 196.347 126.985 193.981 129.533 191.616 132.218 189.25 135.04 186.885 137.997 184.519 141.086 182.153 144.303 179.788 147.641 177.422 151.091 175.056 154.64 172.691 158.275 170.325 161.976 167.96 165.723 165.594 169.49 163.228 173.25 160.863 176.972 158.497 180.621 156.131 184.162 153.766 187.557 151.4 190.767 149.035 193.751 146.669 196.469 144.303 198.883 141.938 200.954 139.572 202.646 137.206 203.926 134.841 204.763 132.475 205.131 130.11 205.007 127.744 204.374 125.378 203.22 123.013 201.535 120.647 199.318 118.281 196.57 115.916 193.3 113.55 189.521 111.185 185.25 108.819 180.509 106.453 175.325 104.088 169.731 101.722 163.76 99.356 157.452 96.991 150.849 94.625 143.994 92.259 136.936 89.894 129.722 87.528 122.402 85.163 115.026 82.797 107.645 80.431 100.306 78.066 93.058 75.7 85.945 73.334 79.01 70.969 72.293 68.603 65.826 66.238 59.643 63.872 53.767 61.506 48.219 59.141 43.016 56.775 38.167 54.409 33.678 52.044 29.549 49.678 25.776 47.313 22.353 44.947 19.266 42.581 16.501 40.216 14.042 37.85 11.869 35.484 9.963 33.119 8.301 30.753 6.862 28.388 5.625 26.022 4.568 23.656 3.672 21.291 2.918 18.925 2.286 16.559 1.762 14.194 1.33 11.828 .975 9.463 .687 7.097 .454 4.731 .267 2.366 .118 0 0Z" fill="#d62728" fill-opacity=".25"/>
<path transform="matrix(1,0,0,-1,-19.8195,231.6069)" stroke-width="1" stroke-linecap="butt" stroke-linejoin="round" fill="none" stroke="#d62728" d="M0 0V-.393H2.366 4.731 7.097 9.463 11.828 14.194 16.559 18.925 21.291 23.656 26.022 28.388 30.753 33.119 35.484 37.85 40.216 42.581 44.947 47.313 49.678 52.044 54.409 56.775 59.141 61.506 63.872 66.238 68.603 70.969 73.334 75.7 78.066 80.431 82.797 85.163 87.528 89.894 92.259 94.625 96.991 99.356 101.722 104.088 106.453 108.819 111.185 113.55 115.916 118.281 120.647 123.013 125.378 127.744 130.11 132.475 134.841 137.206 139.572 141.938 144.303 146.669 149.035 151.4 153.766 156.131 158.497 160.863 163.228 165.594 167.96 170.325 172.691 175.056 177.422 179.788 182.153 184.519 186.885 189.25 191.616 193.981 196.347 198.713 201.078 203.444 205.81 208.175 210.541 212.907 215.272 217.638 220.003 222.369 224.735 227.1 229.466 231.832 234.197 236.563 238.928 241.294 243.66 246.025 248.391 250.757 253.122 255.488 257.853 260.219 262.585 264.95 267.316 269.682 272.047 274.413 276.778 279.144 281.51 283.875 286.241 288.607 290.972 293.338 295.703 298.069 300.435 302.8 305.166 307.532 309.897 312.263 314.629 316.994 319.36 321.725 324.091 326.457 328.822 331.188 333.554 335.919 338.285 340.65 343.016 345.382 347.747 350.113 352.479 354.844 357.21 359.575 361.941 364.307 366.672 369.038 371.404 373.769 376.135 378.5 380.866 383.232 385.597 387.963 390.329 392.694 395.06 397.425 399.791 402.157 404.522 406.888 409.254 411.619 413.985 416.35 418.716 421.082 423.447 425.813 428.179 430.544 432.91 435.276 437.641 440.007 442.372 444.738 447.104 449.469 451.835 454.201 456.566 458.932 461.297 463.663 466.029 468.394 470.76V-.335L468.394-.317 466.029-.295 463.663-.268 461.297-.233 458.932-.19 456.566-.138 454.201-.074 451.835 .004 449.469 .097 447.104 .209 444.738 .342 442.372 .5 440.007 .684 437.641 .898 435.276 1.147 432.91 1.432 430.544 1.758 428.179 2.129 425.813 2.547 423.447 3.015 421.082 3.537 418.716 4.116 416.35 4.753 413.985 5.451 411.619 6.211 409.254 7.035 406.888 7.923 404.522 8.876 402.157 9.893 399.791 10.973 397.425 12.117 395.06 13.322 392.694 14.588 390.329 15.911 387.963 17.291 385.597 18.725 383.232 20.211 380.866 21.746 378.5 23.328 376.135 24.954 373.769 26.621 371.404 28.327 369.038 30.068 366.672 31.841 364.307 33.643 361.941 35.468 359.575 37.315 357.21 39.177 354.844 41.05 352.479 42.93 350.113 44.812 347.747 46.69 345.382 48.559 343.016 50.415 340.65 52.253 338.285 54.069 335.919 55.859 333.554 57.62 331.188 59.349 328.822 61.045 326.457 62.707 324.091 64.334 321.725 65.927 319.36 67.486 316.994 69.014 314.629 70.513 312.263 71.983 309.897 73.428 307.532 74.848 305.166 76.247 302.8 77.624 300.435 78.98 298.069 80.315 295.703 81.627 293.338 82.916 290.972 84.178 288.607 85.409 286.241 86.607 283.875 87.768 281.51 88.887 279.144 89.96 276.778 90.984 274.413 91.955 272.047 92.872 269.682 93.733 267.316 94.539 264.95 95.289 262.585 95.988 260.219 96.639 257.853 97.247 255.488 97.819 253.122 98.363 250.757 98.888 248.391 99.403 246.025 99.92 243.66 100.447 241.294 100.998 238.928 101.581 236.563 102.209 234.197 102.891 231.832 103.638 229.466 104.458 227.1 105.359 224.735 106.349 222.369 107.435 220.003 108.623 217.638 109.917 215.272 111.323 212.907 112.844 210.541 114.484 208.175 116.246 205.81 118.134 203.444 120.149 201.078 122.294 198.713 124.572 196.347 126.985 193.981 129.533 191.616 132.218 189.25 135.04 186.885 137.997 184.519 141.086 182.153 144.303 179.788 147.641 177.422 151.091 175.056 154.64 172.691 158.275 170.325 161.976 167.96 165.723 165.594 169.49 163.228 173.25 160.863 176.972 158.497 180.621 156.131 184.162 153.766 187.557 151.4 190.767 149.035 193.751 146.669 196.469 144.303 198.883 141.938 200.954 139.572 202.646 137.206 203.926 134.841 204.763 132.475 205.131 130.11 205.007 127.744 204.374 125.378 203.22 123.013 201.535 120.647 199.318 118.281 196.57 115.916 193.3 113.55 189.521 111.185 185.25 108.819 180.509 106.453 175.325 104.088 169.731 101.722 163.76 99.356 157.452 96.991 150.849 94.625 143.994 92.259 136.936 89.894 129.722 87.528 122.402 85.163 115.026 82.797 107.645 80.431 100.306 78.066 93.058 75.7 85.945 73.334 79.01 70.969 72.293 68.603 65.826 66.238 59.643 63.872 53.767 61.506 48.219 59.141 43.016 56.775 38.167 54.409 33.678 52.044 29.549 49.678 25.776 47.313 22.353 44.947 19.266 42.581 16.501 40.216 14.042 37.85 11.869 35.484 9.963 33.119 8.301 30.753 6.862 28.388 5.625 26.022 4.568 23.656 3.672 21.291 2.918 18.925 2.286 16.559 1.762 14.194 1.33 11.828 .975 9.463 .687 7.097 .454 4.731 .267 2.366 .118 0 0Z"/>
</g>
<g clip-path="url(#clip_2)">
<path transform="matrix(1,0,0,-1,-57.7631,231.8871)" d="M0 0V-.113H3.286 6.571 9.857 13.142 16.428 19.713 22.999 26.284 29.57 32.856 36.141 39.427 42.712 45.998 49.283 52.569 55.854 59.14 62.426 65.711 68.997 72.282 75.568 78.853 82.139 85.425 88.71 91.996 95.281 98.567 101.852 105.138 108.423 111.709 114.995 118.28 121.566 124.851 128.137 131.422 134.708 137.993 141.279 144.565 147.85 151.136 154.421 157.707 160.992 164.278 167.563 170.849 174.135 177.42 180.706 183.991 187.277 190.562 193.848 197.134 200.419 203.705 206.99 210.276 213.561 216.847 220.132 223.418 226.704 229.989 233.275 236.56 239.846 243.131 246.417 249.702 252.988 256.274 259.559 262.845 266.13 269.416 272.701 275.987 279.272 282.558 285.844 289.129 292.415 295.7 298.986 302.271 305.557 308.842 312.128 315.414 318.699 321.985 325.27 328.556 331.841 335.127 338.413 341.698 344.984 348.269 351.555 354.84 358.126 361.411 364.697 367.983 371.268 374.554 377.839 381.125 384.41 387.696 390.981 394.267 397.553 400.838 404.124 407.409 410.695 413.98 417.266 420.552 423.837 427.123 430.408 433.694 436.979 440.265 443.55 446.836 450.122 453.407 456.693 459.978 463.264 466.549 469.835 473.12 476.406 479.692 482.977 486.263 489.548 492.834 496.119 499.405 502.69 505.976 509.262 512.547 515.833 519.118 522.404 525.689 528.975 532.26 535.546 538.832 542.117 545.403 548.688 551.974 555.259 558.545 561.831 565.116 568.402 571.687 574.973 578.258 581.544 584.829 588.115 591.401 594.686 597.972 601.257 604.543 607.828 611.114 614.399 617.685 620.971 624.256 627.542 630.827 634.113 637.398 640.684 643.969 647.255 650.541 653.826V.024L650.541 .066 647.255 .118 643.969 .185 640.684 .268 637.398 .372 634.113 .501 630.827 .659 627.542 .854 624.256 1.09 620.971 1.376 617.685 1.72 614.399 2.13 611.114 2.618 607.828 3.194 604.543 3.869 601.257 4.655 597.972 5.566 594.686 6.615 591.401 7.815 588.115 9.179 584.829 10.719 581.544 12.448 578.258 14.375 574.973 16.511 571.687 18.862 568.402 21.433 565.116 24.226 561.831 27.241 558.545 30.472 555.259 33.911 551.974 37.548 548.688 41.367 545.403 45.348 542.117 49.468 538.832 53.702 535.546 58.02 532.26 62.391 528.975 66.78 525.689 71.153 522.404 75.475 519.118 79.71 515.833 83.823 512.547 87.783 509.262 91.559 505.976 95.125 502.69 98.456 499.405 101.534 496.119 104.343 492.834 106.875 489.548 109.124 486.263 111.089 482.977 112.773 479.692 114.186 476.406 115.338 473.12 116.244 469.835 116.921 466.549 117.39 463.264 117.67 459.978 117.783 456.693 117.75 453.407 117.593 450.122 117.332 446.836 116.986 443.55 116.572 440.265 116.106 436.979 115.603 433.694 115.072 430.408 114.526 427.123 113.97 423.837 113.411 420.552 112.853 417.266 112.297 413.98 111.745 410.695 111.197 407.409 110.649 404.124 110.099 400.838 109.544 397.553 108.978 394.267 108.397 390.981 107.796 387.696 107.169 384.41 106.51 381.125 105.814 377.839 105.076 374.554 104.293 371.268 103.461 367.983 102.576 364.697 101.639 361.411 100.649 358.126 99.608 354.84 98.518 351.555 97.385 348.269 96.213 344.984 95.011 341.698 93.787 338.413 92.55 335.127 91.311 331.841 90.081 328.556 88.87 325.27 87.689 321.985 86.547 318.699 85.454 315.414 84.416 312.128 83.44 308.842 82.53 305.557 81.686 302.271 80.909 298.986 80.195 295.7 79.54 292.415 78.935 289.129 78.373 285.844 77.842 282.558 77.331 279.272 76.827 275.987 76.319 272.701 75.794 269.416 75.239 266.13 74.645 262.845 74.003 259.559 73.305 256.274 72.547 252.988 71.725 249.702 70.84 246.417 69.892 243.131 68.887 239.846 67.831 236.56 66.731 233.275 65.597 229.989 64.438 226.704 63.267 223.418 62.093 220.132 60.928 216.847 59.782 213.561 58.664 210.276 57.581 206.99 56.54 203.705 55.544 200.419 54.594 197.134 53.692 193.848 52.834 190.562 52.015 187.277 51.231 183.991 50.472 180.706 49.731 177.42 48.995 174.135 48.254 170.849 47.498 167.563 46.714 164.278 45.892 160.992 45.022 157.707 44.095 154.421 43.103 151.136 42.04 147.85 40.903 144.565 39.689 141.279 38.398 137.993 37.032 134.708 35.595 131.422 34.092 128.137 32.532 124.851 30.923 121.566 29.275 118.28 27.6 114.995 25.908 111.709 24.213 108.423 22.527 105.138 20.86 101.852 19.226 98.567 17.634 95.281 16.094 91.996 14.615 88.71 13.205 85.425 11.869 82.139 10.612 78.853 9.437 75.568 8.347 72.282 7.342 68.997 6.421 65.711 5.584 62.426 4.827 59.14 4.147 55.854 3.541 52.569 3.004 49.283 2.531 45.998 2.117 42.712 1.758 39.427 1.447 36.141 1.181 32.856 .954 29.57 .762 26.284 .6 22.999 .465 19.713 .353 16.428 .26 13.142 .185 9.857 .123 6.571 .073 3.286 .032 0 0Z" fill="#2ca02c" fill-opacity=".25"/>
<path transform="matrix(1,0,0,-1,-57.7631,231.8871)" stroke-width="1" stroke-linecap="butt" stroke-linejoin="round" fill="none" stroke="#2ca02c" d="M0 0V-.113H3.286 6.571 9.857 13.142 16.428 19.713 22.999 26.284 29.57 32.856 36.141 39.427 42.712 45.998 49.283 52.569 55.854 59.14 62.426 65.711 68.997 72.282 75.568 78.853 82.139 85.425 88.71 91.996 95.281 98.567 101.852 105.138 108.423 111.709 114.995 118.28 121.566 124.851 128.137 131.422 134.708 137.993 141.279 144.565 147.85 151.136 154.421 157.707 160.992 164.278 167.563 170.849 174.135 177.42 180.706 183.991 187.277 190.562 193.848 197.134 200.419 203.705 206.99 210.276 213.561 216.847 220.132 223.418 226.704 229.989 233.275 236.56 239.846 243.131 246.417 249.702 252.988 256.274 259.559 262.845 266.13 269.416 272.701 275.987 279.272 282.558 285.844 289.129 292.415 295.7 298.986 302.271 305.557 308.842 312.128 315.414 318.699 321.985 325.27 328.556 331.841 335.127 338.413 341.698 344.984 348.269 351.555 354.84 358.126 361.411 364.697 367.983 371.268 374.554 377.839 381.125 384.41 387.696 390.981 394.267 397.553 400.838 404.124 407.409 410.695 413.98 417.266 420.552 423.837 427.123 430.408 433.694 436.979 440.265 443.55 446.836 450.122 453.407 456.693 459.978 463.264 466.549 469.835 473.12 476.406 479.692 482.977 486.263 489.548 492.834 496.119 499.405 502.69 505.976 509.262 512.547 515.833 519.118 522.404 525.689 528.975 532.26 535.546 538.832 542.117 545.403 548.688 551.974 555.259 558.545 561.831 565.116 568.402 571.687 574.973 578.258 581.544 584.829 588.115 591.401 594.686 597.972 601.257 604.543 607.828 611.114 614.399 617.685 620.971 624.256 627.542 630.827 634.113 637.398 640.684 643.969 647.255 650.541 653.826V.024L650.541 .066 647.255 .118 643.969 .185 640.684 .268 637.398 .372 634.113 .501 630.827 .659 627.542 .854 624.256 1.09 620.971 1.376 617.685 1.72 614.399 2.13 611.114 2.618 607.828 3.194 604.543 3.869 601.257 4.655 597.972 5.566 594.686 6.615 591.401 7.815 588.115 9.179 584.829 10.719 581.544 12.448 578.258 14.375 574.973 16.511 571.687 18.862 568.402 21.433 565.116 24.226 561.831 27.241 558.545 30.472 555.259 33.911 551.974 37.548 548.688 41.367 545.403 45.348 542.117 49.468 538.832 53.702 535.546 58.02 532.26 62.391 528.975 66.78 525.689 71.153 522.404 75.475 519.118 79.71 515.833 83.823 512.547 87.783 509.262 91.559 505.976 95.125 502.69 98.456 499.405 101.534 496.119 104.343 492.834 106.875 489.548 109.124 486.263 111.089 482.977 112.773 479.692 114.186 476.406 115.338 473.12 116.244 469.835 116.921 466.549 117.39 463.264 117.67 459.978 117.783 456.693 117.75 453.407 117.593 450.122 117.332 446.836 116.986 443.55 116.572 440.265 116.106 436.979 115.603 433.694 115.072 430.408 114.526 427.123 113.97 423.837 113.411 420.552 112.853 417.266 112.297 413.98 111.745 410.695 111.197 407.409 110.649 404.124 110.099 400.838 109.544 397.553 108.978 394.267 108.397 390.981 107.796 387.696 107.169 384.41 106.51 381.125 105.814 377.839 105.076 374.554 104.293 371.268 103.461 367.983 102.576 364.697 101.639 361.411 100.649 358.126 99.608 354.84 98.518 351.555 97.385 348.269 96.213 344.984 95.011 341.698 93.787 338.413 92.55 335.127 91.311 331.841 90.081 328.556 88.87 325.27 87.689 321.985 86.547 318.699 85.454 315.414 84.416 312.128 83.44 308.842 82.53 305.557 81.686 302.271 80.909 298.986 80.195 295.7 79.54 292.415 78.935 289.129 78.373 285.844 77.842 282.558 77.331 279.272 76.827 275.987 76.319 272.701 75.794 269.416 75.239 266.13 74.645 262.845 74.003 259.559 73.305 256.274 72.547 252.988 71.725 249.702 70.84 246.417 69.892 243.131 68.887 239.846 67.831 236.56 66.731 233.275 65.597 229.989 64.438 226.704 63.267 223.418 62.093 220.132 60.928 216.847 59.782 213.561 58.664 210.276 57.581 206.99 56.54 203.705 55.544 200.419 54.594 197.134 53.692 193.848 52.834 190.562 52.015 187.277 51.231 183.991 50.472 180.706 49.731 177.42 48.995 174.135 48.254 170.849 47.498 167.563 46.714 164.278 45.892 160.992 45.022 157.707 44.095 154.421 43.103 151.136 42.04 147.85 40.903 144.565 39.689 141.279 38.398 137.993 37.032 134.708 35.595 131.422 34.092 128.137 32.532 124.851 30.923 121.566 29.275 118.28 27.6 114.995 25.908 111.709 24.213 108.423 22.527 105.138 20.86 101.852 19.226 98.567 17.634 95.281 16.094 91.996 14.615 88.71 13.205 85.425 11.869 82.139 10.612 78.853 9.437 75.568 8.347 72.282 7.342 68.997 6.421 65.711 5.584 62.426 4.827 59.14 4.147 55.854 3.541 52.569 3.004 49.283 2.531 45.998 2.117 42.712 1.758 39.427 1.447 36.141 1.181 32.856 .954 29.57 .762 26.284 .6 22.999 .465 19.713 .353 16.428 .26 13.142 .185 9.857 .123 6.571 .073 3.286 .032 0 0Z"/>
</g>
<g clip-path="url(#clip_3)">
<path transform="matrix(1,0,0,-1,-54.1006,231.832)" d="M0 0V-.168H3.24 6.479 9.719 12.959 16.198 19.438 22.678 25.917 29.157 32.397 35.636 38.876 42.116 45.355 48.595 51.835 55.074 58.314 61.554 64.793 68.033 71.272 74.512 77.752 80.991 84.231 87.471 90.71 93.95 97.19 100.429 103.669 106.909 110.148 113.388 116.628 119.867 123.107 126.347 129.586 132.826 136.066 139.305 142.545 145.785 149.024 152.264 155.504 158.743 161.983 165.223 168.462 171.702 174.942 178.181 181.421 184.661 187.9 191.14 194.379 197.619 200.859 204.098 207.338 210.578 213.817 217.057 220.297 223.536 226.776 230.016 233.255 236.495 239.735 242.974 246.214 249.454 252.693 255.933 259.173 262.412 265.652 268.892 272.131 275.371 278.611 281.85 285.09 288.33 291.569 294.809 298.049 301.288 304.528 307.768 311.007 314.247 317.487 320.726 323.966 327.206 330.445 333.685 336.924 340.164 343.404 346.643 349.883 353.123 356.362 359.602 362.842 366.081 369.321 372.561 375.8 379.04 382.28 385.519 388.759 391.999 395.238 398.478 401.718 404.957 408.197 411.437 414.676 417.916 421.156 424.395 427.635 430.875 434.114 437.354 440.594 443.833 447.073 450.312 453.552 456.792 460.031 463.271 466.511 469.75 472.99 476.23 479.469 482.709 485.949 489.188 492.428 495.668 498.907 502.147 505.387 508.626 511.866 515.106 518.345 521.585 524.825 528.064 531.304 534.544 537.783 541.023 544.263 547.502 550.742 553.982 557.221 560.461 563.701 566.94 570.18 573.419 576.659 579.899 583.138 586.378 589.618 592.857 596.097 599.337 602.576 605.816 609.056 612.295 615.535 618.775 622.014 625.254 628.494 631.733 634.973 638.213 641.452 644.692V-.121L641.452-.107 638.213-.09 634.973-.068 631.733-.041 628.494-.007 625.254 .035 622.014 .086 618.775 .148 615.535 .222 612.295 .313 609.056 .42 605.816 .548 602.576 .7 599.337 .878 596.097 1.086 592.857 1.329 589.618 1.61 586.378 1.934 583.138 2.305 579.899 2.729 576.659 3.211 573.419 3.755 570.18 4.369 566.94 5.057 563.701 5.826 560.461 6.682 557.221 7.63 553.982 8.677 550.742 9.829 547.502 11.091 544.263 12.469 541.023 13.969 537.783 15.594 534.544 17.35 531.304 19.238 528.064 21.262 524.825 23.422 521.585 25.718 518.345 28.148 515.106 30.708 511.866 33.392 508.626 36.192 505.387 39.099 502.147 42.098 498.907 45.177 495.668 48.317 492.428 51.5 489.188 54.703 485.949 57.905 482.709 61.08 479.469 64.205 476.23 67.253 472.99 70.199 469.75 73.018 466.511 75.687 463.271 78.184 460.031 80.49 456.792 82.59 453.552 84.469 450.312 86.118 447.073 87.533 443.833 88.711 440.594 89.656 437.354 90.373 434.114 90.874 430.875 91.173 427.635 91.286 424.395 91.234 421.156 91.037 417.916 90.719 414.676 90.303 411.437 89.815 408.197 89.278 404.957 88.715 401.718 88.147 398.478 87.594 395.238 87.074 391.999 86.601 388.759 86.189 385.519 85.846 382.28 85.581 379.04 85.397 375.8 85.298 372.561 85.283 369.321 85.35 366.081 85.498 362.842 85.721 359.602 86.016 356.362 86.376 353.123 86.796 349.883 87.271 346.643 87.795 343.404 88.364 340.164 88.973 336.924 89.619 333.685 90.296 330.445 91.003 327.206 91.735 323.966 92.49 320.726 93.263 317.487 94.053 314.247 94.854 311.007 95.663 307.768 96.474 304.528 97.285 301.288 98.088 298.049 98.879 294.809 99.653 291.569 100.404 288.33 101.128 285.09 101.82 281.85 102.475 278.611 103.09 275.371 103.662 272.131 104.19 268.892 104.67 265.652 105.102 262.412 105.487 259.173 105.822 255.933 106.109 252.693 106.348 249.454 106.538 246.214 106.681 242.974 106.774 239.735 106.819 236.495 106.813 233.255 106.756 230.016 106.644 226.776 106.476 223.536 106.249 220.297 105.959 217.057 105.603 213.817 105.176 210.578 104.676 207.338 104.098 204.098 103.439 200.859 102.693 197.619 101.858 194.379 100.929 191.14 99.904 187.9 98.778 184.661 97.548 181.421 96.211 178.181 94.764 174.942 93.205 171.702 91.53 168.462 89.739 165.223 87.829 161.983 85.799 158.743 83.651 155.504 81.384 152.264 79.001 149.024 76.505 145.785 73.901 142.545 71.195 139.305 68.394 136.066 65.509 132.826 62.549 129.586 59.528 126.347 56.459 123.107 53.358 119.867 50.24 116.628 47.121 113.388 44.02 110.148 40.954 106.909 37.939 103.669 34.992 100.429 32.128 97.19 29.363 93.95 26.708 90.71 24.175 87.471 21.775 84.231 19.513 80.991 17.395 77.752 15.426 74.512 13.605 71.272 11.934 68.033 10.408 64.793 9.026 61.554 7.78 58.314 6.666 55.074 5.675 51.835 4.8 48.595 4.033 45.355 3.363 42.116 2.784 38.876 2.285 35.636 1.859 32.397 1.497 29.157 1.192 25.917 .936 22.678 .723 19.438 .547 16.198 .402 12.959 .284 9.719 .188 6.479 .111 3.24 .049 0 0Z" fill="#ff7f0e" fill-opacity=".25"/>
<path transform="matrix(1,0,0,-1,-54.1006,231.832)" stroke-width="1" stroke-linecap="butt" stroke-linejoin="round" fill="none" stroke="#ff7f0e" d="M0 0V-.168H3.24 6.479 9.719 12.959 16.198 19.438 22.678 25.917 29.157 32.397 35.636 38.876 42.116 45.355 48.595 51.835 55.074 58.314 61.554 64.793 68.033 71.272 74.512 77.752 80.991 84.231 87.471 90.71 93.95 97.19 100.429 103.669 106.909 110.148 113.388 116.628 119.867 123.107 126.347 129.586 132.826 136.066 139.305 142.545 145.785 149.024 152.264 155.504 158.743 161.983 165.223 168.462 171.702 174.942 178.181 181.421 184.661 187.9 191.14 194.379 197.619 200.859 204.098 207.338 210.578 213.817 217.057 220.297 223.536 226.776 230.016 233.255 236.495 239.735 242.974 246.214 249.454 252.693 255.933 259.173 262.412 265.652 268.892 272.131 275.371 278.611 281.85 285.09 288.33 291.569 294.809 298.049 301.288 304.528 307.768 311.007 314.247 317.487 320.726 323.966 327.206 330.445 333.685 336.924 340.164 343.404 346.643 349.883 353.123 356.362 359.602 362.842 366.081 369.321 372.561 375.8 379.04 382.28 385.519 388.759 391.999 395.238 398.478 401.718 404.957 408.197 411.437 414.676 417.916 421.156 424.395 427.635 430.875 434.114 437.354 440.594 443.833 447.073 450.312 453.552 456.792 460.031 463.271 466.511 469.75 472.99 476.23 479.469 482.709 485.949 489.188 492.428 495.668 498.907 502.147 505.387 508.626 511.866 515.106 518.345 521.585 524.825 528.064 531.304 534.544 537.783 541.023 544.263 547.502 550.742 553.982 557.221 560.461 563.701 566.94 570.18 573.419 576.659 579.899 583.138 586.378 589.618 592.857 596.097 599.337 602.576 605.816 609.056 612.295 615.535 618.775 622.014 625.254 628.494 631.733 634.973 638.213 641.452 644.692V-.121L641.452-.107 638.213-.09 634.973-.068 631.733-.041 628.494-.007 625.254 .035 622.014 .086 618.775 .148 615.535 .222 612.295 .313 609.056 .42 605.816 .548 602.576 .7 599.337 .878 596.097 1.086 592.857 1.329 589.618 1.61 586.378 1.934 583.138 2.305 579.899 2.729 576.659 3.211 573.419 3.755 570.18 4.369 566.94 5.057 563.701 5.826 560.461 6.682 557.221 7.63 553.982 8.677 550.742 9.829 547.502 11.091 544.263 12.469 541.023 13.969 537.783 15.594 534.544 17.35 531.304 19.238 528.064 21.262 524.825 23.422 521.585 25.718 518.345 28.148 515.106 30.708 511.866 33.392 508.626 36.192 505.387 39.099 502.147 42.098 498.907 45.177 495.668 48.317 492.428 51.5 489.188 54.703 485.949 57.905 482.709 61.08 479.469 64.205 476.23 67.253 472.99 70.199 469.75 73.018 466.511 75.687 463.271 78.184 460.031 80.49 456.792 82.59 453.552 84.469 450.312 86.118 447.073 87.533 443.833 88.711 440.594 89.656 437.354 90.373 434.114 90.874 430.875 91.173 427.635 91.286 424.395 91.234 421.156 91.037 417.916 90.719 414.676 90.303 411.437 89.815 408.197 89.278 404.957 88.715 401.718 88.147 398.478 87.594 395.238 87.074 391.999 86.601 388.759 86.189 385.519 85.846 382.28 85.581 379.04 85.397 375.8 85.298 372.561 85.283 369.321 85.35 366.081 85.498 362.842 85.721 359.602 86.016 356.362 86.376 353.123 86.796 349.883 87.271 346.643 87.795 343.404 88.364 340.164 88.973 336.924 89.619 333.685 90.296 330.445 91.003 327.206 91.735 323.966 92.49 320.726 93.263 317.487 94.053 314.247 94.854 311.007 95.663 307.768 96.474 304.528 97.285 301.288 98.088 298.049 98.879 294.809 99.653 291.569 100.404 288.33 101.128 285.09 101.82 281.85 102.475 278.611 103.09 275.371 103.662 272.131 104.19 268.892 104.67 265.652 105.102 262.412 105.487 259.173 105.822 255.933 106.109 252.693 106.348 249.454 106.538 246.214 106.681 242.974 106.774 239.735 106.819 236.495 106.813 233.255 106.756 230.016 106.644 226.776 106.476 223.536 106.249 220.297 105.959 217.057 105.603 213.817 105.176 210.578 104.676 207.338 104.098 204.098 103.439 200.859 102.693 197.619 101.858 194.379 100.929 191.14 99.904 187.9 98.778 184.661 97.548 181.421 96.211 178.181 94.764 174.942 93.205 171.702 91.53 168.462 89.739 165.223 87.829 161.983 85.799 158.743 83.651 155.504 81.384 152.264 79.001 149.024 76.505 145.785 73.901 142.545 71.195 139.305 68.394 136.066 65.509 132.826 62.549 129.586 59.528 126.347 56.459 123.107 53.358 119.867 50.24 116.628 47.121 113.388 44.02 110.148 40.954 106.909 37.939 103.669 34.992 100.429 32.128 97.19 29.363 93.95 26.708 90.71 24.175 87.471 21.775 84.231 19.513 80.991 17.395 77.752 15.426 74.512 13.605 71.272 11.934 68.033 10.408 64.793 9.026 61.554 7.78 58.314 6.666 55.074 5.675 51.835 4.8 48.595 4.033 45.355 3.363 42.116 2.784 38.876 2.285 35.636 1.859 32.397 1.497 29.157 1.192 25.917 .936 22.678 .723 19.438 .547 16.198 .402 12.959 .284 9.719 .188 6.479 .111 3.24 .049 0 0Z"/>
</g>
<g clip-path="url(#clip_4)">
<path transform="matrix(1,0,0,-1,-45.4862,231.8651)" d="M0 0V-.135H3.093 6.186 9.279 12.371 15.464 18.557 21.65 24.743 27.836 30.928 34.021 37.114 40.207 43.3 46.393 49.485 52.578 55.671 58.764 61.857 64.95 68.042 71.135 74.228 77.321 80.414 83.507 86.599 89.692 92.785 95.878 98.971 102.064 105.156 108.249 111.342 114.435 117.528 120.621 123.713 126.806 129.899 132.992 136.085 139.178 142.27 145.363 148.456 151.549 154.642 157.735 160.827 163.92 167.013 170.106 173.199 176.292 179.385 182.477 185.57 188.663 191.756 194.849 197.942 201.034 204.127 207.22 210.313 213.406 216.499 219.591 222.684 225.777 228.87 231.963 235.056 238.148 241.241 244.334 247.427 250.52 253.613 256.705 259.798 262.891 265.984 269.077 272.17 275.262 278.355 281.448 284.541 287.634 290.727 293.819 296.912 300.005 303.098 306.191 309.284 312.376 315.469 318.562 321.655 324.748 327.841 330.934 334.026 337.119 340.212 343.305 346.398 349.491 352.583 355.676 358.769 361.862 364.955 368.048 371.14 374.233 377.326 380.419 383.512 386.605 389.697 392.79 395.883 398.976 402.069 405.162 408.254 411.347 414.44 417.533 420.626 423.719 426.811 429.904 432.997 436.09 439.183 442.276 445.368 448.461 451.554 454.647 457.74 460.833 463.925 467.018 470.111 473.204 476.297 479.39 482.482 485.575 488.668 491.761 494.854 497.947 501.039 504.132 507.225 510.318 513.411 516.504 519.596 522.689 525.782 528.875 531.968 535.061 538.154 541.246 544.339 547.432 550.525 553.618 556.711 559.803 562.896 565.989 569.082 572.175 575.268 578.36 581.453 584.546 587.639 590.732 593.825 596.917 600.01 603.103 606.196 609.289 612.382 615.474V-.061L612.382-.039 609.289-.01 606.196 .026 603.103 .071 600.01 .127 596.917 .197 593.825 .283 590.732 .389 587.639 .517 584.546 .673 581.453 .86 578.36 1.083 575.268 1.349 572.175 1.663 569.082 2.031 565.989 2.461 562.896 2.96 559.803 3.534 556.711 4.193 553.618 4.943 550.525 5.791 547.432 6.746 544.339 7.814 541.246 9 538.154 10.311 535.061 11.749 531.968 13.318 528.875 15.019 525.782 16.851 522.689 18.813 519.596 20.898 516.504 23.102 513.411 25.416 510.318 27.829 507.225 30.328 504.132 32.899 501.039 35.525 497.947 38.19 494.854 40.873 491.761 43.556 488.668 46.219 485.575 48.842 482.482 51.404 479.39 53.889 476.297 56.279 473.204 58.558 470.111 60.713 467.018 62.734 463.925 64.613 460.833 66.344 457.74 67.925 454.647 69.357 451.554 70.642 448.461 71.787 445.368 72.8 442.276 73.69 439.183 74.469 436.09 75.149 432.997 75.744 429.904 76.267 426.811 76.732 423.719 77.152 420.626 77.537 417.533 77.901 414.44 78.252 411.347 78.599 408.254 78.949 405.162 79.309 402.069 79.683 398.976 80.075 395.883 80.487 392.79 80.923 389.697 81.383 386.605 81.869 383.512 82.383 380.419 82.925 377.326 83.498 374.233 84.103 371.14 84.743 368.048 85.418 364.955 86.133 361.862 86.889 358.769 87.689 355.676 88.537 352.583 89.434 349.491 90.383 346.398 91.385 343.305 92.441 340.212 93.552 337.119 94.716 334.026 95.931 330.934 97.195 327.841 98.504 324.748 99.85 321.655 101.229 318.562 102.631 315.469 104.047 312.376 105.468 309.284 106.881 306.191 108.274 303.098 109.635 300.005 110.95 296.912 112.207 293.819 113.391 290.727 114.491 287.634 115.494 284.541 116.39 281.448 117.168 278.355 117.821 275.262 118.342 272.17 118.726 269.077 118.972 265.984 119.078 262.891 119.048 259.798 118.885 256.705 118.595 253.613 118.188 250.52 117.672 247.427 117.06 244.334 116.364 241.241 115.599 238.148 114.778 235.056 113.917 231.963 113.028 228.87 112.125 225.777 111.221 222.684 110.326 219.591 109.447 216.499 108.593 213.406 107.766 210.313 106.969 207.22 106.199 204.127 105.453 201.034 104.724 197.942 104.003 194.849 103.278 191.756 102.537 188.663 101.765 185.57 100.945 182.477 100.062 179.385 99.098 176.292 98.038 173.199 96.864 170.106 95.564 167.013 94.123 163.92 92.533 160.827 90.783 157.735 88.868 154.642 86.786 151.549 84.536 148.456 82.122 145.363 79.548 142.27 76.825 139.178 73.963 136.085 70.976 132.992 67.88 129.899 64.693 126.806 61.434 123.713 58.125 120.621 54.785 117.528 51.437 114.435 48.101 111.342 44.8 108.249 41.551 105.156 38.375 102.064 35.289 98.971 32.309 95.878 29.447 92.785 26.717 89.692 24.127 86.599 21.686 83.507 19.398 80.414 17.266 77.321 15.293 74.228 13.476 71.135 11.814 68.042 10.302 64.95 8.935 61.857 7.707 58.764 6.61 55.671 5.636 52.578 4.777 49.485 4.023 46.393 3.366 43.3 2.797 40.207 2.307 37.114 1.887 34.021 1.531 30.928 1.229 27.836 .976 24.743 .765 21.65 .589 18.557 .445 15.464 .326 12.371 .23 9.279 .152 6.186 .09 3.093 .04 0 0Z" fill="#1f77b4" fill-opacity=".25"/>
<path transform="matrix(1,0,0,-1,-45.4862,231.8651)" stroke-width="1" stroke-linecap="butt" stroke-linejoin="round" fill="none" stroke="#1f77b4" d="M0 0V-.135H3.093 6.186 9.279 12.371 15.464 18.557 21.65 24.743 27.836 30.928 34.021 37.114 40.207 43.3 46.393 49.485 52.578 55.671 58.764 61.857 64.95 68.042 71.135 74.228 77.321 80.414 83.507 86.599 89.692 92.785 95.878 98.971 102.064 105.156 108.249 111.342 114.435 117.528 120.621 123.713 126.806 129.899 132.992 136.085 139.178 142.27 145.363 148.456 151.549 154.642 157.735 160.827 163.92 167.013 170.106 173.199 176.292 179.385 182.477 185.57 188.663 191.756 194.849 197.942 201.034 204.127 207.22 210.313 213.406 216.499 219.591 222.684 225.777 228.87 231.963 235.056 238.148 241.241 244.334 247.427 250.52 253.613 256.705 259.798 262.891 265.984 269.077 272.17 275.262 278.355 281.448 284.541 287.634 290.727 293.819 296.912 300.005 303.098 306.191 309.284 312.376 315.469 318.562 321.655 324.748 327.841 330.934 334.026 337.119 340.212 343.305 346.398 349.491 352.583 355.676 358.769 361.862 364.955 368.048 371.14 374.233 377.326 380.419 383.512 386.605 389.697 392.79 395.883 398.976 402.069 405.162 408.254 411.347 414.44 417.533 420.626 423.719 426.811 429.904 432.997 436.09 439.183 442.276 445.368 448.461 451.554 454.647 457.74 460.833 463.925 467.018 470.111 473.204 476.297 479.39 482.482 485.575 488.668 491.761 494.854 497.947 501.039 504.132 507.225 510.318 513.411 516.504 519.596 522.689 525.782 528.875 531.968 535.061 538.154 541.246 544.339 547.432 550.525 553.618 556.711 559.803 562.896 565.989 569.082 572.175 575.268 578.36 581.453 584.546 587.639 590.732 593.825 596.917 600.01 603.103 606.196 609.289 612.382 615.474V-.061L612.382-.039 609.289-.01 606.196 .026 603.103 .071 600.01 .127 596.917 .197 593.825 .283 590.732 .389 587.639 .517 584.546 .673 581.453 .86 578.36 1.083 575.268 1.349 572.175 1.663 569.082 2.031 565.989 2.461 562.896 2.96 559.803 3.534 556.711 4.193 553.618 4.943 550.525 5.791 547.432 6.746 544.339 7.814 541.246 9 538.154 10.311 535.061 11.749 531.968 13.318 528.875 15.019 525.782 16.851 522.689 18.813 519.596 20.898 516.504 23.102 513.411 25.416 510.318 27.829 507.225 30.328 504.132 32.899 501.039 35.525 497.947 38.19 494.854 40.873 491.761 43.556 488.668 46.219 485.575 48.842 482.482 51.404 479.39 53.889 476.297 56.279 473.204 58.558 470.111 60.713 467.018 62.734 463.925 64.613 460.833 66.344 457.74 67.925 454.647 69.357 451.554 70.642 448.461 71.787 445.368 72.8 442.276 73.69 439.183 74.469 436.09 75.149 432.997 75.744 429.904 76.267 426.811 76.732 423.719 77.152 420.626 77.537 417.533 77.901 414.44 78.252 411.347 78.599 408.254 78.949 405.162 79.309 402.069 79.683 398.976 80.075 395.883 80.487 392.79 80.923 389.697 81.383 386.605 81.869 383.512 82.383 380.419 82.925 377.326 83.498 374.233 84.103 371.14 84.743 368.048 85.418 364.955 86.133 361.862 86.889 358.769 87.689 355.676 88.537 352.583 89.434 349.491 90.383 346.398 91.385 343.305 92.441 340.212 93.552 337.119 94.716 334.026 95.931 330.934 97.195 327.841 98.504 324.748 99.85 321.655 101.229 318.562 102.631 315.469 104.047 312.376 105.468 309.284 106.881 306.191 108.274 303.098 109.635 300.005 110.95 296.912 112.207 293.819 113.391 290.727 114.491 287.634 115.494 284.541 116.39 281.448 117.168 278.355 117.821 275.262 118.342 272.17 118.726 269.077 118.972 265.984 119.078 262.891 119.048 259.798 118.885 256.705 118.595 253.613 118.188 250.52 117.672 247.427 117.06 244.334 116.364 241.241 115.599 238.148 114.778 235.056 113.917 231.963 113.028 228.87 112.125 225.777 111.221 222.684 110.326 219.591 109.447 216.499 108.593 213.406 107.766 210.313 106.969 207.22 106.199 204.127 105.453 201.034 104.724 197.942 104.003 194.849 103.278 191.756 102.537 188.663 101.765 185.57 100.945 182.477 100.062 179.385 99.098 176.292 98.038 173.199 96.864 170.106 95.564 167.013 94.123 163.92 92.533 160.827 90.783 157.735 88.868 154.642 86.786 151.549 84.536 148.456 82.122 145.363 79.548 142.27 76.825 139.178 73.963 136.085 70.976 132.992 67.88 129.899 64.693 126.806 61.434 123.713 58.125 120.621 54.785 117.528 51.437 114.435 48.101 111.342 44.8 108.249 41.551 105.156 38.375 102.064 35.289 98.971 32.309 95.878 29.447 92.785 26.717 89.692 24.127 86.599 21.686 83.507 19.398 80.414 17.266 77.321 15.293 74.228 13.476 71.135 11.814 68.042 10.302 64.95 8.935 61.857 7.707 58.764 6.61 55.671 5.636 52.578 4.777 49.485 4.023 46.393 3.366 43.3 2.797 40.207 2.307 37.114 1.887 34.021 1.531 30.928 1.229 27.836 .976 24.743 .765 21.65 .589 18.557 .445 15.464 .326 12.371 .23 9.279 .152 6.186 .09 3.093 .04 0 0Z"/>
</g>
<path transform="matrix(1,0,0,-1,65.45,232)" d="M0 0V-3.5"/>
<path transform="matrix(1,0,0,-1,65.45,232)" stroke-width=".8" stroke-linecap="butt" stroke-linejoin="round" fill="none" stroke="#000000" d="M0 0V-3.5"/>
<text xml:space="preserve" transform="matrix(1 0 -0 1 0 288)" font-size="15" font-family="DejaVuSans"><tspan y="-37.609" x="53.52 63.06 67.83">0.0</tspan></text>
<path transform="matrix(1,0,0,-1,106.2765,232)" d="M0 0V-3.5"/>
<path transform="matrix(1,0,0,-1,106.2765,232)" stroke-width=".8" stroke-linecap="butt" stroke-linejoin="round" fill="none" stroke="#000000" d="M0 0V-3.5"/>
<text xml:space="preserve" transform="matrix(1 0 -0 1 0 288)" font-size="15" font-family="DejaVuSans"><tspan y="-37.609" x="94.347 103.887 108.657">0.1</tspan></text>
<path transform="matrix(1,0,0,-1,147.103,232)" d="M0 0V-3.5"/>
<path transform="matrix(1,0,0,-1,147.103,232)" stroke-width=".8" stroke-linecap="butt" stroke-linejoin="round" fill="none" stroke="#000000" d="M0 0V-3.5"/>
<text xml:space="preserve" transform="matrix(1 0 -0 1 0 288)" font-size="15" font-family="DejaVuSans"><tspan y="-37.609" x="135.173 144.71302 149.48302">0.2</tspan></text>
<path transform="matrix(1,0,0,-1,187.9295,232)" d="M0 0V-3.5"/>
<path transform="matrix(1,0,0,-1,187.9295,232)" stroke-width=".8" stroke-linecap="butt" stroke-linejoin="round" fill="none" stroke="#000000" d="M0 0V-3.5"/>
<text xml:space="preserve" transform="matrix(1 0 -0 1 0 288)" font-size="15" font-family="DejaVuSans"><tspan y="-37.609" x="176 185.54001 190.31002">0.3</tspan></text>
<path transform="matrix(1,0,0,-1,228.756,232)" d="M0 0V-3.5"/>
<path transform="matrix(1,0,0,-1,228.756,232)" stroke-width=".8" stroke-linecap="butt" stroke-linejoin="round" fill="none" stroke="#000000" d="M0 0V-3.5"/>
<text xml:space="preserve" transform="matrix(1 0 -0 1 0 288)" font-size="15" font-family="DejaVuSans"><tspan y="-37.609" x="216.826 226.366 231.136">0.4</tspan></text>
<path transform="matrix(1,0,0,-1,269.5825,232)" d="M0 0V-3.5"/>
<path transform="matrix(1,0,0,-1,269.5825,232)" stroke-width=".8" stroke-linecap="butt" stroke-linejoin="round" fill="none" stroke="#000000" d="M0 0V-3.5"/>
<text xml:space="preserve" transform="matrix(1 0 -0 1 0 288)" font-size="15" font-family="DejaVuSans"><tspan y="-37.609" x="257.653 267.19303 271.963">0.5</tspan></text>
<path transform="matrix(1,0,0,-1,310.409,232)" d="M0 0V-3.5"/>
<path transform="matrix(1,0,0,-1,310.409,232)" stroke-width=".8" stroke-linecap="butt" stroke-linejoin="round" fill="none" stroke="#000000" d="M0 0V-3.5"/>
<text xml:space="preserve" transform="matrix(1 0 -0 1 0 288)" font-size="15" font-family="DejaVuSans"><tspan y="-37.609" x="298.479 308.019 312.789">0.6</tspan></text>
<path transform="matrix(1,0,0,-1,351.2355,232)" d="M0 0V-3.5"/>
<path transform="matrix(1,0,0,-1,351.2355,232)" stroke-width=".8" stroke-linecap="butt" stroke-linejoin="round" fill="none" stroke="#000000" d="M0 0V-3.5"/>
<text xml:space="preserve" transform="matrix(1 0 -0 1 0 288)" font-size="15" font-family="DejaVuSans"><tspan y="-37.609" x="339.306 348.846 353.616">0.7</tspan></text>
<path transform="matrix(1,0,0,-1,392.062,232)" d="M0 0V-3.5"/>
<path transform="matrix(1,0,0,-1,392.062,232)" stroke-width=".8" stroke-linecap="butt" stroke-linejoin="round" fill="none" stroke="#000000" d="M0 0V-3.5"/>
<text xml:space="preserve" transform="matrix(1 0 -0 1 0 288)" font-size="15" font-family="DejaVuSans"><tspan y="-37.609" x="380.132 389.672 394.442">0.8</tspan></text>
<path transform="matrix(1,0,0,-1,432.8885,232)" d="M0 0V-3.5"/>
<path transform="matrix(1,0,0,-1,432.8885,232)" stroke-width=".8" stroke-linecap="butt" stroke-linejoin="round" fill="none" stroke="#000000" d="M0 0V-3.5"/>
<text xml:space="preserve" transform="matrix(1 0 -0 1 0 288)" font-size="15" font-family="DejaVuSans"><tspan y="-37.609" x="420.959 430.49903 435.269">0.9</tspan></text>
<path transform="matrix(1,0,0,-1,473.715,232)" d="M0 0V-3.5"/>
<path transform="matrix(1,0,0,-1,473.715,232)" stroke-width=".8" stroke-linecap="butt" stroke-linejoin="round" fill="none" stroke="#000000" d="M0 0V-3.5"/>
<text xml:space="preserve" transform="matrix(1 0 -0 1 0 288)" font-size="15" font-family="DejaVuSans"><tspan y="-37.609" x="461.785 471.325 476.095">1.0</tspan><tspan y="-19.093" x="197.418 204.0361 213.26111 221.07611 226.95612 231.72612 242.19612 251.39113 259.20613 268.43113 273.2011 283.21113 291.46113 299.71113 309.22114 315.38615 324.58116 332.83116">Test Case Accuracy</tspan></text>
<path transform="matrix(1,0,0,-1,65.45,232)" d="M0 0H-3.5"/>
<path transform="matrix(1,0,0,-1,65.45,232)" stroke-width=".8" stroke-linecap="butt" stroke-linejoin="round" fill="none" stroke="#000000" d="M0 0H-3.5"/>
<text xml:space="preserve" transform="matrix(1 0 -0 1 0 288)" font-size="15" font-family="DejaVuSans"><tspan y="-50.305" x="34.591 44.131 48.901">0.0</tspan></text>
<path transform="matrix(1,0,0,-1,65.45,186.72101)" d="M0 0H-3.5"/>
<path transform="matrix(1,0,0,-1,65.45,186.72101)" stroke-width=".8" stroke-linecap="butt" stroke-linejoin="round" fill="none" stroke="#000000" d="M0 0H-3.5"/>
<text xml:space="preserve" transform="matrix(1 0 -0 1 0 288)" font-size="15" font-family="DejaVuSans"><tspan y="-95.584" x="34.591 44.131 48.901">0.1</tspan></text>
<path transform="matrix(1,0,0,-1,65.45,141.4421)" d="M0 0H-3.5"/>
<path transform="matrix(1,0,0,-1,65.45,141.4421)" stroke-width=".8" stroke-linecap="butt" stroke-linejoin="round" fill="none" stroke="#000000" d="M0 0H-3.5"/>
<text xml:space="preserve" transform="matrix(1 0 -0 1 0 288)" font-size="15" font-family="DejaVuSans"><tspan y="-140.863" x="34.591 44.131 48.901">0.2</tspan></text>
<path transform="matrix(1,0,0,-1,65.45,96.1631)" d="M0 0H-3.5"/>
<path transform="matrix(1,0,0,-1,65.45,96.1631)" stroke-width=".8" stroke-linecap="butt" stroke-linejoin="round" fill="none" stroke="#000000" d="M0 0H-3.5"/>
<text xml:space="preserve" transform="matrix(1 0 -0 1 0 288)" font-size="15" font-family="DejaVuSans"><tspan y="-186.142" x="34.591 44.131 48.901">0.3</tspan></text>
<path transform="matrix(1,0,0,-1,65.45,50.884096)" d="M0 0H-3.5"/>
<path transform="matrix(1,0,0,-1,65.45,50.884096)" stroke-width=".8" stroke-linecap="butt" stroke-linejoin="round" fill="none" stroke="#000000" d="M0 0H-3.5"/>
<text xml:space="preserve" transform="matrix(1 0 -0 1 0 288)" font-size="15" font-family="DejaVuSans"><tspan y="-231.421" x="34.591 44.131 48.901">0.4</tspan></text>
<text xml:space="preserve" transform="matrix(0 -1 1 0 0 288)" font-size="15" font-family="DejaVuSans"><tspan y="27.4656" x="60.3453 69.14029 74.977199 84.157199 93.6822 97.852199 107.077198 121.687198 126.4572 135.2522 141.0891 150.2691 159.7941 168.9891 178.5141 182.6841 186.8541 191.0241 196.9041 205.7841 210.55411 222.10411 231.32912 240.83911 248.65412 252.82411 258.7041">Problem Probability Density</tspan></text>
<path transform="matrix(1,0,0,-1,65.45,232)" stroke-width=".8" stroke-linecap="square" stroke-miterlimit="10" stroke-linejoin="miter" fill="none" stroke="#000000" d="M0 0V215.8"/>
<path transform="matrix(1,0,0,-1,65.45,232)" stroke-width=".8" stroke-linecap="square" stroke-miterlimit="10" stroke-linejoin="miter" fill="none" stroke="#000000" d="M0 0H408.265"/>
<path transform="matrix(1,0,0,-1,318.7949,53.690599)" d="M0 0H30V10.5H0Z" fill="#1f77b4" fill-opacity=".25"/>
<path transform="matrix(1,0,0,-1,318.7949,53.690599)" stroke-width="1" stroke-linecap="butt" stroke-miterlimit="10" stroke-linejoin="miter" fill="none" stroke="#1f77b4" d="M0 0H30V10.5H0Z"/>
<path transform="matrix(1,0,0,-1,318.7949,75.7063)" d="M0 0H30V10.5H0Z" fill="#ff7f0e" fill-opacity=".25"/>
<path transform="matrix(1,0,0,-1,318.7949,75.7063)" stroke-width="1" stroke-linecap="butt" stroke-miterlimit="10" stroke-linejoin="miter" fill="none" stroke="#ff7f0e" d="M0 0H30V10.5H0Z"/>
<path transform="matrix(1,0,0,-1,318.7949,97.72189)" d="M0 0H30V10.5H0Z" fill="#2ca02c" fill-opacity=".25"/>
<path transform="matrix(1,0,0,-1,318.7949,97.72189)" stroke-width="1" stroke-linecap="butt" stroke-miterlimit="10" stroke-linejoin="miter" fill="none" stroke="#2ca02c" d="M0 0H30V10.5H0Z"/>
<path transform="matrix(1,0,0,-1,318.7949,119.7375)" d="M0 0H30V10.5H0Z" fill="#d62728" fill-opacity=".25"/>
<path transform="matrix(1,0,0,-1,318.7949,119.7375)" stroke-width="1" stroke-linecap="butt" stroke-miterlimit="10" stroke-linejoin="miter" fill="none" stroke="#d62728" d="M0 0H30V10.5H0Z"/>
<path transform="matrix(1,0,0,-1,318.7949,141.7531)" d="M0 0H30V10.5H0Z" fill="#9467bd" fill-opacity=".25"/>
<path transform="matrix(1,0,0,-1,318.7949,141.7531)" stroke-width="1" stroke-linecap="butt" stroke-miterlimit="10" stroke-linejoin="miter" fill="none" stroke="#9467bd" d="M0 0H30V10.5H0Z"/>
<text xml:space="preserve" transform="matrix(1 0 -0 1 0 288)" font-size="15" font-family="MinionPro" font-weight="bold"><tspan y="-237.783" x="356.843 363.17298 371.498 377.24299 385.49299 398.13798 405.12797 413.61796 418.74797 426.24797 433.74797">cushman-001</tspan></text>
<text xml:space="preserve" transform="matrix(1 0 -0 1 0 288)" font-size="15" font-family="MinionPro" font-weight="bold"><tspan y="-215.834" x="356.843 365.04798 372.03797 379.01298 383.43797 391.92796 398.25794 402.68293 407.81294 415.31294 422.81294">davinci-001</tspan></text>
<text xml:space="preserve" transform="matrix(1 0 -0 1 0 288)" font-size="15" font-family="MinionPro" font-weight="bold"><tspan y="-193.552" x="356.51 364.715 371.705 378.68 383.10499 391.59498 397.92497 402.34996 407.47996 414.97996 422.47996">davinci-002</tspan></text>
<text xml:space="preserve" transform="matrix(1 0 -0 1 0 288)" font-size="15" font-family="MinionPro" font-weight="bold"><tspan y="-169.606" x="356.51">I</tspan></text>
<text xml:space="preserve" transform="matrix(1 0 -0 1 0 288)" font-size="12" font-family="MinionPro" font-weight="bold"><tspan y="-169.6064" x="362.1802">N</tspan></text>
<text xml:space="preserve" transform="matrix(1 0 -0 1 0 288)" font-size="15" font-family="MinionPro" font-weight="bold"><tspan y="-169.6064" x="371.0602">C</tspan></text>
<text xml:space="preserve" transform="matrix(1 0 -0 1 0 288)" font-size="12" font-family="MinionPro" font-weight="bold"><tspan y="-169.6064" x="381.2002 390.39219 399.52418 406.49617">ODER</tspan></text>
<text xml:space="preserve" transform="matrix(1 0 -0 1 0 288)" font-size="15" font-family="MinionPro" font-weight="bold"><tspan y="-147.805" x="355.845">C</tspan></text>
<text xml:space="preserve" transform="matrix(1 0 -0 1 0 288)" font-size="12" font-family="MinionPro" font-weight="bold"><tspan y="-147.8046" x="365.9853 375.17729 384.30928">ODE</tspan></text>
<text xml:space="preserve" transform="matrix(1 0 -0 1 0 288)" font-size="15" font-family="MinionPro" font-weight="bold"><tspan y="-147.8046" x="391.28126">G</tspan></text>
<text xml:space="preserve" transform="matrix(1 0 -0 1 0 288)" font-size="12" font-family="MinionPro" font-weight="bold"><tspan y="-147.8046" x="402.18626 409.15827">EN</tspan></text>
</svg>
