<svg xmlns="http://www.w3.org/2000/svg" xmlns:xlink="http://www.w3.org/1999/xlink" version="1.1" width="501.84pt" height="288pt" viewBox="0 0 501.84 288">
<defs>
<clipPath id="clip_0">
<path transform="matrix(1,0,0,-1,0,288)" d="M65.54 56H473.67V271.8H65.54Z"/>
</clipPath>
<clipPath id="clip_1">
<path transform="matrix(1,0,0,-1,0,288)" d="M65.54 56H473.67V271.8H65.54Z"/>
</clipPath>
<clipPath id="clip_2">
<path transform="matrix(1,0,0,-1,0,288)" d="M65.54 56H473.67V271.8H65.54Z"/>
</clipPath>
<clipPath id="clip_3">
<path transform="matrix(1,0,0,-1,0,288)" d="M65.54 56H473.67V271.8H65.54Z"/>
</clipPath>
<clipPath id="clip_4">
<path transform="matrix(1,0,0,-1,0,288)" d="M65.54 56H473.67V271.8H65.54Z"/>
</clipPath>
</defs>
<path transform="matrix(1,0,0,-1,0,288)" d="M0 0H501.84V288H0Z" fill="#ffffff"/>
<path transform="matrix(1,0,0,-1,65.54,232)" d="M0 0H408.13V215.8H0Z" fill="#ffffff"/>
<g clip-path="url(#clip_0)">
<path transform="matrix(1,0,0,-1,-21.6654,231.1851)" d="M0 0V-.815H2.472 4.943 7.415 9.886 12.358 14.83 17.301 19.773 22.244 24.716 27.187 29.659 32.131 34.602 37.074 39.545 42.017 44.489 46.96 49.432 51.903 54.375 56.846 59.318 61.79 64.261 66.733 69.204 71.676 74.148 76.619 79.091 81.562 84.034 86.505 88.977 91.449 93.92 96.392 98.863 101.335 103.807 106.278 108.75 111.221 113.693 116.164 118.636 121.108 123.579 126.051 128.522 130.994 133.466 135.937 138.409 140.88 143.352 145.823 148.295 150.767 153.238 155.71 158.181 160.653 163.125 165.596 168.068 170.539 173.011 175.482 177.954 180.426 182.897 185.369 187.84 190.312 192.784 195.255 197.727 200.198 202.67 205.142 207.613 210.085 212.556 215.028 217.499 219.971 222.443 224.914 227.386 229.857 232.329 234.801 237.272 239.744 242.215 244.687 247.158 249.63 252.102 254.573 257.045 259.516 261.988 264.46 266.931 269.403 271.874 274.346 276.817 279.289 281.761 284.232 286.704 289.175 291.647 294.119 296.59 299.062 301.533 304.005 306.476 308.948 311.42 313.891 316.363 318.834 321.306 323.778 326.249 328.721 331.192 333.664 336.135 338.607 341.079 343.55 346.022 348.493 350.965 353.437 355.908 358.38 360.851 363.323 365.794 368.266 370.738 373.209 375.681 378.152 380.624 383.096 385.567 388.039 390.51 392.982 395.454 397.925 400.397 402.868 405.34 407.811 410.283 412.755 415.226 417.698 420.169 422.641 425.113 427.584 430.056 432.527 434.999 437.47 439.942 442.414 444.885 447.357 449.828 452.3 454.772 457.243 459.715 462.186 464.658 467.129 469.601 472.073 474.544 477.016 479.487 481.959 484.431 486.902 489.374 491.845V-.763L489.374-.747 486.902-.727 484.431-.702 481.959-.671 479.487-.633 477.016-.586 474.544-.529 472.073-.46 469.601-.377 467.129-.279 464.658-.164 462.186-.028 459.715 .129 457.243 .31 454.772 .517 452.3 .751 449.828 1.015 447.357 1.309 444.885 1.636 442.414 1.994 439.942 2.385 437.47 2.807 434.999 3.26 432.527 3.742 430.056 4.251 427.584 4.785 425.113 5.34 422.641 5.912 420.169 6.497 417.698 7.093 415.226 7.694 412.755 8.296 410.283 8.895 407.811 9.488 405.34 10.071 402.868 10.643 400.397 11.2 397.925 11.74 395.454 12.264 392.982 12.77 390.51 13.259 388.039 13.73 385.567 14.186 383.096 14.626 380.624 15.053 378.152 15.468 375.681 15.871 373.209 16.265 370.738 16.651 368.266 17.03 365.794 17.403 363.323 17.771 360.851 18.136 358.38 18.5 355.908 18.866 353.437 19.235 350.965 19.613 348.493 20.003 346.022 20.412 343.55 20.846 341.079 21.314 338.607 21.825 336.135 22.389 333.664 23.018 331.192 23.724 328.721 24.519 326.249 25.416 323.778 26.428 321.306 27.567 318.834 28.846 316.363 30.275 313.891 31.862 311.42 33.616 308.948 35.542 306.476 37.642 304.005 39.916 301.533 42.363 299.062 44.976 296.59 47.747 294.119 50.665 291.647 53.714 289.175 56.878 286.704 60.135 284.232 63.464 281.761 66.838 279.289 70.231 276.817 73.614 274.346 76.957 271.874 80.23 269.403 83.403 266.931 86.446 264.46 89.329 261.988 92.026 259.516 94.512 257.045 96.764 254.573 98.765 252.102 100.499 249.63 101.956 247.158 103.131 244.687 104.022 242.215 104.634 239.744 104.975 237.272 105.061 234.801 104.909 232.329 104.542 229.857 103.988 227.386 103.276 224.914 102.437 222.443 101.506 219.971 100.516 217.499 99.502 215.028 98.497 212.556 97.532 210.085 96.636 207.613 95.835 205.142 95.151 202.67 94.601 200.198 94.199 197.727 93.956 195.255 93.875 192.784 93.958 190.312 94.202 187.84 94.601 185.369 95.146 182.897 95.826 180.426 96.628 177.954 97.537 175.482 98.54 173.011 99.622 170.539 100.769 168.068 101.968 165.596 103.208 163.125 104.477 160.653 105.768 158.181 107.072 155.71 108.384 153.238 109.699 150.767 111.013 148.295 112.323 145.823 113.625 143.352 114.918 140.88 116.195 138.409 117.453 135.937 118.685 133.466 119.881 130.994 121.031 128.522 122.12 126.051 123.13 123.579 124.043 121.108 124.834 118.636 125.478 116.164 125.947 113.693 126.209 111.221 126.235 108.75 125.992 106.278 125.449 103.807 124.579 101.335 123.355 98.863 121.756 96.392 119.765 93.92 117.373 91.449 114.576 88.977 111.38 86.505 107.797 84.034 103.848 81.562 99.561 79.091 94.972 76.619 90.123 74.148 85.062 71.676 79.839 69.204 74.51 66.733 69.13 64.261 63.754 61.79 58.436 59.318 53.226 56.846 48.17 54.375 43.31 51.903 38.681 49.432 34.311 46.96 30.223 44.489 26.431 42.017 22.946 39.545 19.769 37.074 16.897 34.602 14.324 32.131 12.038 29.659 10.022 27.187 8.26 24.716 6.733 22.244 5.419 19.773 4.299 17.301 3.351 14.83 2.555 12.358 1.892 9.886 1.344 7.415 .896 4.943 .53 2.472 .236 0 0Z" fill="#9467bd" fill-opacity=".25"/>
<path transform="matrix(1,0,0,-1,-21.6654,231.1851)" stroke-width="1" stroke-linecap="butt" stroke-linejoin="round" fill="none" stroke="#9467bd" d="M0 0V-.815H2.472 4.943 7.415 9.886 12.358 14.83 17.301 19.773 22.244 24.716 27.187 29.659 32.131 34.602 37.074 39.545 42.017 44.489 46.96 49.432 51.903 54.375 56.846 59.318 61.79 64.261 66.733 69.204 71.676 74.148 76.619 79.091 81.562 84.034 86.505 88.977 91.449 93.92 96.392 98.863 101.335 103.807 106.278 108.75 111.221 113.693 116.164 118.636 121.108 123.579 126.051 128.522 130.994 133.466 135.937 138.409 140.88 143.352 145.823 148.295 150.767 153.238 155.71 158.181 160.653 163.125 165.596 168.068 170.539 173.011 175.482 177.954 180.426 182.897 185.369 187.84 190.312 192.784 195.255 197.727 200.198 202.67 205.142 207.613 210.085 212.556 215.028 217.499 219.971 222.443 224.914 227.386 229.857 232.329 234.801 237.272 239.744 242.215 244.687 247.158 249.63 252.102 254.573 257.045 259.516 261.988 264.46 266.931 269.403 271.874 274.346 276.817 279.289 281.761 284.232 286.704 289.175 291.647 294.119 296.59 299.062 301.533 304.005 306.476 308.948 311.42 313.891 316.363 318.834 321.306 323.778 326.249 328.721 331.192 333.664 336.135 338.607 341.079 343.55 346.022 348.493 350.965 353.437 355.908 358.38 360.851 363.323 365.794 368.266 370.738 373.209 375.681 378.152 380.624 383.096 385.567 388.039 390.51 392.982 395.454 397.925 400.397 402.868 405.34 407.811 410.283 412.755 415.226 417.698 420.169 422.641 425.113 427.584 430.056 432.527 434.999 437.47 439.942 442.414 444.885 447.357 449.828 452.3 454.772 457.243 459.715 462.186 464.658 467.129 469.601 472.073 474.544 477.016 479.487 481.959 484.431 486.902 489.374 491.845V-.763L489.374-.747 486.902-.727 484.431-.702 481.959-.671 479.487-.633 477.016-.586 474.544-.529 472.073-.46 469.601-.377 467.129-.279 464.658-.164 462.186-.028 459.715 .129 457.243 .31 454.772 .517 452.3 .751 449.828 1.015 447.357 1.309 444.885 1.636 442.414 1.994 439.942 2.385 437.47 2.807 434.999 3.26 432.527 3.742 430.056 4.251 427.584 4.785 425.113 5.34 422.641 5.912 420.169 6.497 417.698 7.093 415.226 7.694 412.755 8.296 410.283 8.895 407.811 9.488 405.34 10.071 402.868 10.643 400.397 11.2 397.925 11.74 395.454 12.264 392.982 12.77 390.51 13.259 388.039 13.73 385.567 14.186 383.096 14.626 380.624 15.053 378.152 15.468 375.681 15.871 373.209 16.265 370.738 16.651 368.266 17.03 365.794 17.403 363.323 17.771 360.851 18.136 358.38 18.5 355.908 18.866 353.437 19.235 350.965 19.613 348.493 20.003 346.022 20.412 343.55 20.846 341.079 21.314 338.607 21.825 336.135 22.389 333.664 23.018 331.192 23.724 328.721 24.519 326.249 25.416 323.778 26.428 321.306 27.567 318.834 28.846 316.363 30.275 313.891 31.862 311.42 33.616 308.948 35.542 306.476 37.642 304.005 39.916 301.533 42.363 299.062 44.976 296.59 47.747 294.119 50.665 291.647 53.714 289.175 56.878 286.704 60.135 284.232 63.464 281.761 66.838 279.289 70.231 276.817 73.614 274.346 76.957 271.874 80.23 269.403 83.403 266.931 86.446 264.46 89.329 261.988 92.026 259.516 94.512 257.045 96.764 254.573 98.765 252.102 100.499 249.63 101.956 247.158 103.131 244.687 104.022 242.215 104.634 239.744 104.975 237.272 105.061 234.801 104.909 232.329 104.542 229.857 103.988 227.386 103.276 224.914 102.437 222.443 101.506 219.971 100.516 217.499 99.502 215.028 98.497 212.556 97.532 210.085 96.636 207.613 95.835 205.142 95.151 202.67 94.601 200.198 94.199 197.727 93.956 195.255 93.875 192.784 93.958 190.312 94.202 187.84 94.601 185.369 95.146 182.897 95.826 180.426 96.628 177.954 97.537 175.482 98.54 173.011 99.622 170.539 100.769 168.068 101.968 165.596 103.208 163.125 104.477 160.653 105.768 158.181 107.072 155.71 108.384 153.238 109.699 150.767 111.013 148.295 112.323 145.823 113.625 143.352 114.918 140.88 116.195 138.409 117.453 135.937 118.685 133.466 119.881 130.994 121.031 128.522 122.12 126.051 123.13 123.579 124.043 121.108 124.834 118.636 125.478 116.164 125.947 113.693 126.209 111.221 126.235 108.75 125.992 106.278 125.449 103.807 124.579 101.335 123.355 98.863 121.756 96.392 119.765 93.92 117.373 91.449 114.576 88.977 111.38 86.505 107.797 84.034 103.848 81.562 99.561 79.091 94.972 76.619 90.123 74.148 85.062 71.676 79.839 69.204 74.51 66.733 69.13 64.261 63.754 61.79 58.436 59.318 53.226 56.846 48.17 54.375 43.31 51.903 38.681 49.432 34.311 46.96 30.223 44.489 26.431 42.017 22.946 39.545 19.769 37.074 16.897 34.602 14.324 32.131 12.038 29.659 10.022 27.187 8.26 24.716 6.733 22.244 5.419 19.773 4.299 17.301 3.351 14.83 2.555 12.358 1.892 9.886 1.344 7.415 .896 4.943 .53 2.472 .236 0 0Z"/>
</g>
<g clip-path="url(#clip_1)">
<path transform="matrix(1,0,0,-1,-7.3643,231.9414)" d="M0 0V-.059H2.269 4.539 6.808 9.078 11.347 13.617 15.886 18.155 20.425 22.694 24.964 27.233 29.503 31.772 34.041 36.311 38.58 40.85 43.119 45.388 47.658 49.927 52.197 54.466 56.736 59.005 61.274 63.544 65.813 68.083 70.352 72.622 74.891 77.16 79.43 81.699 83.969 86.238 88.508 90.777 93.046 95.316 97.585 99.855 102.124 104.394 106.663 108.932 111.202 113.471 115.741 118.01 120.279 122.549 124.818 127.088 129.357 131.627 133.896 136.165 138.435 140.704 142.974 145.243 147.513 149.782 152.051 154.321 156.59 158.86 161.129 163.399 165.668 167.937 170.207 172.476 174.746 177.015 179.284 181.554 183.823 186.093 188.362 190.632 192.901 195.17 197.44 199.709 201.979 204.248 206.518 208.787 211.056 213.326 215.595 217.865 220.134 222.404 224.673 226.942 229.212 231.481 233.751 236.02 238.29 240.559 242.828 245.098 247.367 249.637 251.906 254.175 256.445 258.714 260.984 263.253 265.523 267.792 270.061 272.331 274.6 276.87 279.139 281.409 283.678 285.947 288.217 290.486 292.756 295.025 297.295 299.564 301.833 304.103 306.372 308.642 310.911 313.181 315.45 317.719 319.989 322.258 324.528 326.797 329.066 331.336 333.605 335.875 338.144 340.414 342.683 344.952 347.222 349.491 351.761 354.03 356.3 358.569 360.838 363.108 365.377 367.647 369.916 372.186 374.455 376.724 378.994 381.263 383.533 385.802 388.072 390.341 392.61 394.88 397.149 399.419 401.688 403.957 406.227 408.496 410.766 413.035 415.305 417.574 419.843 422.113 424.382 426.652 428.921 431.191 433.46 435.729 437.999 440.268 442.538 444.807 447.077 449.346 451.615V-.007L449.346 .01 447.077 .033 444.807 .061 442.538 .097 440.268 .142 437.999 .199 435.729 .269 433.46 .353 431.191 .456 428.921 .58 426.652 .726 424.382 .899 422.113 1.101 419.843 1.333 417.574 1.6 415.305 1.904 413.035 2.245 410.766 2.626 408.496 3.047 406.227 3.509 403.957 4.013 401.688 4.556 399.419 5.139 397.149 5.759 394.88 6.416 392.61 7.107 390.341 7.831 388.072 8.585 385.802 9.37 383.533 10.184 381.263 11.028 378.994 11.902 376.724 12.808 374.455 13.75 372.186 14.729 369.916 15.752 367.647 16.821 365.377 17.943 363.108 19.122 360.838 20.363 358.569 21.671 356.3 23.051 354.03 24.505 351.761 26.037 349.491 27.648 347.222 29.337 344.952 31.105 342.683 32.95 340.414 34.868 338.144 36.856 335.875 38.908 333.605 41.019 331.336 43.181 329.066 45.387 326.797 47.628 324.528 49.896 322.258 52.179 319.989 54.468 317.719 56.752 315.45 59.018 313.181 61.254 310.911 63.447 308.642 65.584 306.372 67.652 304.103 69.636 301.833 71.524 299.564 73.302 297.295 74.959 295.025 76.481 292.756 77.86 290.486 79.088 288.217 80.159 285.947 81.07 283.678 81.821 281.409 82.417 279.139 82.867 276.87 83.183 274.6 83.384 272.331 83.492 270.061 83.533 267.792 83.54 265.523 83.547 263.253 83.591 260.984 83.714 258.714 83.957 256.445 84.359 254.175 84.961 251.906 85.8 249.637 86.908 247.367 88.312 245.098 90.036 242.828 92.093 240.559 94.49 238.29 97.227 236.02 100.294 233.751 103.674 231.481 107.341 229.212 111.262 226.942 115.4 224.673 119.708 222.404 124.138 220.134 128.636 217.865 133.149 215.595 137.619 213.326 141.993 211.056 146.215 208.787 150.236 206.518 154.007 204.248 157.487 201.979 160.638 199.709 163.428 197.44 165.831 195.17 167.826 192.901 169.401 190.632 170.546 188.362 171.258 186.093 171.54 183.823 171.396 181.554 170.836 179.284 169.872 177.015 168.52 174.746 166.798 172.476 164.723 170.207 162.318 167.937 159.605 165.668 156.607 163.399 153.35 161.129 149.861 158.86 146.168 156.59 142.301 154.321 138.29 152.051 134.169 149.782 129.971 147.513 125.727 145.243 121.472 142.974 117.237 140.704 113.052 138.435 108.944 136.165 104.938 133.896 101.052 131.627 97.302 129.357 93.698 127.088 90.243 124.818 86.937 122.549 83.773 120.279 80.74 118.01 77.824 115.741 75.006 113.471 72.267 111.202 69.587 108.932 66.946 106.663 64.324 104.394 61.706 102.124 59.079 99.855 56.432 97.585 53.76 95.316 51.061 93.046 48.339 90.777 45.598 88.508 42.849 86.238 40.104 83.969 37.376 81.699 34.68 79.43 32.033 77.16 29.451 74.891 26.947 72.622 24.536 70.352 22.23 68.083 20.04 65.813 17.973 63.544 16.036 61.274 14.233 59.005 12.565 56.736 11.032 54.466 9.633 52.197 8.364 49.927 7.221 47.658 6.197 45.388 5.287 43.119 4.483 40.85 3.776 38.58 3.16 36.311 2.627 34.041 2.167 31.772 1.775 29.503 1.442 27.233 1.162 24.964 .927 22.694 .732 20.425 .571 18.155 .439 15.886 .333 13.617 .246 11.347 .177 9.078 .123 6.808 .08 4.539 .046 2.269 .02 0 0Z" fill="#d62728" fill-opacity=".25"/>
<path transform="matrix(1,0,0,-1,-7.3643,231.9414)" stroke-width="1" stroke-linecap="butt" stroke-linejoin="round" fill="none" stroke="#d62728" d="M0 0V-.059H2.269 4.539 6.808 9.078 11.347 13.617 15.886 18.155 20.425 22.694 24.964 27.233 29.503 31.772 34.041 36.311 38.58 40.85 43.119 45.388 47.658 49.927 52.197 54.466 56.736 59.005 61.274 63.544 65.813 68.083 70.352 72.622 74.891 77.16 79.43 81.699 83.969 86.238 88.508 90.777 93.046 95.316 97.585 99.855 102.124 104.394 106.663 108.932 111.202 113.471 115.741 118.01 120.279 122.549 124.818 127.088 129.357 131.627 133.896 136.165 138.435 140.704 142.974 145.243 147.513 149.782 152.051 154.321 156.59 158.86 161.129 163.399 165.668 167.937 170.207 172.476 174.746 177.015 179.284 181.554 183.823 186.093 188.362 190.632 192.901 195.17 197.44 199.709 201.979 204.248 206.518 208.787 211.056 213.326 215.595 217.865 220.134 222.404 224.673 226.942 229.212 231.481 233.751 236.02 238.29 240.559 242.828 245.098 247.367 249.637 251.906 254.175 256.445 258.714 260.984 263.253 265.523 267.792 270.061 272.331 274.6 276.87 279.139 281.409 283.678 285.947 288.217 290.486 292.756 295.025 297.295 299.564 301.833 304.103 306.372 308.642 310.911 313.181 315.45 317.719 319.989 322.258 324.528 326.797 329.066 331.336 333.605 335.875 338.144 340.414 342.683 344.952 347.222 349.491 351.761 354.03 356.3 358.569 360.838 363.108 365.377 367.647 369.916 372.186 374.455 376.724 378.994 381.263 383.533 385.802 388.072 390.341 392.61 394.88 397.149 399.419 401.688 403.957 406.227 408.496 410.766 413.035 415.305 417.574 419.843 422.113 424.382 426.652 428.921 431.191 433.46 435.729 437.999 440.268 442.538 444.807 447.077 449.346 451.615V-.007L449.346 .01 447.077 .033 444.807 .061 442.538 .097 440.268 .142 437.999 .199 435.729 .269 433.46 .353 431.191 .456 428.921 .58 426.652 .726 424.382 .899 422.113 1.101 419.843 1.333 417.574 1.6 415.305 1.904 413.035 2.245 410.766 2.626 408.496 3.047 406.227 3.509 403.957 4.013 401.688 4.556 399.419 5.139 397.149 5.759 394.88 6.416 392.61 7.107 390.341 7.831 388.072 8.585 385.802 9.37 383.533 10.184 381.263 11.028 378.994 11.902 376.724 12.808 374.455 13.75 372.186 14.729 369.916 15.752 367.647 16.821 365.377 17.943 363.108 19.122 360.838 20.363 358.569 21.671 356.3 23.051 354.03 24.505 351.761 26.037 349.491 27.648 347.222 29.337 344.952 31.105 342.683 32.95 340.414 34.868 338.144 36.856 335.875 38.908 333.605 41.019 331.336 43.181 329.066 45.387 326.797 47.628 324.528 49.896 322.258 52.179 319.989 54.468 317.719 56.752 315.45 59.018 313.181 61.254 310.911 63.447 308.642 65.584 306.372 67.652 304.103 69.636 301.833 71.524 299.564 73.302 297.295 74.959 295.025 76.481 292.756 77.86 290.486 79.088 288.217 80.159 285.947 81.07 283.678 81.821 281.409 82.417 279.139 82.867 276.87 83.183 274.6 83.384 272.331 83.492 270.061 83.533 267.792 83.54 265.523 83.547 263.253 83.591 260.984 83.714 258.714 83.957 256.445 84.359 254.175 84.961 251.906 85.8 249.637 86.908 247.367 88.312 245.098 90.036 242.828 92.093 240.559 94.49 238.29 97.227 236.02 100.294 233.751 103.674 231.481 107.341 229.212 111.262 226.942 115.4 224.673 119.708 222.404 124.138 220.134 128.636 217.865 133.149 215.595 137.619 213.326 141.993 211.056 146.215 208.787 150.236 206.518 154.007 204.248 157.487 201.979 160.638 199.709 163.428 197.44 165.831 195.17 167.826 192.901 169.401 190.632 170.546 188.362 171.258 186.093 171.54 183.823 171.396 181.554 170.836 179.284 169.872 177.015 168.52 174.746 166.798 172.476 164.723 170.207 162.318 167.937 159.605 165.668 156.607 163.399 153.35 161.129 149.861 158.86 146.168 156.59 142.301 154.321 138.29 152.051 134.169 149.782 129.971 147.513 125.727 145.243 121.472 142.974 117.237 140.704 113.052 138.435 108.944 136.165 104.938 133.896 101.052 131.627 97.302 129.357 93.698 127.088 90.243 124.818 86.937 122.549 83.773 120.279 80.74 118.01 77.824 115.741 75.006 113.471 72.267 111.202 69.587 108.932 66.946 106.663 64.324 104.394 61.706 102.124 59.079 99.855 56.432 97.585 53.76 95.316 51.061 93.046 48.339 90.777 45.598 88.508 42.849 86.238 40.104 83.969 37.376 81.699 34.68 79.43 32.033 77.16 29.451 74.891 26.947 72.622 24.536 70.352 22.23 68.083 20.04 65.813 17.973 63.544 16.036 61.274 14.233 59.005 12.565 56.736 11.032 54.466 9.633 52.197 8.364 49.927 7.221 47.658 6.197 45.388 5.287 43.119 4.483 40.85 3.776 38.58 3.16 36.311 2.627 34.041 2.167 31.772 1.775 29.503 1.442 27.233 1.162 24.964 .927 22.694 .732 20.425 .571 18.155 .439 15.886 .333 13.617 .246 11.347 .177 9.078 .123 6.808 .08 4.539 .046 2.269 .02 0 0Z"/>
</g>
<g clip-path="url(#clip_2)">
<path transform="matrix(1,0,0,-1,.4344,231.09439)" d="M0 0V-.906H2.269 4.537 6.806 9.075 11.344 13.612 15.881 18.15 20.418 22.687 24.956 27.224 29.493 31.762 34.031 36.299 38.568 40.837 43.105 45.374 47.643 49.912 52.18 54.449 56.718 58.986 61.255 63.524 65.793 68.061 70.33 72.599 74.867 77.136 79.405 81.673 83.942 86.211 88.48 90.748 93.017 95.286 97.554 99.823 102.092 104.361 106.629 108.898 111.167 113.435 115.704 117.973 120.242 122.51 124.779 127.048 129.316 131.585 133.854 136.122 138.391 140.66 142.929 145.197 147.466 149.735 152.003 154.272 156.541 158.81 161.078 163.347 165.616 167.884 170.153 172.422 174.691 176.959 179.228 181.497 183.765 186.034 188.303 190.571 192.84 195.109 197.378 199.646 201.915 204.184 206.452 208.721 210.99 213.259 215.527 217.796 220.065 222.333 224.602 226.871 229.14 231.408 233.677 235.946 238.214 240.483 242.752 245.02 247.289 249.558 251.827 254.095 256.364 258.633 260.901 263.17 265.439 267.708 269.976 272.245 274.514 276.782 279.051 281.32 283.589 285.857 288.126 290.395 292.663 294.932 297.201 299.469 301.738 304.007 306.276 308.544 310.813 313.082 315.35 317.619 319.888 322.157 324.425 326.694 328.963 331.231 333.5 335.769 338.038 340.306 342.575 344.844 347.112 349.381 351.65 353.918 356.187 358.456 360.725 362.993 365.262 367.531 369.799 372.068 374.337 376.606 378.874 381.143 383.412 385.68 387.949 390.218 392.487 394.755 397.024 399.293 401.561 403.83 406.099 408.367 410.636 412.905 415.174 417.442 419.711 421.98 424.248 426.517 428.786 431.055 433.323 435.592 437.861 440.129 442.398 444.667 446.936 449.204 451.473V-.871L449.204-.859 446.936-.843 444.667-.822 442.398-.796 440.129-.762 437.861-.721 435.592-.671 433.323-.609 431.055-.536 428.786-.45 426.517-.349 424.248-.234 421.98-.104 419.711 .041 417.442 .2 415.174 .372 412.905 .555 410.636 .746 408.367 .942 406.099 1.14 403.83 1.335 401.561 1.522 399.293 1.698 397.024 1.859 394.755 2 392.487 2.12 390.218 2.215 387.949 2.284 385.68 2.329 383.412 2.351 381.143 2.352 378.874 2.337 376.606 2.311 374.337 2.279 372.068 2.248 369.799 2.226 367.531 2.218 365.262 2.231 362.993 2.27 360.725 2.34 358.456 2.444 356.187 2.582 353.918 2.755 351.65 2.96 349.381 3.194 347.112 3.453 344.844 3.73 342.575 4.017 340.306 4.308 338.038 4.596 335.769 4.872 333.5 5.131 331.231 5.368 328.963 5.58 326.694 5.764 324.425 5.921 322.157 6.054 319.888 6.164 317.619 6.259 315.35 6.345 313.082 6.429 310.813 6.52 308.544 6.624 306.276 6.751 304.007 6.906 301.738 7.096 299.469 7.325 297.201 7.598 294.932 7.917 292.663 8.284 290.395 8.701 288.126 9.169 285.857 9.69 283.589 10.266 281.32 10.9 279.051 11.597 276.782 12.36 274.514 13.196 272.245 14.111 269.976 15.113 267.708 16.208 265.439 17.401 263.17 18.698 260.901 20.1 258.633 21.608 256.364 23.219 254.095 24.926 251.827 26.721 249.558 28.589 247.289 30.517 245.02 32.485 242.752 34.476 240.483 36.469 238.214 38.445 235.946 40.386 233.677 42.278 231.408 44.108 229.14 45.87 226.871 47.563 224.602 49.19 222.333 50.761 220.065 52.291 217.796 53.801 215.527 55.314 213.259 56.857 210.99 58.458 208.721 60.146 206.452 61.947 204.184 63.885 201.915 65.979 199.646 68.242 197.378 70.681 195.109 73.298 192.84 76.085 190.571 79.03 188.303 82.115 186.034 85.317 183.765 88.609 181.497 91.964 179.228 95.354 176.959 98.752 174.691 102.133 172.422 105.478 170.153 108.77 167.884 111.998 165.616 115.156 163.347 118.242 161.078 121.261 158.81 124.218 156.541 127.122 154.272 129.985 152.003 132.817 149.735 135.631 147.466 138.436 145.197 141.24 142.929 144.051 140.66 146.872 138.391 149.707 136.122 152.557 133.854 155.423 131.585 158.304 129.316 161.2 127.048 164.109 124.779 167.031 122.51 169.966 120.242 172.912 117.973 175.865 115.704 178.82 113.435 181.768 111.167 184.695 108.898 187.581 106.629 190.4 104.361 193.117 102.092 195.689 99.823 198.064 97.554 200.181 95.286 201.971 93.017 203.361 90.748 204.271 88.48 204.618 86.211 204.322 83.942 203.305 81.673 201.498 79.405 198.84 77.136 195.288 74.867 190.816 72.599 185.418 70.33 179.111 68.061 171.937 65.793 163.96 63.524 155.268 61.255 145.971 58.986 136.193 56.718 126.074 54.449 115.759 52.18 105.398 49.912 95.137 47.643 85.115 45.374 75.455 43.105 66.269 40.837 57.645 38.568 49.651 36.299 42.336 34.031 35.725 31.762 29.824 29.493 24.621 27.224 20.09 24.956 16.191 22.687 12.876 20.418 10.092 18.15 7.781 15.881 5.885 13.612 4.349 11.344 3.118 9.075 2.144 6.806 1.381 4.537 .791 2.269 .341 0 0Z" fill="#2ca02c" fill-opacity=".25"/>
<path transform="matrix(1,0,0,-1,.4344,231.09439)" stroke-width="1" stroke-linecap="butt" stroke-linejoin="round" fill="none" stroke="#2ca02c" d="M0 0V-.906H2.269 4.537 6.806 9.075 11.344 13.612 15.881 18.15 20.418 22.687 24.956 27.224 29.493 31.762 34.031 36.299 38.568 40.837 43.105 45.374 47.643 49.912 52.18 54.449 56.718 58.986 61.255 63.524 65.793 68.061 70.33 72.599 74.867 77.136 79.405 81.673 83.942 86.211 88.48 90.748 93.017 95.286 97.554 99.823 102.092 104.361 106.629 108.898 111.167 113.435 115.704 117.973 120.242 122.51 124.779 127.048 129.316 131.585 133.854 136.122 138.391 140.66 142.929 145.197 147.466 149.735 152.003 154.272 156.541 158.81 161.078 163.347 165.616 167.884 170.153 172.422 174.691 176.959 179.228 181.497 183.765 186.034 188.303 190.571 192.84 195.109 197.378 199.646 201.915 204.184 206.452 208.721 210.99 213.259 215.527 217.796 220.065 222.333 224.602 226.871 229.14 231.408 233.677 235.946 238.214 240.483 242.752 245.02 247.289 249.558 251.827 254.095 256.364 258.633 260.901 263.17 265.439 267.708 269.976 272.245 274.514 276.782 279.051 281.32 283.589 285.857 288.126 290.395 292.663 294.932 297.201 299.469 301.738 304.007 306.276 308.544 310.813 313.082 315.35 317.619 319.888 322.157 324.425 326.694 328.963 331.231 333.5 335.769 338.038 340.306 342.575 344.844 347.112 349.381 351.65 353.918 356.187 358.456 360.725 362.993 365.262 367.531 369.799 372.068 374.337 376.606 378.874 381.143 383.412 385.68 387.949 390.218 392.487 394.755 397.024 399.293 401.561 403.83 406.099 408.367 410.636 412.905 415.174 417.442 419.711 421.98 424.248 426.517 428.786 431.055 433.323 435.592 437.861 440.129 442.398 444.667 446.936 449.204 451.473V-.871L449.204-.859 446.936-.843 444.667-.822 442.398-.796 440.129-.762 437.861-.721 435.592-.671 433.323-.609 431.055-.536 428.786-.45 426.517-.349 424.248-.234 421.98-.104 419.711 .041 417.442 .2 415.174 .372 412.905 .555 410.636 .746 408.367 .942 406.099 1.14 403.83 1.335 401.561 1.522 399.293 1.698 397.024 1.859 394.755 2 392.487 2.12 390.218 2.215 387.949 2.284 385.68 2.329 383.412 2.351 381.143 2.352 378.874 2.337 376.606 2.311 374.337 2.279 372.068 2.248 369.799 2.226 367.531 2.218 365.262 2.231 362.993 2.27 360.725 2.34 358.456 2.444 356.187 2.582 353.918 2.755 351.65 2.96 349.381 3.194 347.112 3.453 344.844 3.73 342.575 4.017 340.306 4.308 338.038 4.596 335.769 4.872 333.5 5.131 331.231 5.368 328.963 5.58 326.694 5.764 324.425 5.921 322.157 6.054 319.888 6.164 317.619 6.259 315.35 6.345 313.082 6.429 310.813 6.52 308.544 6.624 306.276 6.751 304.007 6.906 301.738 7.096 299.469 7.325 297.201 7.598 294.932 7.917 292.663 8.284 290.395 8.701 288.126 9.169 285.857 9.69 283.589 10.266 281.32 10.9 279.051 11.597 276.782 12.36 274.514 13.196 272.245 14.111 269.976 15.113 267.708 16.208 265.439 17.401 263.17 18.698 260.901 20.1 258.633 21.608 256.364 23.219 254.095 24.926 251.827 26.721 249.558 28.589 247.289 30.517 245.02 32.485 242.752 34.476 240.483 36.469 238.214 38.445 235.946 40.386 233.677 42.278 231.408 44.108 229.14 45.87 226.871 47.563 224.602 49.19 222.333 50.761 220.065 52.291 217.796 53.801 215.527 55.314 213.259 56.857 210.99 58.458 208.721 60.146 206.452 61.947 204.184 63.885 201.915 65.979 199.646 68.242 197.378 70.681 195.109 73.298 192.84 76.085 190.571 79.03 188.303 82.115 186.034 85.317 183.765 88.609 181.497 91.964 179.228 95.354 176.959 98.752 174.691 102.133 172.422 105.478 170.153 108.77 167.884 111.998 165.616 115.156 163.347 118.242 161.078 121.261 158.81 124.218 156.541 127.122 154.272 129.985 152.003 132.817 149.735 135.631 147.466 138.436 145.197 141.24 142.929 144.051 140.66 146.872 138.391 149.707 136.122 152.557 133.854 155.423 131.585 158.304 129.316 161.2 127.048 164.109 124.779 167.031 122.51 169.966 120.242 172.912 117.973 175.865 115.704 178.82 113.435 181.768 111.167 184.695 108.898 187.581 106.629 190.4 104.361 193.117 102.092 195.689 99.823 198.064 97.554 200.181 95.286 201.971 93.017 203.361 90.748 204.271 88.48 204.618 86.211 204.322 83.942 203.305 81.673 201.498 79.405 198.84 77.136 195.288 74.867 190.816 72.599 185.418 70.33 179.111 68.061 171.937 65.793 163.96 63.524 155.268 61.255 145.971 58.986 136.193 56.718 126.074 54.449 115.759 52.18 105.398 49.912 95.137 47.643 85.115 45.374 75.455 43.105 66.269 40.837 57.645 38.568 49.651 36.299 42.336 34.031 35.725 31.762 29.824 29.493 24.621 27.224 20.09 24.956 16.191 22.687 12.876 20.418 10.092 18.15 7.781 15.881 5.885 13.612 4.349 11.344 3.118 9.075 2.144 6.806 1.381 4.537 .791 2.269 .341 0 0Z"/>
</g>
<g clip-path="url(#clip_3)">
<path transform="matrix(1,0,0,-1,-3.0661,231.5427)" d="M0 0V-.457H2.171 4.343 6.514 8.686 10.857 13.028 15.2 17.371 19.542 21.714 23.885 26.057 28.228 30.399 32.571 34.742 36.913 39.085 41.256 43.428 45.599 47.77 49.942 52.113 54.284 56.456 58.627 60.799 62.97 65.141 67.313 69.484 71.655 73.827 75.998 78.17 80.341 82.512 84.684 86.855 89.026 91.198 93.369 95.541 97.712 99.883 102.055 104.226 106.397 108.569 110.74 112.912 115.083 117.254 119.426 121.597 123.768 125.94 128.111 130.283 132.454 134.625 136.797 138.968 141.139 143.311 145.482 147.654 149.825 151.996 154.168 156.339 158.51 160.682 162.853 165.025 167.196 169.367 171.539 173.71 175.881 178.053 180.224 182.396 184.567 186.738 188.91 191.081 193.252 195.424 197.595 199.767 201.938 204.109 206.281 208.452 210.623 212.795 214.966 217.138 219.309 221.48 223.652 225.823 227.994 230.166 232.337 234.509 236.68 238.851 241.023 243.194 245.366 247.537 249.708 251.88 254.051 256.222 258.394 260.565 262.737 264.908 267.079 269.251 271.422 273.593 275.765 277.936 280.108 282.279 284.45 286.622 288.793 290.964 293.136 295.307 297.479 299.65 301.821 303.993 306.164 308.335 310.507 312.678 314.85 317.021 319.192 321.364 323.535 325.706 327.878 330.049 332.221 334.392 336.563 338.735 340.906 343.077 345.249 347.42 349.592 351.763 353.934 356.106 358.277 360.448 362.62 364.791 366.963 369.134 371.305 373.477 375.648 377.819 379.991 382.162 384.334 386.505 388.676 390.848 393.019 395.19 397.362 399.533 401.705 403.876 406.047 408.219 410.39 412.561 414.733 416.904 419.076 421.247 423.418 425.59 427.761 429.932 432.104V-.423L429.932-.411 427.761-.397 425.59-.378 423.418-.355 421.247-.325 419.076-.289 416.904-.244 414.733-.19 412.561-.124 410.39-.046 408.219 .047 406.047 .155 403.876 .282 401.705 .427 399.533 .592 397.362 .78 395.19 .99 393.019 1.223 390.848 1.48 388.676 1.76 386.505 2.064 384.334 2.389 382.162 2.734 379.991 3.098 377.819 3.478 375.648 3.871 373.477 4.274 371.305 4.683 369.134 5.094 366.963 5.503 364.791 5.907 362.62 6.3 360.448 6.678 358.277 7.038 356.106 7.377 353.934 7.69 351.763 7.975 349.592 8.231 347.42 8.455 345.249 8.648 343.077 8.81 340.906 8.942 338.735 9.047 336.563 9.127 334.392 9.189 332.221 9.236 330.049 9.275 327.878 9.314 325.706 9.36 323.535 9.422 321.364 9.509 319.192 9.63 317.021 9.794 314.85 10.011 312.678 10.29 310.507 10.638 308.335 11.063 306.164 11.571 303.993 12.168 301.821 12.857 299.65 13.642 297.479 14.524 295.307 15.502 293.136 16.575 290.964 17.74 288.793 18.994 286.622 20.333 284.45 21.752 282.279 23.246 280.108 24.81 277.936 26.441 275.765 28.134 273.593 29.888 271.422 31.701 269.251 33.572 267.079 35.504 264.908 37.498 262.737 39.557 260.565 41.685 258.394 43.883 256.222 46.156 254.051 48.503 251.88 50.925 249.708 53.417 247.537 55.975 245.366 58.589 243.194 61.246 241.023 63.931 238.851 66.625 236.68 69.304 234.509 71.946 232.337 74.525 230.166 77.015 227.994 79.393 225.823 81.634 223.652 83.719 221.48 85.634 219.309 87.369 217.138 88.918 214.966 90.285 212.795 91.48 210.623 92.518 208.452 93.421 206.281 94.217 204.109 94.94 201.938 95.626 199.767 96.313 197.595 97.042 195.424 97.851 193.252 98.779 191.081 99.858 188.91 101.119 186.738 102.586 184.567 104.276 182.396 106.2 180.224 108.362 178.053 110.757 175.881 113.375 173.71 116.198 171.539 119.203 169.367 122.362 167.196 125.643 165.025 129.009 162.853 132.423 160.682 135.848 158.51 139.244 156.339 142.576 154.168 145.807 151.996 148.907 149.825 151.846 147.654 154.602 145.482 157.154 143.311 159.487 141.139 161.592 138.968 163.463 136.797 165.1 134.625 166.508 132.454 167.694 130.283 168.671 128.111 169.45 125.94 170.05 123.768 170.485 121.597 170.773 119.426 170.928 117.254 170.964 115.083 170.888 112.912 170.707 110.74 170.42 108.569 170.02 106.397 169.495 104.226 168.827 102.055 167.992 99.883 166.958 97.712 165.694 95.541 164.16 93.369 162.319 91.198 160.131 89.026 157.561 86.855 154.577 84.684 151.153 82.512 147.271 80.341 142.922 78.17 138.111 75.998 132.849 73.827 127.165 71.655 121.094 69.484 114.686 67.313 107.998 65.141 101.096 62.97 94.051 60.799 86.939 58.627 79.836 56.456 72.817 54.284 65.954 52.113 59.313 49.942 52.952 47.77 46.921 45.599 41.262 43.428 36.004 41.256 31.167 39.085 26.762 36.913 22.788 34.742 19.24 32.571 16.101 30.399 13.352 28.228 10.966 26.057 8.917 23.885 7.173 21.714 5.702 19.542 4.474 17.371 3.459 15.2 2.626 13.028 1.951 10.857 1.407 8.686 .974 6.514 .633 4.343 .366 2.171 .159 0 0Z" fill="#ff7f0e" fill-opacity=".25"/>
<path transform="matrix(1,0,0,-1,-3.0661,231.5427)" stroke-width="1" stroke-linecap="butt" stroke-linejoin="round" fill="none" stroke="#ff7f0e" d="M0 0V-.457H2.171 4.343 6.514 8.686 10.857 13.028 15.2 17.371 19.542 21.714 23.885 26.057 28.228 30.399 32.571 34.742 36.913 39.085 41.256 43.428 45.599 47.77 49.942 52.113 54.284 56.456 58.627 60.799 62.97 65.141 67.313 69.484 71.655 73.827 75.998 78.17 80.341 82.512 84.684 86.855 89.026 91.198 93.369 95.541 97.712 99.883 102.055 104.226 106.397 108.569 110.74 112.912 115.083 117.254 119.426 121.597 123.768 125.94 128.111 130.283 132.454 134.625 136.797 138.968 141.139 143.311 145.482 147.654 149.825 151.996 154.168 156.339 158.51 160.682 162.853 165.025 167.196 169.367 171.539 173.71 175.881 178.053 180.224 182.396 184.567 186.738 188.91 191.081 193.252 195.424 197.595 199.767 201.938 204.109 206.281 208.452 210.623 212.795 214.966 217.138 219.309 221.48 223.652 225.823 227.994 230.166 232.337 234.509 236.68 238.851 241.023 243.194 245.366 247.537 249.708 251.88 254.051 256.222 258.394 260.565 262.737 264.908 267.079 269.251 271.422 273.593 275.765 277.936 280.108 282.279 284.45 286.622 288.793 290.964 293.136 295.307 297.479 299.65 301.821 303.993 306.164 308.335 310.507 312.678 314.85 317.021 319.192 321.364 323.535 325.706 327.878 330.049 332.221 334.392 336.563 338.735 340.906 343.077 345.249 347.42 349.592 351.763 353.934 356.106 358.277 360.448 362.62 364.791 366.963 369.134 371.305 373.477 375.648 377.819 379.991 382.162 384.334 386.505 388.676 390.848 393.019 395.19 397.362 399.533 401.705 403.876 406.047 408.219 410.39 412.561 414.733 416.904 419.076 421.247 423.418 425.59 427.761 429.932 432.104V-.423L429.932-.411 427.761-.397 425.59-.378 423.418-.355 421.247-.325 419.076-.289 416.904-.244 414.733-.19 412.561-.124 410.39-.046 408.219 .047 406.047 .155 403.876 .282 401.705 .427 399.533 .592 397.362 .78 395.19 .99 393.019 1.223 390.848 1.48 388.676 1.76 386.505 2.064 384.334 2.389 382.162 2.734 379.991 3.098 377.819 3.478 375.648 3.871 373.477 4.274 371.305 4.683 369.134 5.094 366.963 5.503 364.791 5.907 362.62 6.3 360.448 6.678 358.277 7.038 356.106 7.377 353.934 7.69 351.763 7.975 349.592 8.231 347.42 8.455 345.249 8.648 343.077 8.81 340.906 8.942 338.735 9.047 336.563 9.127 334.392 9.189 332.221 9.236 330.049 9.275 327.878 9.314 325.706 9.36 323.535 9.422 321.364 9.509 319.192 9.63 317.021 9.794 314.85 10.011 312.678 10.29 310.507 10.638 308.335 11.063 306.164 11.571 303.993 12.168 301.821 12.857 299.65 13.642 297.479 14.524 295.307 15.502 293.136 16.575 290.964 17.74 288.793 18.994 286.622 20.333 284.45 21.752 282.279 23.246 280.108 24.81 277.936 26.441 275.765 28.134 273.593 29.888 271.422 31.701 269.251 33.572 267.079 35.504 264.908 37.498 262.737 39.557 260.565 41.685 258.394 43.883 256.222 46.156 254.051 48.503 251.88 50.925 249.708 53.417 247.537 55.975 245.366 58.589 243.194 61.246 241.023 63.931 238.851 66.625 236.68 69.304 234.509 71.946 232.337 74.525 230.166 77.015 227.994 79.393 225.823 81.634 223.652 83.719 221.48 85.634 219.309 87.369 217.138 88.918 214.966 90.285 212.795 91.48 210.623 92.518 208.452 93.421 206.281 94.217 204.109 94.94 201.938 95.626 199.767 96.313 197.595 97.042 195.424 97.851 193.252 98.779 191.081 99.858 188.91 101.119 186.738 102.586 184.567 104.276 182.396 106.2 180.224 108.362 178.053 110.757 175.881 113.375 173.71 116.198 171.539 119.203 169.367 122.362 167.196 125.643 165.025 129.009 162.853 132.423 160.682 135.848 158.51 139.244 156.339 142.576 154.168 145.807 151.996 148.907 149.825 151.846 147.654 154.602 145.482 157.154 143.311 159.487 141.139 161.592 138.968 163.463 136.797 165.1 134.625 166.508 132.454 167.694 130.283 168.671 128.111 169.45 125.94 170.05 123.768 170.485 121.597 170.773 119.426 170.928 117.254 170.964 115.083 170.888 112.912 170.707 110.74 170.42 108.569 170.02 106.397 169.495 104.226 168.827 102.055 167.992 99.883 166.958 97.712 165.694 95.541 164.16 93.369 162.319 91.198 160.131 89.026 157.561 86.855 154.577 84.684 151.153 82.512 147.271 80.341 142.922 78.17 138.111 75.998 132.849 73.827 127.165 71.655 121.094 69.484 114.686 67.313 107.998 65.141 101.096 62.97 94.051 60.799 86.939 58.627 79.836 56.456 72.817 54.284 65.954 52.113 59.313 49.942 52.952 47.77 46.921 45.599 41.262 43.428 36.004 41.256 31.167 39.085 26.762 36.913 22.788 34.742 19.24 32.571 16.101 30.399 13.352 28.228 10.966 26.057 8.917 23.885 7.173 21.714 5.702 19.542 4.474 17.371 3.459 15.2 2.626 13.028 1.951 10.857 1.407 8.686 .974 6.514 .633 4.343 .366 2.171 .159 0 0Z"/>
</g>
<g clip-path="url(#clip_4)">
<path transform="matrix(1,0,0,-1,-6.7195,231.6274)" d="M0 0V-.373H2.421 4.843 7.264 9.685 12.106 14.528 16.949 19.37 21.792 24.213 26.634 29.055 31.477 33.898 36.319 38.74 41.162 43.583 46.004 48.426 50.847 53.268 55.689 58.111 60.532 62.953 65.375 67.796 70.217 72.638 75.06 77.481 79.902 82.324 84.745 87.166 89.587 92.009 94.43 96.851 99.273 101.694 104.115 106.536 108.958 111.379 113.8 116.221 118.643 121.064 123.485 125.907 128.328 130.749 133.17 135.592 138.013 140.434 142.856 145.277 147.698 150.119 152.541 154.962 157.383 159.805 162.226 164.647 167.068 169.49 171.911 174.332 176.753 179.175 181.596 184.017 186.439 188.86 191.281 193.702 196.124 198.545 200.966 203.388 205.809 208.23 210.651 213.073 215.494 217.915 220.337 222.758 225.179 227.6 230.022 232.443 234.864 237.286 239.707 242.128 244.549 246.971 249.392 251.813 254.234 256.656 259.077 261.498 263.92 266.341 268.762 271.183 273.605 276.026 278.447 280.869 283.29 285.711 288.132 290.554 292.975 295.396 297.818 300.239 302.66 305.081 307.503 309.924 312.345 314.767 317.188 319.609 322.03 324.452 326.873 329.294 331.715 334.137 336.558 338.979 341.401 343.822 346.243 348.664 351.086 353.507 355.928 358.35 360.771 363.192 365.613 368.035 370.456 372.877 375.299 377.72 380.141 382.562 384.984 387.405 389.826 392.247 394.669 397.09 399.511 401.933 404.354 406.775 409.196 411.618 414.039 416.46 418.882 421.303 423.724 426.145 428.567 430.988 433.409 435.831 438.252 440.673 443.094 445.516 447.937 450.358 452.78 455.201 457.622 460.043 462.465 464.886 467.307 469.728 472.15 474.571 476.992 479.414 481.835V-.342L479.414-.331 476.992-.317 474.571-.3 472.15-.278 469.728-.25 467.307-.216 464.886-.174 462.465-.123 460.043-.063 457.622 .008 455.201 .09 452.78 .185 450.358 .292 447.937 .412 445.516 .545 443.094 .69 440.673 .846 438.252 1.012 435.831 1.186 433.409 1.365 430.988 1.548 428.567 1.731 426.145 1.912 423.724 2.089 421.303 2.26 418.882 2.424 416.46 2.578 414.039 2.725 411.618 2.863 409.196 2.997 406.775 3.127 404.354 3.258 401.933 3.395 399.511 3.541 397.09 3.702 394.669 3.883 392.247 4.088 389.826 4.321 387.405 4.584 384.984 4.879 382.562 5.206 380.141 5.562 377.72 5.945 375.299 6.35 372.877 6.77 370.456 7.198 368.035 7.627 365.613 8.048 363.192 8.454 360.771 8.837 358.35 9.191 355.928 9.51 353.507 9.792 351.086 10.034 348.664 10.237 346.243 10.403 343.822 10.535 341.401 10.639 338.979 10.722 336.558 10.791 334.137 10.857 331.715 10.93 329.294 11.019 326.873 11.135 324.452 11.291 322.03 11.498 319.609 11.768 317.188 12.111 314.767 12.541 312.345 13.068 309.924 13.704 307.503 14.459 305.081 15.344 302.66 16.367 300.239 17.536 297.818 18.858 295.396 20.336 292.975 21.973 290.554 23.77 288.132 25.724 285.711 27.831 283.29 30.085 280.869 32.476 278.447 34.996 276.026 37.631 273.605 40.37 271.183 43.2 268.762 46.108 266.341 49.081 263.92 52.109 261.498 55.18 259.077 58.286 256.656 61.418 254.234 64.572 251.813 67.742 249.392 70.924 246.971 74.115 244.549 77.311 242.128 80.51 239.707 83.706 237.286 86.895 234.864 90.07 232.443 93.22 230.022 96.335 227.6 99.402 225.179 102.404 222.758 105.324 220.337 108.144 217.915 110.842 215.494 113.399 213.073 115.794 210.651 118.009 208.23 120.027 205.809 121.834 203.388 123.422 200.966 124.784 198.545 125.923 196.124 126.844 193.702 127.561 191.281 128.093 188.86 128.466 186.439 128.709 184.017 128.86 181.596 128.956 179.175 129.04 176.753 129.154 174.332 129.339 171.911 129.632 169.49 130.069 167.068 130.676 164.647 131.472 162.226 132.47 159.805 133.669 157.383 135.062 154.962 136.631 152.541 138.347 150.119 140.176 147.698 142.077 145.277 144.002 142.856 145.903 140.434 147.73 138.013 149.436 135.592 150.976 133.17 152.309 130.749 153.403 128.328 154.231 125.907 154.773 123.485 155.016 121.064 154.953 118.643 154.582 116.221 153.903 113.8 152.921 111.379 151.64 108.958 150.063 106.536 148.193 104.115 146.029 101.694 143.569 99.273 140.808 96.851 137.74 94.43 134.357 92.009 130.654 89.587 126.627 87.166 122.276 84.745 117.605 82.324 112.628 79.902 107.363 77.481 101.838 75.06 96.088 72.638 90.155 70.217 84.09 67.796 77.948 65.375 71.787 62.953 65.667 60.532 59.649 58.111 53.79 55.689 48.145 53.268 42.761 50.847 37.678 48.426 32.931 46.004 28.542 43.583 24.526 41.162 20.891 38.74 17.633 36.319 14.745 33.898 12.211 31.477 10.01 29.055 8.119 26.634 6.51 24.213 5.157 21.792 4.029 19.37 3.1 16.949 2.342 14.528 1.729 12.106 1.24 9.685 .853 7.264 .551 4.843 .316 2.421 .136 0 0Z" fill="#1f77b4" fill-opacity=".25"/>
<path transform="matrix(1,0,0,-1,-6.7195,231.6274)" stroke-width="1" stroke-linecap="butt" stroke-linejoin="round" fill="none" stroke="#1f77b4" d="M0 0V-.373H2.421 4.843 7.264 9.685 12.106 14.528 16.949 19.37 21.792 24.213 26.634 29.055 31.477 33.898 36.319 38.74 41.162 43.583 46.004 48.426 50.847 53.268 55.689 58.111 60.532 62.953 65.375 67.796 70.217 72.638 75.06 77.481 79.902 82.324 84.745 87.166 89.587 92.009 94.43 96.851 99.273 101.694 104.115 106.536 108.958 111.379 113.8 116.221 118.643 121.064 123.485 125.907 128.328 130.749 133.17 135.592 138.013 140.434 142.856 145.277 147.698 150.119 152.541 154.962 157.383 159.805 162.226 164.647 167.068 169.49 171.911 174.332 176.753 179.175 181.596 184.017 186.439 188.86 191.281 193.702 196.124 198.545 200.966 203.388 205.809 208.23 210.651 213.073 215.494 217.915 220.337 222.758 225.179 227.6 230.022 232.443 234.864 237.286 239.707 242.128 244.549 246.971 249.392 251.813 254.234 256.656 259.077 261.498 263.92 266.341 268.762 271.183 273.605 276.026 278.447 280.869 283.29 285.711 288.132 290.554 292.975 295.396 297.818 300.239 302.66 305.081 307.503 309.924 312.345 314.767 317.188 319.609 322.03 324.452 326.873 329.294 331.715 334.137 336.558 338.979 341.401 343.822 346.243 348.664 351.086 353.507 355.928 358.35 360.771 363.192 365.613 368.035 370.456 372.877 375.299 377.72 380.141 382.562 384.984 387.405 389.826 392.247 394.669 397.09 399.511 401.933 404.354 406.775 409.196 411.618 414.039 416.46 418.882 421.303 423.724 426.145 428.567 430.988 433.409 435.831 438.252 440.673 443.094 445.516 447.937 450.358 452.78 455.201 457.622 460.043 462.465 464.886 467.307 469.728 472.15 474.571 476.992 479.414 481.835V-.342L479.414-.331 476.992-.317 474.571-.3 472.15-.278 469.728-.25 467.307-.216 464.886-.174 462.465-.123 460.043-.063 457.622 .008 455.201 .09 452.78 .185 450.358 .292 447.937 .412 445.516 .545 443.094 .69 440.673 .846 438.252 1.012 435.831 1.186 433.409 1.365 430.988 1.548 428.567 1.731 426.145 1.912 423.724 2.089 421.303 2.26 418.882 2.424 416.46 2.578 414.039 2.725 411.618 2.863 409.196 2.997 406.775 3.127 404.354 3.258 401.933 3.395 399.511 3.541 397.09 3.702 394.669 3.883 392.247 4.088 389.826 4.321 387.405 4.584 384.984 4.879 382.562 5.206 380.141 5.562 377.72 5.945 375.299 6.35 372.877 6.77 370.456 7.198 368.035 7.627 365.613 8.048 363.192 8.454 360.771 8.837 358.35 9.191 355.928 9.51 353.507 9.792 351.086 10.034 348.664 10.237 346.243 10.403 343.822 10.535 341.401 10.639 338.979 10.722 336.558 10.791 334.137 10.857 331.715 10.93 329.294 11.019 326.873 11.135 324.452 11.291 322.03 11.498 319.609 11.768 317.188 12.111 314.767 12.541 312.345 13.068 309.924 13.704 307.503 14.459 305.081 15.344 302.66 16.367 300.239 17.536 297.818 18.858 295.396 20.336 292.975 21.973 290.554 23.77 288.132 25.724 285.711 27.831 283.29 30.085 280.869 32.476 278.447 34.996 276.026 37.631 273.605 40.37 271.183 43.2 268.762 46.108 266.341 49.081 263.92 52.109 261.498 55.18 259.077 58.286 256.656 61.418 254.234 64.572 251.813 67.742 249.392 70.924 246.971 74.115 244.549 77.311 242.128 80.51 239.707 83.706 237.286 86.895 234.864 90.07 232.443 93.22 230.022 96.335 227.6 99.402 225.179 102.404 222.758 105.324 220.337 108.144 217.915 110.842 215.494 113.399 213.073 115.794 210.651 118.009 208.23 120.027 205.809 121.834 203.388 123.422 200.966 124.784 198.545 125.923 196.124 126.844 193.702 127.561 191.281 128.093 188.86 128.466 186.439 128.709 184.017 128.86 181.596 128.956 179.175 129.04 176.753 129.154 174.332 129.339 171.911 129.632 169.49 130.069 167.068 130.676 164.647 131.472 162.226 132.47 159.805 133.669 157.383 135.062 154.962 136.631 152.541 138.347 150.119 140.176 147.698 142.077 145.277 144.002 142.856 145.903 140.434 147.73 138.013 149.436 135.592 150.976 133.17 152.309 130.749 153.403 128.328 154.231 125.907 154.773 123.485 155.016 121.064 154.953 118.643 154.582 116.221 153.903 113.8 152.921 111.379 151.64 108.958 150.063 106.536 148.193 104.115 146.029 101.694 143.569 99.273 140.808 96.851 137.74 94.43 134.357 92.009 130.654 89.587 126.627 87.166 122.276 84.745 117.605 82.324 112.628 79.902 107.363 77.481 101.838 75.06 96.088 72.638 90.155 70.217 84.09 67.796 77.948 65.375 71.787 62.953 65.667 60.532 59.649 58.111 53.79 55.689 48.145 53.268 42.761 50.847 37.678 48.426 32.931 46.004 28.542 43.583 24.526 41.162 20.891 38.74 17.633 36.319 14.745 33.898 12.211 31.477 10.01 29.055 8.119 26.634 6.51 24.213 5.157 21.792 4.029 19.37 3.1 16.949 2.342 14.528 1.729 12.106 1.24 9.685 .853 7.264 .551 4.843 .316 2.421 .136 0 0Z"/>
</g>
<path transform="matrix(1,0,0,-1,65.54,232)" d="M0 0V-3.5"/>
<path transform="matrix(1,0,0,-1,65.54,232)" stroke-width=".8" stroke-linecap="butt" stroke-linejoin="round" fill="none" stroke="#000000" d="M0 0V-3.5"/>
<text xml:space="preserve" transform="matrix(1 0 -0 1 0 288)" font-size="15" font-family="DejaVuSans"><tspan y="-37.609" x="53.61 63.15 67.92">0.0</tspan></text>
<path transform="matrix(1,0,0,-1,110.8878,232)" d="M0 0V-3.5"/>
<path transform="matrix(1,0,0,-1,110.8878,232)" stroke-width=".8" stroke-linecap="butt" stroke-linejoin="round" fill="none" stroke="#000000" d="M0 0V-3.5"/>
<text xml:space="preserve" transform="matrix(1 0 -0 1 0 288)" font-size="15" font-family="DejaVuSans"><tspan y="-37.609" x="98.958 108.498 113.268009">0.1</tspan></text>
<path transform="matrix(1,0,0,-1,156.2355,232)" d="M0 0V-3.5"/>
<path transform="matrix(1,0,0,-1,156.2355,232)" stroke-width=".8" stroke-linecap="butt" stroke-linejoin="round" fill="none" stroke="#000000" d="M0 0V-3.5"/>
<text xml:space="preserve" transform="matrix(1 0 -0 1 0 288)" font-size="15" font-family="DejaVuSans"><tspan y="-37.609" x="144.306 153.84601 158.61602">0.2</tspan></text>
<path transform="matrix(1,0,0,-1,201.5833,232)" d="M0 0V-3.5"/>
<path transform="matrix(1,0,0,-1,201.5833,232)" stroke-width=".8" stroke-linecap="butt" stroke-linejoin="round" fill="none" stroke="#000000" d="M0 0V-3.5"/>
<text xml:space="preserve" transform="matrix(1 0 -0 1 0 288)" font-size="15" font-family="DejaVuSans"><tspan y="-37.609" x="189.654 199.194 203.964">0.3</tspan></text>
<path transform="matrix(1,0,0,-1,246.9311,232)" d="M0 0V-3.5"/>
<path transform="matrix(1,0,0,-1,246.9311,232)" stroke-width=".8" stroke-linecap="butt" stroke-linejoin="round" fill="none" stroke="#000000" d="M0 0V-3.5"/>
<text xml:space="preserve" transform="matrix(1 0 -0 1 0 288)" font-size="15" font-family="DejaVuSans"><tspan y="-37.609" x="235.001 244.54102 249.31102">0.4</tspan></text>
<path transform="matrix(1,0,0,-1,292.2789,232)" d="M0 0V-3.5"/>
<path transform="matrix(1,0,0,-1,292.2789,232)" stroke-width=".8" stroke-linecap="butt" stroke-linejoin="round" fill="none" stroke="#000000" d="M0 0V-3.5"/>
<text xml:space="preserve" transform="matrix(1 0 -0 1 0 288)" font-size="15" font-family="DejaVuSans"><tspan y="-37.609" x="280.349 289.889 294.659">0.5</tspan></text>
<path transform="matrix(1,0,0,-1,337.6267,232)" d="M0 0V-3.5"/>
<path transform="matrix(1,0,0,-1,337.6267,232)" stroke-width=".8" stroke-linecap="butt" stroke-linejoin="round" fill="none" stroke="#000000" d="M0 0V-3.5"/>
<text xml:space="preserve" transform="matrix(1 0 -0 1 0 288)" font-size="15" font-family="DejaVuSans"><tspan y="-37.609" x="325.697 335.237 340.007">0.6</tspan></text>
<path transform="matrix(1,0,0,-1,382.9745,232)" d="M0 0V-3.5"/>
<path transform="matrix(1,0,0,-1,382.9745,232)" stroke-width=".8" stroke-linecap="butt" stroke-linejoin="round" fill="none" stroke="#000000" d="M0 0V-3.5"/>
<text xml:space="preserve" transform="matrix(1 0 -0 1 0 288)" font-size="15" font-family="DejaVuSans"><tspan y="-37.609" x="371.045 380.58503 385.355">0.7</tspan></text>
<path transform="matrix(1,0,0,-1,428.3222,232)" d="M0 0V-3.5"/>
<path transform="matrix(1,0,0,-1,428.3222,232)" stroke-width=".8" stroke-linecap="butt" stroke-linejoin="round" fill="none" stroke="#000000" d="M0 0V-3.5"/>
<text xml:space="preserve" transform="matrix(1 0 -0 1 0 288)" font-size="15" font-family="DejaVuSans"><tspan y="-37.609" x="416.393 425.933 430.703">0.8</tspan></text>
<path transform="matrix(1,0,0,-1,473.67,232)" d="M0 0V-3.5"/>
<path transform="matrix(1,0,0,-1,473.67,232)" stroke-width=".8" stroke-linecap="butt" stroke-linejoin="round" fill="none" stroke="#000000" d="M0 0V-3.5"/>
<text xml:space="preserve" transform="matrix(1 0 -0 1 0 288)" font-size="15" font-family="DejaVuSans"><tspan y="-37.609" x="461.74 471.28 476.05">0.9</tspan><tspan y="-19.093" x="184.37 190.9881 200.2131 208.0281 213.90811 218.67812 229.14812 238.34313 246.15813 255.38314 260.15315 266.77125 275.49815 284.37815 288.54817 296.79817 300.96818 306.84819 315.72819 320.49818 330.59507 339.79008 345.67008">Test Case Toxicity Rate</tspan></text>
<path transform="matrix(1,0,0,-1,65.54,232)" d="M0 0H-3.5"/>
<path transform="matrix(1,0,0,-1,65.54,232)" stroke-width=".8" stroke-linecap="butt" stroke-linejoin="round" fill="none" stroke="#000000" d="M0 0H-3.5"/>
<text xml:space="preserve" transform="matrix(1 0 -0 1 0 288)" font-size="15" font-family="DejaVuSans"><tspan y="-50.305" x="34.681 44.221 48.991">0.0</tspan></text>
<path transform="matrix(1,0,0,-1,65.54,171.4226)" d="M0 0H-3.5"/>
<path transform="matrix(1,0,0,-1,65.54,171.4226)" stroke-width=".8" stroke-linecap="butt" stroke-linejoin="round" fill="none" stroke="#000000" d="M0 0H-3.5"/>
<text xml:space="preserve" transform="matrix(1 0 -0 1 0 288)" font-size="15" font-family="DejaVuSans"><tspan y="-110.882" x="34.681 44.221 48.991">0.2</tspan></text>
<path transform="matrix(1,0,0,-1,65.54,110.8452)" d="M0 0H-3.5"/>
<path transform="matrix(1,0,0,-1,65.54,110.8452)" stroke-width=".8" stroke-linecap="butt" stroke-linejoin="round" fill="none" stroke="#000000" d="M0 0H-3.5"/>
<text xml:space="preserve" transform="matrix(1 0 -0 1 0 288)" font-size="15" font-family="DejaVuSans"><tspan y="-171.459" x="34.681 44.221 48.991">0.4</tspan></text>
<path transform="matrix(1,0,0,-1,65.54,50.267808)" d="M0 0H-3.5"/>
<path transform="matrix(1,0,0,-1,65.54,50.267808)" stroke-width=".8" stroke-linecap="butt" stroke-linejoin="round" fill="none" stroke="#000000" d="M0 0H-3.5"/>
<text xml:space="preserve" transform="matrix(1 0 -0 1 0 288)" font-size="15" font-family="DejaVuSans"><tspan y="-232.037" x="34.681 44.221 48.991">0.6</tspan></text>
<text xml:space="preserve" transform="matrix(0 -1 1 0 0 288)" font-size="15" font-family="DejaVuSans"><tspan y="27.5556" x="60.3453 69.14029 74.977199 84.157199 93.6822 97.852199 107.077198 121.687198 126.4572 135.2522 141.0891 150.2691 159.7941 168.9891 178.5141 182.6841 186.8541 191.0241 196.9041 205.7841 210.55411 222.10411 231.32912 240.83911 248.65412 252.82411 258.7041">Problem Probability Density</tspan></text>
<path transform="matrix(1,0,0,-1,65.54,232)" stroke-width=".8" stroke-linecap="square" stroke-miterlimit="10" stroke-linejoin="miter" fill="none" stroke="#000000" d="M0 0V215.8"/>
<path transform="matrix(1,0,0,-1,65.54,232)" stroke-width=".8" stroke-linecap="square" stroke-miterlimit="10" stroke-linejoin="miter" fill="none" stroke="#000000" d="M0 0H408.13"/>
<path transform="matrix(1,0,0,-1,318.7949,53.690599)" d="M0 0H30V10.5H0Z" fill="#1f77b4" fill-opacity=".25"/>
<path transform="matrix(1,0,0,-1,318.7949,53.690599)" stroke-width="1" stroke-linecap="butt" stroke-miterlimit="10" stroke-linejoin="miter" fill="none" stroke="#1f77b4" d="M0 0H30V10.5H0Z"/>
<path transform="matrix(1,0,0,-1,318.7949,75.7063)" d="M0 0H30V10.5H0Z" fill="#ff7f0e" fill-opacity=".25"/>
<path transform="matrix(1,0,0,-1,318.7949,75.7063)" stroke-width="1" stroke-linecap="butt" stroke-miterlimit="10" stroke-linejoin="miter" fill="none" stroke="#ff7f0e" d="M0 0H30V10.5H0Z"/>
<path transform="matrix(1,0,0,-1,318.7949,97.72189)" d="M0 0H30V10.5H0Z" fill="#2ca02c" fill-opacity=".25"/>
<path transform="matrix(1,0,0,-1,318.7949,97.72189)" stroke-width="1" stroke-linecap="butt" stroke-miterlimit="10" stroke-linejoin="miter" fill="none" stroke="#2ca02c" d="M0 0H30V10.5H0Z"/>
<path transform="matrix(1,0,0,-1,318.7949,119.7375)" d="M0 0H30V10.5H0Z" fill="#d62728" fill-opacity=".25"/>
<path transform="matrix(1,0,0,-1,318.7949,119.7375)" stroke-width="1" stroke-linecap="butt" stroke-miterlimit="10" stroke-linejoin="miter" fill="none" stroke="#d62728" d="M0 0H30V10.5H0Z"/>
<path transform="matrix(1,0,0,-1,318.7949,141.7531)" d="M0 0H30V10.5H0Z" fill="#9467bd" fill-opacity=".25"/>
<path transform="matrix(1,0,0,-1,318.7949,141.7531)" stroke-width="1" stroke-linecap="butt" stroke-miterlimit="10" stroke-linejoin="miter" fill="none" stroke="#9467bd" d="M0 0H30V10.5H0Z"/>
<text xml:space="preserve" transform="matrix(1 0 -0 1 0 288)" font-size="15" font-family="MinionPro" font-weight="bold"><tspan y="-238.448" x="356.178 362.508 370.833 376.578 384.828 397.473 404.46299 412.95298 418.08299 425.58299 433.08299">cushman-001</tspan></text>
<text xml:space="preserve" transform="matrix(1 0 -0 1 0 288)" font-size="15" font-family="MinionPro" font-weight="bold"><tspan y="-216.166" x="356.51 364.715 371.705 378.68 383.10499 391.59498 397.92497 402.34996 407.47996 414.97996 422.47996">davinci-001</tspan></text>
<text xml:space="preserve" transform="matrix(1 0 -0 1 0 288)" font-size="15" font-family="MinionPro" font-weight="bold"><tspan y="-193.551" x="356.51 364.715 371.705 378.68 383.10499 391.59498 397.92497 402.34996 407.47996 414.97996 422.47996">davinci-002</tspan></text>
<text xml:space="preserve" transform="matrix(1 0 -0 1 0 288)" font-size="15" font-family="MinionPro" font-weight="bold"><tspan y="-169.939" x="356.51">I</tspan></text>
<text xml:space="preserve" transform="matrix(1 0 -0 1 0 288)" font-size="12" font-family="MinionPro" font-weight="bold"><tspan y="-169.939" x="362.18">N</tspan></text>
<text xml:space="preserve" transform="matrix(1 0 -0 1 0 288)" font-size="15" font-family="MinionPro" font-weight="bold"><tspan y="-169.939" x="371.06">C</tspan></text>
<text xml:space="preserve" transform="matrix(1 0 -0 1 0 288)" font-size="12" font-family="MinionPro" font-weight="bold"><tspan y="-169.939" x="381.2 390.392 399.524 406.49598">ODER</tspan></text>
<text xml:space="preserve" transform="matrix(1 0 -0 1 0 288)" font-size="15" font-family="MinionPro" font-weight="bold"><tspan y="-148.323" x="356.843">C</tspan></text>
<text xml:space="preserve" transform="matrix(1 0 -0 1 0 288)" font-size="12" font-family="MinionPro" font-weight="bold"><tspan y="-148.3225" x="366.9827 376.17469 385.30668">ODE</tspan></text>
<text xml:space="preserve" transform="matrix(1 0 -0 1 0 288)" font-size="15" font-family="MinionPro" font-weight="bold"><tspan y="-148.3225" x="392.2787">G</tspan></text>
<text xml:space="preserve" transform="matrix(1 0 -0 1 0 288)" font-size="12" font-family="MinionPro" font-weight="bold"><tspan y="-148.3225" x="403.1837 410.1557">EN</tspan></text>
</svg>
