<svg width="451" height="422" xmlns="http://www.w3.org/2000/svg" xmlns:xlink="http://www.w3.org/1999/xlink" overflow="hidden"><defs><clipPath id="clip0"><rect x="0" y="0" width="451" height="422"/></clipPath></defs><g clip-path="url(#clip0)"><rect x="0" y="0" width="451" height="421.823" fill="#FFFFFF"/><rect x="2.49997" y="2.49892" width="446" height="416.825" stroke="#404040" stroke-width="1.33284" stroke-linejoin="round" stroke-miterlimit="10" fill="#F2F2F2"/><text fill="#0000FF" font-family="Consolas,Consolas_MSFontService,sans-serif" font-weight="400" font-size="19" transform="matrix(1 0 0 0.99958 11.729 25)">def</text><text fill="#795E26" font-family="Consolas,Consolas_MSFontService,sans-serif" font-weight="400" font-size="19" transform="matrix(1 0 0 0.99958 53.0471 25)">below_threshold</text><text font-family="Consolas,Consolas_MSFontService,sans-serif" font-weight="400" font-size="19" transform="matrix(1 0 0 0.99958 207.99 25)">(</text><text fill="#001080" font-family="Consolas,Consolas_MSFontService,sans-serif" font-weight="400" font-size="19" transform="matrix(1 0 0 0.99958 218.319 25)">l</text><text font-family="Consolas,Consolas_MSFontService,sans-serif" font-weight="400" font-size="19" transform="matrix(1 0 0 0.99958 228.649 25)">:</text><text fill="#267F99" font-family="Consolas,Consolas_MSFontService,sans-serif" font-weight="400" font-size="19" transform="matrix(1 0 0 0.99958 249.308 25)">list</text><text font-family="Consolas,Consolas_MSFontService,sans-serif" font-weight="400" font-size="19" transform="matrix(1 0 0 0.99958 290.626 25)">,</text><text fill="#001080" font-family="Consolas,Consolas_MSFontService,sans-serif" font-weight="400" font-size="19" transform="matrix(1 0 0 0.99958 311.285 25)">t</text><text font-family="Consolas,Consolas_MSFontService,sans-serif" font-weight="400" font-size="19" transform="matrix(1 0 0 0.99958 321.614 25)">:</text><text fill="#267F99" font-family="Consolas,Consolas_MSFontService,sans-serif" font-weight="400" font-size="19" transform="matrix(1 0 0 0.99958 342.273 25)">int</text><text font-family="Consolas,Consolas_MSFontService,sans-serif" font-weight="400" font-size="19" transform="matrix(1 0 0 0.99958 373.262 25)">):</text><text fill="#A31515" font-family="Consolas,Consolas_MSFontService,sans-serif" font-weight="400" font-size="19" transform="matrix(1 0 0 0.99958 53.0471 47)">"""</text><text fill="#A31515" font-family="Consolas,Consolas_MSFontService,sans-serif" font-weight="400" font-size="19" transform="matrix(1 0 0 0.99958 53.0471 69)">Return True if all numbers in the</text><text fill="#A31515" font-family="Consolas,Consolas_MSFontService,sans-serif" font-weight="400" font-size="19" transform="matrix(1 0 0 0.99958 53.0471 92)">list l are below threshold t.</text><text fill="#A31515" font-family="Consolas,Consolas_MSFontService,sans-serif" font-weight="400" font-size="19" transform="matrix(1 0 0 0.99958 53.0471 114)">"""</text><text fill="#AF00DB" font-family="Consolas,Consolas_MSFontService,sans-serif" font-weight="400" font-size="19" transform="matrix(1 0 0 0.99958 53.0471 204)">if</text><text fill="#001080" font-family="Consolas,Consolas_MSFontService,sans-serif" font-weight="400" font-size="19" transform="matrix(1 0 0 0.99958 84.0356 204)">l</text><text font-family="Consolas,Consolas_MSFontService,sans-serif" font-weight="400" font-size="19" transform="matrix(1 0 0 0.99958 104.695 204)">== []:</text><text fill="#AF00DB" font-family="Consolas,Consolas_MSFontService,sans-serif" font-weight="400" font-size="19" transform="matrix(1 0 0 0.99958 177.001 204)">return</text><text fill="#0000FF" font-family="Consolas,Consolas_MSFontService,sans-serif" font-weight="400" font-size="19" transform="matrix(1 0 0 0.99958 249.308 204)">True</text><text fill="#AF00DB" font-family="Consolas,Consolas_MSFontService,sans-serif" font-weight="400" font-size="19" transform="matrix(1 0 0 0.99958 53.0471 226)">return</text><text fill="#001080" font-family="Consolas,Consolas_MSFontService,sans-serif" font-weight="400" font-size="19" transform="matrix(1 0 0 0.99958 125.354 226)">l</text><text font-family="Consolas,Consolas_MSFontService,sans-serif" font-weight="400" font-size="19" transform="matrix(1 0 0 0.99958 135.683 226)">[</text><text fill="#098658" font-family="Consolas,Consolas_MSFontService,sans-serif" font-weight="400" font-size="19" transform="matrix(1 0 0 0.99958 146.013 226)">0</text><text font-family="Consolas,Consolas_MSFontService,sans-serif" font-weight="400" font-size="19" transform="matrix(1 0 0 0.99958 156.342 226)">] &lt;</text><text fill="#001080" font-family="Consolas,Consolas_MSFontService,sans-serif" font-weight="400" font-size="19" transform="matrix(1 0 0 0.99958 197.66 226)">t</text><text fill="#0000FF" font-family="Consolas,Consolas_MSFontService,sans-serif" font-weight="400" font-size="19" transform="matrix(1 0 0 0.99958 218.319 226)">and</text><text fill="#795E26" font-family="Consolas,Consolas_MSFontService,sans-serif" font-weight="400" font-size="19" transform="matrix(1 0 0 0.99958 53.0471 249)">below_threshold</text><text font-family="Consolas,Consolas_MSFontService,sans-serif" font-weight="400" font-size="19" transform="matrix(1 0 0 0.99958 207.99 249)">(</text><text fill="#001080" font-family="Consolas,Consolas_MSFontService,sans-serif" font-weight="400" font-size="19" transform="matrix(1 0 0 0.99958 218.319 249)">l</text><text font-family="Consolas,Consolas_MSFontService,sans-serif" font-weight="400" font-size="19" transform="matrix(1 0 0 0.99958 228.649 249)">[</text><text fill="#098658" font-family="Consolas,Consolas_MSFontService,sans-serif" font-weight="400" font-size="19" transform="matrix(1 0 0 0.99958 238.978 249)">1</text><text font-family="Consolas,Consolas_MSFontService,sans-serif" font-weight="400" font-size="19" transform="matrix(1 0 0 0.99958 249.308 249)">:],</text><text fill="#001080" font-family="Consolas,Consolas_MSFontService,sans-serif" font-weight="400" font-size="19" transform="matrix(1 0 0 0.99958 290.626 249)">t</text><text font-family="Consolas,Consolas_MSFontService,sans-serif" font-weight="400" font-size="19" transform="matrix(1 0 0 0.99958 300.955 249)">)</text><text fill="#AF00DB" font-family="Consolas,Consolas_MSFontService,sans-serif" font-weight="400" font-size="19" transform="matrix(1 0 0 0.99958 53.0471 338)">for</text><text fill="#001080" font-family="Consolas,Consolas_MSFontService,sans-serif" font-weight="400" font-size="19" transform="matrix(1 0 0 0.99958 94.3651 338)">e</text><text fill="#AF00DB" font-family="Consolas,Consolas_MSFontService,sans-serif" font-weight="400" font-size="19" transform="matrix(1 0 0 0.99958 115.024 338)">in</text><text fill="#001080" font-family="Consolas,Consolas_MSFontService,sans-serif" font-weight="400" font-size="19" transform="matrix(1 0 0 0.99958 146.013 338)">l</text><text font-family="Consolas,Consolas_MSFontService,sans-serif" font-weight="400" font-size="19" transform="matrix(1 0 0 0.99958 156.342 338)">:</text><text fill="#AF00DB" font-family="Consolas,Consolas_MSFontService,sans-serif" font-weight="400" font-size="19" transform="matrix(1 0 0 0.99958 94.3651 361)">if</text><text fill="#001080" font-family="Consolas,Consolas_MSFontService,sans-serif" font-weight="400" font-size="19" transform="matrix(1 0 0 0.99958 125.354 361)">e</text><text font-family="Consolas,Consolas_MSFontService,sans-serif" font-weight="400" font-size="19" transform="matrix(1 0 0 0.99958 146.013 361)">&gt;</text><text fill="#001080" font-family="Consolas,Consolas_MSFontService,sans-serif" font-weight="400" font-size="19" transform="matrix(1 0 0 0.99958 166.672 361)">t</text><text font-family="Consolas,Consolas_MSFontService,sans-serif" font-weight="400" font-size="19" transform="matrix(1 0 0 0.99958 177.001 361)">:</text><text fill="#AF00DB" font-family="Consolas,Consolas_MSFontService,sans-serif" font-weight="400" font-size="19" transform="matrix(1 0 0 0.99958 135.683 383)">return</text><text fill="#0000FF" font-family="Consolas,Consolas_MSFontService,sans-serif" font-weight="400" font-size="19" transform="matrix(1 0 0 0.99958 207.99 383)">False</text><text fill="#AF00DB" font-family="Consolas,Consolas_MSFontService,sans-serif" font-weight="400" font-size="19" transform="matrix(1 0 0 0.99958 53.0471 405)">return</text><text fill="#0000FF" font-family="Consolas,Consolas_MSFontService,sans-serif" font-weight="400" font-size="19" transform="matrix(1 0 0 0.99958 125.354 405)">True</text><rect x="9.00003" y="118.95" width="432" height="58.9753" fill="#D9D9D9"/><text font-family="Calibri,Calibri_MSFontService,sans-serif" font-weight="400" font-size="21" transform="matrix(1 0 0 0.99958 18.3932 143)">Rank #1: The consensus set has</text><text font-family="Calibri,Calibri_MSFontService,sans-serif" font-weight="700" font-size="21" transform="matrix(1 0 0 0.99958 294.331 143)">61</text><text font-family="Calibri,Calibri_MSFontService,sans-serif" font-weight="400" font-size="21" transform="matrix(1 0 0 0.99958 320.821 143)">solutions</text><text font-family="Calibri,Calibri_MSFontService,sans-serif" font-weight="400" font-size="21" transform="matrix(1 0 0 0.99958 18.3932 169)">and</text><text font-family="Calibri,Calibri_MSFontService,sans-serif" font-weight="700" font-size="21" transform="matrix(1 0 0 0.99958 55.7127 169)">218</text><text font-family="Calibri,Calibri_MSFontService,sans-serif" font-weight="400" font-size="21" transform="matrix(1 0 0 0.99958 93.0323 169)">test cases.</text><rect x="9.00003" y="258.891" width="432" height="58.9752" fill="#D9D9D9"/><text font-family="Calibri,Calibri_MSFontService,sans-serif" font-weight="400" font-size="21" transform="matrix(1 0 0 0.99958 18.3932 283)">Rank #2: The consensus set has</text><text font-family="Calibri,Calibri_MSFontService,sans-serif" font-weight="700" font-size="21" transform="matrix(1 0 0 0.99958 294.331 283)">30</text><text font-family="Calibri,Calibri_MSFontService,sans-serif" font-weight="400" font-size="21" transform="matrix(1 0 0 0.99958 320.821 283)">solutions</text><text font-family="Calibri,Calibri_MSFontService,sans-serif" font-weight="400" font-size="21" transform="matrix(1 0 0 0.99958 18.3932 309)">and</text><text font-family="Calibri,Calibri_MSFontService,sans-serif" font-weight="700" font-size="21" transform="matrix(1 0 0 0.99958 55.7127 309)">226</text><text font-family="Calibri,Calibri_MSFontService,sans-serif" font-weight="400" font-size="21" transform="matrix(1 0 0 0.99958 93.0323 309)">test cases.</text><text fill="#548235" font-family="Calibri,Calibri_MSFontService,sans-serif" font-weight="700" font-size="24" transform="matrix(1 0 0 0.99958 361.167 170)">Correct</text><text fill="#C00000" font-family="Calibri,Calibri_MSFontService,sans-serif" font-weight="700" font-size="24" transform="matrix(1 0 0 0.99958 347.738 310)">Incorrect</text></g></svg>