<svg width="672" height="422" xmlns="http://www.w3.org/2000/svg" xmlns:xlink="http://www.w3.org/1999/xlink" overflow="hidden"><g><rect x="0" y="0" width="672" height="421.667" fill="#FFFFFF"/><rect x="3.50005" y="2.49808" width="666" height="416.671" stroke="#404040" stroke-width="1.33333" stroke-linejoin="round" stroke-miterlimit="10" fill="#F2F2F2"/><text fill="#0000FF" font-family="Consolas,Consolas_MSFontService,sans-serif" font-weight="400" font-size="19" transform="matrix(1 0 0 0.999211 13.0078 25)">def</text><text fill="#795E26" font-family="Consolas,Consolas_MSFontService,sans-serif" font-weight="400" font-size="19" transform="matrix(1 0 0 0.999211 54.3411 25)">sort_array</text><text font-family="Consolas,Consolas_MSFontService,sans-serif" font-weight="400" font-size="19" transform="matrix(1 0 0 0.999211 157.674 25)">(</text><text fill="#001080" font-family="Consolas,Consolas_MSFontService,sans-serif" font-weight="400" font-size="19" transform="matrix(1 0 0 0.999211 168.008 25)">array</text><text font-family="Consolas,Consolas_MSFontService,sans-serif" font-weight="400" font-size="19" transform="matrix(1 0 0 0.999211 219.674 25)">):</text><text fill="#A31515" font-family="Consolas,Consolas_MSFontService,sans-serif" font-weight="400" font-size="19" transform="matrix(1 0 0 0.999211 54.3411 47)">"""</text><text fill="#A31515" font-family="Consolas,Consolas_MSFontService,sans-serif" font-weight="400" font-size="19" transform="matrix(1 0 0 0.999211 54.3411 69)">Given an array of non</text><text fill="#A31515" font-family="Consolas,Consolas_MSFontService,sans-serif" font-weight="400" font-size="19" transform="matrix(1 0 0 0.999211 271.341 69)">-</text><text fill="#A31515" font-family="Consolas,Consolas_MSFontService,sans-serif" font-weight="400" font-size="19" transform="matrix(1 0 0 0.999211 281.674 69)">negative integers, return a copy of</text><text fill="#A31515" font-family="Consolas,Consolas_MSFontService,sans-serif" font-weight="400" font-size="19" transform="matrix(1 0 0 0.999211 54.3411 92)">the given array after sorting, you will sort the given</text><text fill="#A31515" font-family="Consolas,Consolas_MSFontService,sans-serif" font-weight="400" font-size="19" transform="matrix(1 0 0 0.999211 54.3411 114)">array in ascending order if the sum( first index value,</text><text fill="#A31515" font-family="Consolas,Consolas_MSFontService,sans-serif" font-weight="400" font-size="19" transform="matrix(1 0 0 0.999211 54.3411 137)">last index value) is odd, or sort it in descending order</text><text fill="#A31515" font-family="Consolas,Consolas_MSFontService,sans-serif" font-weight="400" font-size="19" transform="matrix(1 0 0 0.999211 54.3411 159)">if the sum( first index value, last index value) is even.</text><text fill="#A31515" font-family="Consolas,Consolas_MSFontService,sans-serif" font-weight="400" font-size="19" transform="matrix(1 0 0 0.999211 54.3411 181)">"""</text><rect x="13" y="176.86" width="332" height="58.9534" fill="#D9D9D9"/><text font-family="Calibri,Calibri_MSFontService,sans-serif" font-weight="400" font-size="21" transform="matrix(1 0 0 0.999211 22.7251 201)">Rank #1: The consensus set has</text><text font-family="Calibri,Calibri_MSFontService,sans-serif" font-weight="700" font-size="21" transform="matrix(1 0 0 0.999211 298.765 201)">4</text><text font-family="Calibri,Calibri_MSFontService,sans-serif" font-weight="400" font-size="21" transform="matrix(1 0 0 0.999211 22.7251 227)">solutions and</text><text font-family="Calibri,Calibri_MSFontService,sans-serif" font-weight="700" font-size="21" transform="matrix(1 0 0 0.999211 143.392 227)">138</text><text font-family="Calibri,Calibri_MSFontService,sans-serif" font-weight="400" font-size="21" transform="matrix(1 0 0 0.999211 180.725 227)">test cases.</text><rect x="355" y="176.86" width="306" height="58.9534" fill="#D9D9D9"/><text font-family="Calibri,Calibri_MSFontService,sans-serif" font-weight="400" font-size="21" transform="matrix(1 0 0 0.999211 364.351 200)">Rank #2: The consensus set has</text><text font-family="Calibri,Calibri_MSFontService,sans-serif" font-weight="700" font-size="21" transform="matrix(1 0 0 0.999211 640.391 200)">3</text><text font-family="Calibri,Calibri_MSFontService,sans-serif" font-weight="400" font-size="21" transform="matrix(1 0 0 0.999211 364.351 226)">solutions and</text><text font-family="Calibri,Calibri_MSFontService,sans-serif" font-weight="700" font-size="21" transform="matrix(1 0 0 0.999211 485.017 226)">158</text><text font-family="Calibri,Calibri_MSFontService,sans-serif" font-weight="400" font-size="21" transform="matrix(1 0 0 0.999211 522.351 226)">test cases.</text><text fill="#548235" font-family="Calibri,Calibri_MSFontService,sans-serif" font-weight="700" font-size="24" transform="matrix(1 0 0 0.999211 588.315 249)">Correct</text><text fill="#001080" font-family="Consolas,Consolas_MSFontService,sans-serif" font-weight="400" font-size="19" transform="matrix(1 0 0 0.999211 359.609 272)">initial_sum</text><text font-family="Consolas,Consolas_MSFontService,sans-serif" font-weight="400" font-size="19" transform="matrix(1 0 0 0.999211 483.609 272)">=</text><text fill="#795E26" font-family="Consolas,Consolas_MSFontService,sans-serif" font-weight="400" font-size="19" transform="matrix(1 0 0 0.999211 504.276 272)">sum</text><text font-family="Consolas,Consolas_MSFontService,sans-serif" font-weight="400" font-size="19" transform="matrix(1 0 0 0.999211 535.276 272)">(</text><text fill="#001080" font-family="Consolas,Consolas_MSFontService,sans-serif" font-weight="400" font-size="19" transform="matrix(1 0 0 0.999211 545.609 272)">array</text><text font-family="Consolas,Consolas_MSFontService,sans-serif" font-weight="400" font-size="19" transform="matrix(1 0 0 0.999211 597.276 272)">[</text><text fill="#098658" font-family="Consolas,Consolas_MSFontService,sans-serif" font-weight="400" font-size="19" transform="matrix(1 0 0 0.999211 607.609 272)">0</text><text font-family="Consolas,Consolas_MSFontService,sans-serif" font-weight="400" font-size="19" transform="matrix(1 0 0 0.999211 617.942 272)">:</text><text fill="#098658" font-family="Consolas,Consolas_MSFontService,sans-serif" font-weight="400" font-size="19" transform="matrix(1 0 0 0.999211 628.276 272)">1</text><text font-family="Consolas,Consolas_MSFontService,sans-serif" font-weight="400" font-size="19" transform="matrix(1 0 0 0.999211 638.609 272)">])</text><text font-family="Consolas,Consolas_MSFontService,sans-serif" font-weight="400" font-size="19" transform="matrix(1 0 0 0.999211 359.609 294)">+</text><text fill="#795E26" font-family="Consolas,Consolas_MSFontService,sans-serif" font-weight="400" font-size="19" transform="matrix(1 0 0 0.999211 380.276 294)">sum</text><text font-family="Consolas,Consolas_MSFontService,sans-serif" font-weight="400" font-size="19" transform="matrix(1 0 0 0.999211 411.276 294)">(</text><text fill="#001080" font-family="Consolas,Consolas_MSFontService,sans-serif" font-weight="400" font-size="19" transform="matrix(1 0 0 0.999211 421.609 294)">array</text><text font-family="Consolas,Consolas_MSFontService,sans-serif" font-weight="400" font-size="19" transform="matrix(1 0 0 0.999211 473.276 294)">[</text><text font-family="Consolas,Consolas_MSFontService,sans-serif" font-weight="400" font-size="19" transform="matrix(1 0 0 0.999211 483.609 294)">-</text><text fill="#098658" font-family="Consolas,Consolas_MSFontService,sans-serif" font-weight="400" font-size="19" transform="matrix(1 0 0 0.999211 493.942 294)">1</text><text font-family="Consolas,Consolas_MSFontService,sans-serif" font-weight="400" font-size="19" transform="matrix(1 0 0 0.999211 504.276 294)">:])</text><text fill="#AF00DB" font-family="Consolas,Consolas_MSFontService,sans-serif" font-weight="400" font-size="19" transform="matrix(1 0 0 0.999211 359.609 316)">if</text><text fill="#001080" font-family="Consolas,Consolas_MSFontService,sans-serif" font-weight="400" font-size="19" transform="matrix(1 0 0 0.999211 390.609 316)">initial_sum</text><text font-family="Consolas,Consolas_MSFontService,sans-serif" font-weight="400" font-size="19" transform="matrix(1 0 0 0.999211 514.609 316)">%</text><text fill="#098658" font-family="Consolas,Consolas_MSFontService,sans-serif" font-weight="400" font-size="19" transform="matrix(1 0 0 0.999211 535.276 316)">2</text><text font-family="Consolas,Consolas_MSFontService,sans-serif" font-weight="400" font-size="19" transform="matrix(1 0 0 0.999211 555.942 316)">==</text><text fill="#098658" font-family="Consolas,Consolas_MSFontService,sans-serif" font-weight="400" font-size="19" transform="matrix(1 0 0 0.999211 586.942 316)">0</text><text font-family="Consolas,Consolas_MSFontService,sans-serif" font-weight="400" font-size="19" transform="matrix(1 0 0 0.999211 597.276 316)">:</text><text fill="#AF00DB" font-family="Consolas,Consolas_MSFontService,sans-serif" font-weight="400" font-size="19" transform="matrix(1 0 0 0.999211 400.942 339)">return</text><text fill="#795E26" font-family="Consolas,Consolas_MSFontService,sans-serif" font-weight="400" font-size="19" transform="matrix(1 0 0 0.999211 473.276 339)">sorted</text><text font-family="Consolas,Consolas_MSFontService,sans-serif" font-weight="400" font-size="19" transform="matrix(1 0 0 0.999211 535.276 339)">(</text><text fill="#001080" font-family="Consolas,Consolas_MSFontService,sans-serif" font-weight="400" font-size="19" transform="matrix(1 0 0 0.999211 545.609 339)">array</text><text font-family="Consolas,Consolas_MSFontService,sans-serif" font-weight="400" font-size="19" transform="matrix(1 0 0 0.999211 597.276 339)">,</text><text fill="#001080" font-family="Consolas,Consolas_MSFontService,sans-serif" font-weight="400" font-size="19" transform="matrix(1 0 0 0.999211 400.942 361)">reverse</text><text font-family="Consolas,Consolas_MSFontService,sans-serif" font-weight="400" font-size="19" transform="matrix(1 0 0 0.999211 473.276 361)">=</text><text fill="#0000FF" font-family="Consolas,Consolas_MSFontService,sans-serif" font-weight="400" font-size="19" transform="matrix(1 0 0 0.999211 483.609 361)">True</text><text font-family="Consolas,Consolas_MSFontService,sans-serif" font-weight="400" font-size="19" transform="matrix(1 0 0 0.999211 524.942 361)">)</text><text fill="#AF00DB" font-family="Consolas,Consolas_MSFontService,sans-serif" font-weight="400" font-size="19" transform="matrix(1 0 0 0.999211 359.609 384)">else</text><text font-family="Consolas,Consolas_MSFontService,sans-serif" font-weight="400" font-size="19" transform="matrix(1 0 0 0.999211 400.942 384)">:</text><text fill="#AF00DB" font-family="Consolas,Consolas_MSFontService,sans-serif" font-weight="400" font-size="19" transform="matrix(1 0 0 0.999211 400.942 406)">return</text><text fill="#795E26" font-family="Consolas,Consolas_MSFontService,sans-serif" font-weight="400" font-size="19" transform="matrix(1 0 0 0.999211 473.276 406)">sorted</text><text font-family="Consolas,Consolas_MSFontService,sans-serif" font-weight="400" font-size="19" transform="matrix(1 0 0 0.999211 535.276 406)">(</text><text fill="#001080" font-family="Consolas,Consolas_MSFontService,sans-serif" font-weight="400" font-size="19" transform="matrix(1 0 0 0.999211 545.609 406)">array</text><text font-family="Consolas,Consolas_MSFontService,sans-serif" font-weight="400" font-size="19" transform="matrix(1 0 0 0.999211 597.276 406)">)</text><text fill="#001080" font-family="Consolas,Consolas_MSFontService,sans-serif" font-weight="400" font-size="19" transform="matrix(1 0 0 0.999211 59.4607 257)">sum</text><text font-family="Consolas,Consolas_MSFontService,sans-serif" font-weight="400" font-size="19" transform="matrix(1 0 0 0.999211 100.794 257)">=</text><text fill="#098658" font-family="Consolas,Consolas_MSFontService,sans-serif" font-weight="400" font-size="19" transform="matrix(1 0 0 0.999211 121.461 257)">0</text><text fill="#AF00DB" font-family="Consolas,Consolas_MSFontService,sans-serif" font-weight="400" font-size="19" transform="matrix(1 0 0 0.999211 59.4607 279)">for</text><text fill="#001080" font-family="Consolas,Consolas_MSFontService,sans-serif" font-weight="400" font-size="19" transform="matrix(1 0 0 0.999211 100.794 279)">i</text><text fill="#AF00DB" font-family="Consolas,Consolas_MSFontService,sans-serif" font-weight="400" font-size="19" transform="matrix(1 0 0 0.999211 121.461 279)">in</text><text fill="#267F99" font-family="Consolas,Consolas_MSFontService,sans-serif" font-weight="400" font-size="19" transform="matrix(1 0 0 0.999211 152.461 279)">range</text><text font-family="Consolas,Consolas_MSFontService,sans-serif" font-weight="400" font-size="19" transform="matrix(1 0 0 0.999211 204.127 279)">(</text><text fill="#795E26" font-family="Consolas,Consolas_MSFontService,sans-serif" font-weight="400" font-size="19" transform="matrix(1 0 0 0.999211 214.461 279)">len</text><text font-family="Consolas,Consolas_MSFontService,sans-serif" font-weight="400" font-size="19" transform="matrix(1 0 0 0.999211 245.461 279)">(</text><text fill="#001080" font-family="Consolas,Consolas_MSFontService,sans-serif" font-weight="400" font-size="19" transform="matrix(1 0 0 0.999211 255.794 279)">array</text><text font-family="Consolas,Consolas_MSFontService,sans-serif" font-weight="400" font-size="19" transform="matrix(1 0 0 0.999211 307.461 279)">)):</text><text fill="#001080" font-family="Consolas,Consolas_MSFontService,sans-serif" font-weight="400" font-size="19" transform="matrix(1 0 0 0.999211 100.794 301)">sum</text><text font-family="Consolas,Consolas_MSFontService,sans-serif" font-weight="400" font-size="19" transform="matrix(1 0 0 0.999211 142.127 301)">+=</text><text fill="#001080" font-family="Consolas,Consolas_MSFontService,sans-serif" font-weight="400" font-size="19" transform="matrix(1 0 0 0.999211 173.127 301)">array</text><text font-family="Consolas,Consolas_MSFontService,sans-serif" font-weight="400" font-size="19" transform="matrix(1 0 0 0.999211 224.794 301)">[</text><text fill="#001080" font-family="Consolas,Consolas_MSFontService,sans-serif" font-weight="400" font-size="19" transform="matrix(1 0 0 0.999211 235.127 301)">i</text><text font-family="Consolas,Consolas_MSFontService,sans-serif" font-weight="400" font-size="19" transform="matrix(1 0 0 0.999211 245.461 301)">]</text><text fill="#AF00DB" font-family="Consolas,Consolas_MSFontService,sans-serif" font-weight="400" font-size="19" transform="matrix(1 0 0 0.999211 59.4607 324)">if</text><text fill="#001080" font-family="Consolas,Consolas_MSFontService,sans-serif" font-weight="400" font-size="19" transform="matrix(1 0 0 0.999211 90.4607 324)">sum</text><text font-family="Consolas,Consolas_MSFontService,sans-serif" font-weight="400" font-size="19" transform="matrix(1 0 0 0.999211 131.794 324)">%</text><text fill="#098658" font-family="Consolas,Consolas_MSFontService,sans-serif" font-weight="400" font-size="19" transform="matrix(1 0 0 0.999211 152.461 324)">2</text><text font-family="Consolas,Consolas_MSFontService,sans-serif" font-weight="400" font-size="19" transform="matrix(1 0 0 0.999211 173.127 324)">==</text><text fill="#098658" font-family="Consolas,Consolas_MSFontService,sans-serif" font-weight="400" font-size="19" transform="matrix(1 0 0 0.999211 204.127 324)">0</text><text font-family="Consolas,Consolas_MSFontService,sans-serif" font-weight="400" font-size="19" transform="matrix(1 0 0 0.999211 214.461 324)">:</text><text fill="#001080" font-family="Consolas,Consolas_MSFontService,sans-serif" font-weight="400" font-size="19" transform="matrix(1 0 0 0.999211 100.794 346)">array</text><text font-family="Consolas,Consolas_MSFontService,sans-serif" font-weight="400" font-size="19" transform="matrix(1 0 0 0.999211 152.461 346)">.sort</text><text font-family="Consolas,Consolas_MSFontService,sans-serif" font-weight="400" font-size="19" transform="matrix(1 0 0 0.999211 204.127 346)">(</text><text fill="#001080" font-family="Consolas,Consolas_MSFontService,sans-serif" font-weight="400" font-size="19" transform="matrix(1 0 0 0.999211 214.461 346)">reverse</text><text font-family="Consolas,Consolas_MSFontService,sans-serif" font-weight="400" font-size="19" transform="matrix(1 0 0 0.999211 286.794 346)">=</text><text fill="#0000FF" font-family="Consolas,Consolas_MSFontService,sans-serif" font-weight="400" font-size="19" transform="matrix(1 0 0 0.999211 297.127 346)">True</text><text font-family="Consolas,Consolas_MSFontService,sans-serif" font-weight="400" font-size="19" transform="matrix(1 0 0 0.999211 338.461 346)">)</text><text fill="#AF00DB" font-family="Consolas,Consolas_MSFontService,sans-serif" font-weight="400" font-size="19" transform="matrix(1 0 0 0.999211 59.4607 369)">else</text><text font-family="Consolas,Consolas_MSFontService,sans-serif" font-weight="400" font-size="19" transform="matrix(1 0 0 0.999211 100.794 369)">:</text><text fill="#001080" font-family="Consolas,Consolas_MSFontService,sans-serif" font-weight="400" font-size="19" transform="matrix(1 0 0 0.999211 100.794 391)">array</text><text font-family="Consolas,Consolas_MSFontService,sans-serif" font-weight="400" font-size="19" transform="matrix(1 0 0 0.999211 152.461 391)">.sort</text><text font-family="Consolas,Consolas_MSFontService,sans-serif" font-weight="400" font-size="19" transform="matrix(1 0 0 0.999211 204.127 391)">()</text><text fill="#AF00DB" font-family="Consolas,Consolas_MSFontService,sans-serif" font-weight="400" font-size="19" transform="matrix(1 0 0 0.999211 59.4607 413)">return</text><text fill="#001080" font-family="Consolas,Consolas_MSFontService,sans-serif" font-weight="400" font-size="19" transform="matrix(1 0 0 0.999211 131.794 413)">array</text><text fill="#C00000" font-family="Calibri,Calibri_MSFontService,sans-serif" font-weight="700" font-size="24" transform="matrix(1 0 0 0.999211 253.14 249)">Incorrect</text></g></svg>