<svg width="586" height="221" xmlns="http://www.w3.org/2000/svg" xmlns:xlink="http://www.w3.org/1999/xlink" overflow="hidden"><defs><clipPath id="clip0"><rect x="0" y="0" width="586" height="221"/></clipPath></defs><g clip-path="url(#clip0)"><rect x="0" y="0" width="586" height="221.041" fill="#FFFFFF"/><text fill="#A3A3A3" font-family="Segoe UI,Segoe UI_MSFontService,sans-serif" font-weight="400" font-size="18" transform="matrix(1 0 0 1.00019 593.869 10)">ELT layout</text><path d="M254 50.8371C254 50.3799 254.371 50.0093 254.828 50.0093L576.172 50.0093C576.629 50.0093 577 50.3799 577 50.8371L577 200.209C577 200.667 576.629 201.037 576.172 201.037L254.828 201.037C254.371 201.037 254 200.667 254 200.209Z" fill="#B6A0DC" fill-rule="evenodd" fill-opacity="0.45098"/><rect x="268" y="103.019" width="287" height="21.0039" fill="#A9D18E" fill-opacity="0.45098"/><path d="M32 6.53251C32 6.239 32.2379 6.00106 32.5314 6.00106L554.469 6.00106C554.762 6.00106 555 6.239 555 6.53251L555 102.488C555 102.781 554.762 103.019 554.469 103.019L32.5314 103.019C32.2379 103.019 32 102.781 32 102.488Z" fill="#A9D18E" fill-rule="evenodd" fill-opacity="0.45098"/><path d="M32 110.295C32 110.143 32.1228 110.02 32.2741 110.02L253.726 110.02C253.877 110.02 254 110.143 254 110.295L254 159.756C254 159.907 253.877 160.03 253.726 160.03L32.2741 160.03C32.1228 160.03 32 159.907 32 159.756Z" fill="#B6A0DC" fill-rule="evenodd" fill-opacity="0.45098"/><path d="M66 22.7143C66 19.5601 68.5564 17.0032 71.71 17.0032L181.29 17.0032C184.444 17.0032 187 19.5601 187 22.7143L187 40.2974C187 43.4516 184.444 46.0086 181.29 46.0086L71.71 46.0086C68.5564 46.0086 66 43.4516 66 40.2974Z" stroke="#BF8B00" stroke-width="2.00114" stroke-linecap="square" stroke-linejoin="round" stroke-miterlimit="10" stroke-dasharray="6.00341 2.00114" fill="#FFF1CC" fill-rule="evenodd"/><text font-family="Segoe UI,Segoe UI_MSFontService,sans-serif" font-weight="400" font-size="16" transform="matrix(1 0 0 1.00019 73.0345 219)">Code Solutions</text><text fill="#AF00DB" font-family="Consolas,Consolas_MSFontService,sans-serif" font-weight="400" font-size="16" transform="matrix(1 0 0 1.00019 73.2179 37)">return</text><text fill="#001080" font-family="Consolas,Consolas_MSFontService,sans-serif" font-weight="400" font-size="16" transform="matrix(1 0 0 1.00019 135.086 37)">a</text><text font-family="Consolas,Consolas_MSFontService,sans-serif" font-weight="400" font-size="16" transform="matrix(1 0 0 1.00019 143.925 37)">**</text><text fill="#098658" font-family="Consolas,Consolas_MSFontService,sans-serif" font-weight="400" font-size="16" transform="matrix(1 0 0 1.00019 161.602 37)">2</text><path d="M66 72.7236C66 69.5694 68.5564 67.0124 71.71 67.0124L181.29 67.0124C184.444 67.0124 187 69.5694 187 72.7236L187 90.3067C187 93.4609 184.444 96.0178 181.29 96.0178L71.71 96.0178C68.5564 96.0178 66 93.4609 66 90.3067Z" stroke="#BF8B00" stroke-width="2.00114" stroke-linecap="square" stroke-linejoin="round" stroke-miterlimit="10" stroke-dasharray="6.00341 2.00114" fill="#FFF1CC" fill-rule="evenodd"/><text fill="#AF00DB" font-family="Consolas,Consolas_MSFontService,sans-serif" font-weight="400" font-size="16" transform="matrix(1 0 0 1.00019 73.2179 88)">return</text><text fill="#001080" font-family="Consolas,Consolas_MSFontService,sans-serif" font-weight="400" font-size="16" transform="matrix(1 0 0 1.00019 135.086 88)">a</text><text font-family="Consolas,Consolas_MSFontService,sans-serif" font-weight="400" font-size="16" transform="matrix(1 0 0 1.00019 143.925 88)">*</text><text fill="#001080" font-family="Consolas,Consolas_MSFontService,sans-serif" font-weight="400" font-size="16" transform="matrix(1 0 0 1.00019 152.763 88)">a</text><path d="M66 124.733C66 121.579 68.5564 119.022 71.71 119.022L181.29 119.022C184.444 119.022 187 121.579 187 124.733L187 142.316C187 145.47 184.444 148.027 181.29 148.027L71.71 148.027C68.5564 148.027 66 145.47 66 142.316Z" stroke="#BF8B00" stroke-width="2.00114" stroke-linecap="square" stroke-linejoin="round" stroke-miterlimit="10" stroke-dasharray="6.00341 2.00114" fill="#FFF1CC" fill-rule="evenodd"/><text fill="#AF00DB" font-family="Consolas,Consolas_MSFontService,sans-serif" font-weight="400" font-size="16" transform="matrix(1 0 0 1.00019 73.2179 139)">return</text><text fill="#001080" font-family="Consolas,Consolas_MSFontService,sans-serif" font-weight="400" font-size="16" transform="matrix(1 0 0 1.00019 135.086 139)">a</text><text font-family="Consolas,Consolas_MSFontService,sans-serif" font-weight="400" font-size="16" transform="matrix(1 0 0 1.00019 143.925 139)">*</text><text fill="#098658" font-family="Consolas,Consolas_MSFontService,sans-serif" font-weight="400" font-size="16" transform="matrix(1 0 0 1.00019 152.763 139)">2</text><path d="M284 25.3211C284 22.3844 286.38 20.0037 289.316 20.0037L517.684 20.0037C520.62 20.0037 523 22.3844 523 25.3211L523 41.6913C523 44.628 520.62 47.0087 517.684 47.0087L289.316 47.0087C286.38 47.0087 284 44.628 284 41.6913Z" stroke="#005A9F" stroke-width="2.00114" stroke-linecap="square" stroke-linejoin="round" stroke-miterlimit="10" stroke-dasharray="6.00341 2.00114" fill="#C3E5FF" fill-rule="evenodd"/><text font-family="Segoe UI,Segoe UI_MSFontService,sans-serif" font-weight="400" font-size="16" transform="matrix(1 0 0 1.00019 357.438 220)">Test Cases</text><text fill="#AF00DB" font-family="Consolas,Consolas_MSFontService,sans-serif" font-weight="400" font-size="16" transform="matrix(1 0 0 1.00019 289.307 37)">assert</text><text fill="#795E26" font-family="Consolas,Consolas_MSFontService,sans-serif" font-weight="400" font-size="16" transform="matrix(1 0 0 1.00019 351.175 37)">num_square</text><text font-family="Consolas,Consolas_MSFontService,sans-serif" font-weight="400" font-size="16" transform="matrix(1 0 0 1.00019 439.559 37)">(</text><text fill="#098658" font-family="Consolas,Consolas_MSFontService,sans-serif" font-weight="400" font-size="16" transform="matrix(1 0 0 1.00019 448.397 37)">1</text><text font-family="Consolas,Consolas_MSFontService,sans-serif" font-weight="400" font-size="16" transform="matrix(1 0 0 1.00019 457.236 37)">) ==</text><text fill="#098658" font-family="Consolas,Consolas_MSFontService,sans-serif" font-weight="400" font-size="16" transform="matrix(1 0 0 1.00019 501.427 37)">1</text><path d="M283 61.3278C283 58.3911 285.38 56.0104 288.316 56.0104L516.684 56.0104C519.62 56.0104 522 58.3911 522 61.3278L522 77.698C522 80.6347 519.62 83.0154 516.684 83.0154L288.316 83.0154C285.38 83.0154 283 80.6347 283 77.698Z" stroke="#005A9F" stroke-width="2.00114" stroke-linecap="square" stroke-linejoin="round" stroke-miterlimit="10" stroke-dasharray="6.00341 2.00114" fill="#C3E5FF" fill-rule="evenodd"/><text fill="#AF00DB" font-family="Consolas,Consolas_MSFontService,sans-serif" font-weight="400" font-size="16" transform="matrix(1 0 0 1.00019 288.786 74)">assert</text><text fill="#795E26" font-family="Consolas,Consolas_MSFontService,sans-serif" font-weight="400" font-size="16" transform="matrix(1 0 0 1.00019 350.655 74)">num_square</text><text font-family="Consolas,Consolas_MSFontService,sans-serif" font-weight="400" font-size="16" transform="matrix(1 0 0 1.00019 439.038 74)">(</text><text fill="#098658" font-family="Consolas,Consolas_MSFontService,sans-serif" font-weight="400" font-size="16" transform="matrix(1 0 0 1.00019 447.877 74)">2</text><text font-family="Consolas,Consolas_MSFontService,sans-serif" font-weight="400" font-size="16" transform="matrix(1 0 0 1.00019 456.715 74)">) ==</text><text fill="#098658" font-family="Consolas,Consolas_MSFontService,sans-serif" font-weight="400" font-size="16" transform="matrix(1 0 0 1.00019 500.907 74)">4</text><path d="M283 134.341C283 131.405 285.38 129.024 288.316 129.024L516.684 129.024C519.62 129.024 522 131.405 522 134.341L522 150.712C522 153.648 519.62 156.029 516.684 156.029L288.316 156.029C285.38 156.029 283 153.648 283 150.712Z" stroke="#005A9F" stroke-width="2.00114" stroke-linecap="square" stroke-linejoin="round" stroke-miterlimit="10" stroke-dasharray="6.00341 2.00114" fill="#C3E5FF" fill-rule="evenodd"/><text fill="#AF00DB" font-family="Consolas,Consolas_MSFontService,sans-serif" font-weight="400" font-size="16" transform="matrix(1 0 0 1.00019 287.036 148)">assert</text><text fill="#795E26" font-family="Consolas,Consolas_MSFontService,sans-serif" font-weight="400" font-size="16" transform="matrix(1 0 0 1.00019 348.904 148)">num_square</text><text font-family="Consolas,Consolas_MSFontService,sans-serif" font-weight="400" font-size="16" transform="matrix(1 0 0 1.00019 437.288 148)">(</text><text fill="#098658" font-family="Consolas,Consolas_MSFontService,sans-serif" font-weight="400" font-size="16" transform="matrix(1 0 0 1.00019 446.126 148)">1</text><text font-family="Consolas,Consolas_MSFontService,sans-serif" font-weight="400" font-size="16" transform="matrix(1 0 0 1.00019 454.965 148)">) ==</text><text fill="#098658" font-family="Consolas,Consolas_MSFontService,sans-serif" font-weight="400" font-size="16" transform="matrix(1 0 0 1.00019 499.157 148)">2</text><path d="M283 171.348C283 168.411 285.38 166.031 288.316 166.031L517.684 166.031C520.62 166.031 523 168.411 523 171.348L523 187.718C523 190.655 520.62 193.036 517.684 193.036L288.316 193.036C285.38 193.036 283 190.655 283 187.718Z" stroke="#005A9F" stroke-width="2.00114" stroke-linecap="square" stroke-linejoin="round" stroke-miterlimit="10" stroke-dasharray="6.00341 2.00114" fill="#C3E5FF" fill-rule="evenodd"/><text fill="#AF00DB" font-family="Consolas,Consolas_MSFontService,sans-serif" font-weight="400" font-size="16" transform="matrix(1 0 0 1.00019 287.802 185)">assert</text><text fill="#795E26" font-family="Consolas,Consolas_MSFontService,sans-serif" font-weight="400" font-size="16" transform="matrix(1 0 0 1.00019 349.671 185)">num_square</text><text font-family="Consolas,Consolas_MSFontService,sans-serif" font-weight="400" font-size="16" transform="matrix(1 0 0 1.00019 438.054 185)">(</text><text fill="#098658" font-family="Consolas,Consolas_MSFontService,sans-serif" font-weight="400" font-size="16" transform="matrix(1 0 0 1.00019 446.893 185)">3</text><text font-family="Consolas,Consolas_MSFontService,sans-serif" font-weight="400" font-size="16" transform="matrix(1 0 0 1.00019 455.731 185)">) ==</text><text fill="#098658" font-family="Consolas,Consolas_MSFontService,sans-serif" font-weight="400" font-size="16" transform="matrix(1 0 0 1.00019 499.923 185)">6</text><path d="M187.017 31.0054 284.105 32.6835 284.071 34.6847 186.983 33.0066ZM186.954 34.6743C185.481 34.6488 184.307 33.4335 184.332 31.9599 184.358 30.4862 185.573 29.3122 187.046 29.3377 188.52 29.3632 189.693 30.5784 189.668 32.0521 189.642 33.5257 188.427 34.6997 186.954 34.6743ZM284.134 31.0158C285.608 31.0413 286.781 32.2565 286.756 33.7302 286.731 35.2039 285.515 36.3778 284.042 36.3524 282.569 36.3269 281.395 35.1116 281.42 33.638 281.446 32.1643 282.661 30.9903 284.134 31.0158Z" fill="#ADADAD"/><path d="M187.366 31.0747 283.934 69.0875 283.201 70.9499 186.634 32.9372ZM186.023 34.4893C184.652 33.9495 183.978 32.4001 184.517 31.0286 185.057 29.6572 186.606 28.9829 187.977 29.5227 189.348 30.0625 190.023 31.6118 189.483 32.9833 188.943 34.3548 187.394 35.029 186.023 34.4893ZM284.544 67.5354C285.916 68.0752 286.59 69.6245 286.05 70.996 285.51 72.3675 283.961 73.0417 282.59 72.502 281.219 71.9622 280.545 70.4128 281.084 69.0413 281.624 67.6699 283.173 66.9956 284.544 67.5354Z" fill="#ADADAD"/><path d="M0.447699-0.894821 97.5359 47.6806 96.6405 49.4703-0.447699 0.894821ZM-1.19387 2.38619C-2.51172 1.72683-3.04554 0.12399-2.38619-1.19387-1.72683-2.51172-0.12399-3.04554 1.19387-2.38619 2.51172-1.72683 3.04554-0.12399 2.38619 1.19387 1.72683 2.51172 0.12399 3.04554-1.19387 2.38619ZM98.2821 46.1893C99.5999 46.8486 100.134 48.4515 99.4744 49.7693 98.815 51.0872 97.2122 51.621 95.8943 50.9616 94.5765 50.3023 94.0426 48.6994 94.702 47.3816 95.3614 46.0637 96.9642 45.5299 98.2821 46.1893Z" fill="#ADADAD" transform="matrix(1 0 0 -1.00019 187 81.5906)"/><path d="M0.125894-0.992618 96.6931 11.255 96.4413 13.2402-0.125894 0.992618ZM-0.335716 2.64698C-1.7976 2.46157-2.83239 1.12617-2.64698-0.335716-2.46157-1.7976-1.12617-2.83239 0.335716-2.64698 1.7976-2.46157 2.83239-1.12617 2.64698 0.335716 2.46157 1.7976 1.12617 2.83239-0.335716 2.64698ZM96.9029 9.60062C98.3648 9.78603 99.3996 11.1214 99.2141 12.5833 99.0287 14.0452 97.6933 15.08 96.2314 14.8946 94.7696 14.7092 93.7348 13.3738 93.9202 11.9119 94.1056 10.45 95.441 9.41521 96.9029 9.60062Z" fill="#ADADAD" transform="matrix(1 0 0 -1.00019 187 82.2629)"/><path d="M0.55208-0.834473 97.1192 63.0535 96.0151 64.7225-0.55208 0.834473ZM-1.47221 2.22527C-2.70119 1.41219-3.03834-0.24323-2.22527-1.47221-1.41219-2.70119 0.24323-3.03834 1.47221-2.22527 2.70119-1.41219 3.03834 0.24323 2.22527 1.47221 1.41219 2.70119-0.24323 3.03834-1.47221 2.22527ZM98.0394 61.6627C99.2683 62.4758 99.6055 64.1312 98.7924 65.3602 97.9793 66.5892 96.3239 66.9263 95.095 66.1133 93.866 65.3002 93.5288 63.6448 94.3419 62.4158 95.155 61.1868 96.8104 60.8497 98.0394 61.6627Z" fill="#ADADAD" transform="matrix(1 0 0 -1.00019 187 133.913)"/><path d="M187.093 133.028 283.415 142.039 283.229 144.031 186.907 135.021ZM186.752 136.682C185.284 136.545 184.206 135.244 184.343 133.776 184.481 132.309 185.781 131.231 187.248 131.368 188.716 131.505 189.794 132.806 189.657 134.273 189.519 135.741 188.219 136.819 186.752 136.682ZM283.57 140.378C285.038 140.515 286.116 141.816 285.978 143.284 285.841 144.751 284.541 145.829 283.073 145.692 281.606 145.555 280.528 144.254 280.665 142.787 280.803 141.319 282.103 140.241 283.57 140.378Z" fill="#ADADAD"/><path d="M187.432 133.122 283.754 179.266 282.889 181.072 186.568 134.927ZM185.847 136.432C184.518 135.795 183.957 134.201 184.594 132.872 185.23 131.543 186.824 130.981 188.153 131.618 189.482 132.255 190.043 133.848 189.406 135.178 188.77 136.507 187.176 137.068 185.847 136.432ZM284.474 177.762C285.803 178.399 286.364 179.992 285.728 181.322 285.091 182.651 283.498 183.212 282.169 182.576 280.84 181.939 280.279 180.345 280.915 179.016 281.552 177.687 283.145 177.125 284.474 177.762Z" fill="#ADADAD"/><path d="M283 97.5313C283 94.4859 285.468 92.0171 288.513 92.0171L516.487 92.0171C519.532 92.0171 522 94.4859 522 97.5313L522 114.508C522 117.553 519.532 120.022 516.487 120.022L288.513 120.022C285.468 120.022 283 117.553 283 114.508Z" stroke="#005A9F" stroke-width="2.00114" stroke-linecap="square" stroke-linejoin="round" stroke-miterlimit="10" stroke-dasharray="6.00341 2.00114" fill="#C3E5FF" fill-rule="evenodd"/><text fill="#AF00DB" font-family="Consolas,Consolas_MSFontService,sans-serif" font-weight="400" font-size="16" transform="matrix(1 0 0 1.00019 288.541 111)">assert</text><text fill="#795E26" font-family="Consolas,Consolas_MSFontService,sans-serif" font-weight="400" font-size="16" transform="matrix(1 0 0 1.00019 350.409 111)">num_square</text><text font-family="Consolas,Consolas_MSFontService,sans-serif" font-weight="400" font-size="16" transform="matrix(1 0 0 1.00019 438.793 111)">(</text><text fill="#098658" font-family="Consolas,Consolas_MSFontService,sans-serif" font-weight="400" font-size="16" transform="matrix(1 0 0 1.00019 447.631 111)">0</text><text font-family="Consolas,Consolas_MSFontService,sans-serif" font-weight="400" font-size="16" transform="matrix(1 0 0 1.00019 456.469 111)">) ==</text><text fill="#098658" font-family="Consolas,Consolas_MSFontService,sans-serif" font-weight="400" font-size="16" transform="matrix(1 0 0 1.00019 500.661 111)">0</text><path d="M187.611 31.2137 283.933 105.568 282.71 107.152 186.389 32.7982ZM185.37 34.1186C184.203 33.2181 183.987 31.5422 184.888 30.3755 185.788 29.2087 187.464 28.9928 188.63 29.8933 189.797 30.7938 190.013 32.4697 189.112 33.6365 188.212 34.8033 186.536 35.0191 185.37 34.1186ZM284.952 104.247C286.118 105.148 286.334 106.824 285.434 107.991 284.533 109.157 282.858 109.373 281.691 108.473 280.525 107.572 280.309 105.896 281.209 104.729 282.11 103.563 283.785 103.347 284.952 104.247Z" fill="#ADADAD"/><path d="M187.243 81.0444 283.564 105.136 283.079 107.078 186.757 82.9861ZM186.353 84.6042C184.923 84.2466 184.054 82.7977 184.412 81.3678 184.769 79.938 186.218 79.0687 187.647 79.4263 189.077 79.7838 189.946 81.2328 189.588 82.6627 189.231 84.0925 187.782 84.9618 186.353 84.6042ZM283.969 103.518C285.398 103.875 286.267 105.324 285.91 106.754 285.552 108.184 284.104 109.053 282.674 108.696 281.245 108.338 280.375 106.889 280.733 105.459 281.09 104.029 282.539 103.16 283.969 103.518Z" fill="#ADADAD"/><path d="M0.275182-0.961984 96.5966 26.5914 96.0463 28.5154-0.275182 0.961984ZM-0.733819 2.56529C-2.15059 2.16001-2.97057 0.682953-2.56529-0.733819-2.16001-2.15059-0.682953-2.97057 0.733819-2.56529 2.15059-2.16001 2.97057-0.682953 2.56529 0.733819 2.16001 2.15059 0.682953 2.97057-0.733819 2.56529ZM97.0553 24.9881C98.4721 25.3934 99.292 26.8705 98.8867 28.2872 98.4815 29.704 97.0044 30.524 95.5876 30.1187 94.1709 29.7134 93.3509 28.2364 93.7562 26.8196 94.1614 25.4028 95.6385 24.5828 97.0553 24.9881Z" fill="#ADADAD" transform="matrix(1 0 0 -1.00019 187 133.578)"/><text font-family="Cambria Math,Cambria Math_MSFontService,sans-serif" font-weight="400" font-size="16" transform="matrix(1 0 0 1.00019 40.2019 36)">洧논</text><text font-family="Cambria Math,Cambria Math_MSFontService,sans-serif" font-weight="400" font-size="12" transform="matrix(1 0 0 1.00019 48.1797 39)">1</text><text font-family="Cambria Math,Cambria Math_MSFontService,sans-serif" font-weight="400" font-size="16" transform="matrix(1 0 0 1.00019 39.6691 86)">洧논</text><text font-family="Cambria Math,Cambria Math_MSFontService,sans-serif" font-weight="400" font-size="12" transform="matrix(1 0 0 1.00019 48.0205 89)">2</text><text font-family="Cambria Math,Cambria Math_MSFontService,sans-serif" font-weight="400" font-size="16" transform="matrix(1 0 0 1.00019 39.1743 135)">洧논</text><text font-family="Cambria Math,Cambria Math_MSFontService,sans-serif" font-weight="400" font-size="12" transform="matrix(1 0 0 1.00019 47.5257 139)">3</text><text font-family="Cambria Math,Cambria Math_MSFontService,sans-serif" font-weight="400" font-size="16" transform="matrix(1 0 0 1.00019 536.341 37)">洧녽</text><text font-family="Cambria Math,Cambria Math_MSFontService,sans-serif" font-weight="400" font-size="12" transform="matrix(1 0 0 1.00019 544.486 40)">1</text><text font-family="Cambria Math,Cambria Math_MSFontService,sans-serif" font-weight="400" font-size="16" transform="matrix(1 0 0 1.00019 536.341 74)">洧녽</text><text font-family="Cambria Math,Cambria Math_MSFontService,sans-serif" font-weight="400" font-size="12" transform="matrix(1 0 0 1.00019 544.859 78)">2</text><text font-family="Cambria Math,Cambria Math_MSFontService,sans-serif" font-weight="400" font-size="16" transform="matrix(1 0 0 1.00019 536.341 109)">洧녽</text><text font-family="Cambria Math,Cambria Math_MSFontService,sans-serif" font-weight="400" font-size="12" transform="matrix(1 0 0 1.00019 544.859 112)">3</text><text font-family="Cambria Math,Cambria Math_MSFontService,sans-serif" font-weight="400" font-size="16" transform="matrix(1 0 0 1.00019 536.334 147)">洧녽</text><text font-family="Cambria Math,Cambria Math_MSFontService,sans-serif" font-weight="400" font-size="12" transform="matrix(1 0 0 1.00019 544.165 150)">4</text><text font-family="Cambria Math,Cambria Math_MSFontService,sans-serif" font-weight="400" font-size="16" transform="matrix(1 0 0 1.00019 536.135 183)">洧녽</text><text font-family="Cambria Math,Cambria Math_MSFontService,sans-serif" font-weight="400" font-size="12" transform="matrix(1 0 0 1.00019 544.653 186)">5</text><path d="M66 174.742C66 171.588 68.5564 169.031 71.71 169.031L181.29 169.031C184.444 169.031 187 171.588 187 174.742L187 192.326C187 195.48 184.444 198.037 181.29 198.037L71.71 198.037C68.5564 198.037 66 195.48 66 192.326Z" stroke="#BF8B00" stroke-width="2.00114" stroke-linecap="square" stroke-linejoin="round" stroke-miterlimit="10" stroke-dasharray="6.00341 2.00114" fill="#FFF1CC" fill-rule="evenodd"/><text fill="#AF00DB" font-family="Consolas,Consolas_MSFontService,sans-serif" font-weight="400" font-size="16" transform="matrix(1 0 0 1.00019 73.3373 190)">return</text><text fill="#001080" font-family="Consolas,Consolas_MSFontService,sans-serif" font-weight="400" font-size="16" transform="matrix(1 0 0 1.00019 135.206 190)">a</text><text font-family="Cambria Math,Cambria Math_MSFontService,sans-serif" font-weight="400" font-size="16" transform="matrix(1 0 0 1.00019 39.7884 188)">洧논</text><text font-family="Cambria Math,Cambria Math_MSFontService,sans-serif" font-weight="400" font-size="12" transform="matrix(1 0 0 1.00019 48.1398 191)">4</text><path d="M0.841245-0.541706 97.8101 150.047 96.1276 151.13-0.841245 0.541706ZM-2.24332 1.44455C-3.04112 0.205594-2.6835-1.44552-1.44455-2.24332-0.205594-3.04112 1.44552-2.6835 2.24332-1.44455 3.04112-0.205594 2.6835 1.44552 1.44455 2.24332 0.205594 3.04112-1.44552 2.6835-2.24332 1.44455ZM99.2122 149.144C100.01 150.383 99.6524 152.034 98.4134 152.832 97.1745 153.629 95.5233 153.272 94.7255 152.033 93.9277 150.794 94.2854 149.143 95.5243 148.345 96.7633 147.547 98.4144 147.905 99.2122 149.144Z" fill="#ADADAD" transform="matrix(1 0 0 -1.00019 187 183.622)"/><path d="M0.629791-0.777498 96.8319 77.1484 95.5723 78.7034-0.629791 0.777498ZM-1.67944 2.07333C-2.82451 1.1458-3.00086-0.534376-2.07333-1.67944-1.1458-2.82451 0.534376-3.00086 1.67944-2.07333 2.82451-1.1458 3.00086 0.534376 2.07333 1.67944 1.1458 2.82451-0.534376 3.00086-1.67944 2.07333ZM97.8816 75.8526C99.0266 76.7801 99.203 78.4603 98.2755 79.6053 97.3479 80.7504 95.6677 80.9268 94.5227 79.9992 93.3776 79.0717 93.2013 77.3915 94.1288 76.2465 95.0563 75.1014 96.7365 74.925 97.8816 75.8526Z" fill="#ADADAD" transform="matrix(1 0 0 -1.00019 187 183.96)"/><path d="M34.5 6.50118 555.492 6.50128" stroke="#00B050" stroke-width="1.00057" stroke-linecap="square" stroke-linejoin="round" stroke-miterlimit="10" stroke-dasharray="3.00171 1.00057" fill="none" fill-rule="evenodd"/><path d="M0 0 233.623 0.000105047" stroke="#00B050" stroke-width="1.00057" stroke-linecap="square" stroke-linejoin="round" stroke-miterlimit="10" stroke-dasharray="3.00171 1.00057" fill="none" fill-rule="evenodd" transform="matrix(1 0 0 -1.00019 34.5 103.519)"/><path d="M0 0 287.34 0.000105047" stroke="#00B050" stroke-width="1.00057" stroke-linecap="square" stroke-linejoin="round" stroke-miterlimit="10" stroke-dasharray="3.00171 1.00057" fill="none" fill-rule="evenodd" transform="matrix(1 0 0 -1.00019 269.5 124.523)"/><path d="M33.5 6.50118 33.5001 103.302" stroke="#00B050" stroke-width="1.00057" stroke-linecap="square" stroke-linejoin="round" stroke-miterlimit="10" stroke-dasharray="3.00171 1.00057" fill="none" fill-rule="evenodd"/><path d="M268.5 102.519 268.5 124.717" stroke="#00B050" stroke-width="1.00057" stroke-linecap="square" stroke-linejoin="round" stroke-miterlimit="10" stroke-dasharray="3.00171 1.00057" fill="none" fill-rule="evenodd"/><path d="M555.5 8.50153 556.496 125.039" stroke="#00B050" stroke-width="1.00057" stroke-linecap="square" stroke-linejoin="round" stroke-miterlimit="10" stroke-dasharray="3.00171 1.00057" fill="none" fill-rule="evenodd"/><path d="M254.5 50.5094 577.436 50.5095" stroke="#8661C5" stroke-width="1.00057" stroke-linecap="square" stroke-linejoin="round" stroke-miterlimit="10" stroke-dasharray="3.00171 1.00057" fill="none" fill-rule="evenodd"/><path d="M254.5 200.537 577.436 200.537" stroke="#8661C5" stroke-width="1.00057" stroke-linecap="square" stroke-linejoin="round" stroke-miterlimit="10" stroke-dasharray="3.00171 1.00057" fill="none" fill-rule="evenodd"/><path d="M32.5 110.521 254.279 110.521" stroke="#8661C5" stroke-width="1.00057" stroke-linecap="square" stroke-linejoin="round" stroke-miterlimit="10" stroke-dasharray="3.00171 1.00057" fill="none" fill-rule="evenodd"/><path d="M32.5 160.53 254.279 160.53" stroke="#8661C5" stroke-width="1.00057" stroke-linecap="square" stroke-linejoin="round" stroke-miterlimit="10" stroke-dasharray="3.00171 1.00057" fill="none" fill-rule="evenodd"/><path d="M0 0 0.000105047 49.565" stroke="#8661C5" stroke-width="1.00057" stroke-linecap="square" stroke-linejoin="round" stroke-miterlimit="10" stroke-dasharray="3.00171 1.00057" fill="none" fill-rule="evenodd" transform="matrix(-1 0 0 1.00019 32.5 110.521)"/><path d="M254.5 159.53 254.5 201.544" stroke="#8661C5" stroke-width="1.00057" stroke-linecap="square" stroke-linejoin="round" stroke-miterlimit="10" stroke-dasharray="3.00171 1.00057" fill="none" fill-rule="evenodd"/><path d="M254.5 50.5094 254.5 110.738" stroke="#8661C5" stroke-width="1.00057" stroke-linecap="square" stroke-linejoin="round" stroke-miterlimit="10" stroke-dasharray="3.00171 1.00057" fill="none" fill-rule="evenodd"/><path d="M577.5 50.5094 577.5 201.444" stroke="#8661C5" stroke-width="1.00057" stroke-linecap="square" stroke-linejoin="round" stroke-miterlimit="10" stroke-dasharray="3.00171 1.00057" fill="none" fill-rule="evenodd"/></g></svg>