<svg width="1018" height="304" xmlns="http://www.w3.org/2000/svg" xmlns:xlink="http://www.w3.org/1999/xlink" overflow="hidden"><g><rect x="0" y="0" width="1018" height="303.568" fill="#FFFFFF"/><path d="M333 106.848 333 130.259 331 130.259 331 106.848ZM337.532 122.771 332 132.242 326.468 122.771C326.189 122.295 326.351 121.683 326.828 121.405 327.305 121.127 327.918 121.288 328.196 121.765L332.864 129.756 331.136 129.756 335.804 121.765C336.083 121.288 336.695 121.127 337.172 121.405 337.65 121.683 337.811 122.295 337.532 122.771Z"/><path d="M655 106.848 655 130.259 653 130.259 653 106.848ZM659.532 122.771 654 132.242 648.468 122.771C648.189 122.295 648.351 121.683 648.828 121.405 649.305 121.127 649.918 121.288 650.196 121.765L654.864 129.756 653.136 129.756 657.804 121.765C658.083 121.288 658.695 121.127 659.172 121.405 659.649 121.683 659.811 122.295 659.532 122.771Z"/><path d="M41 75.752C41 68.6598 46.7576 62.9104 53.8599 62.9104L396.14 62.9104C403.242 62.9104 409 68.6598 409 75.752L409 236.803C409 243.895 403.242 249.644 396.14 249.644L53.8599 249.644C46.7576 249.644 41 243.895 41 236.803Z" stroke="#FFB900" stroke-width="2.00066" stroke-linecap="square" stroke-linejoin="round" stroke-miterlimit="10" stroke-dasharray="6.00197 2.00066" fill="none" fill-rule="evenodd"/><path d="M582 75.752C582 68.6598 587.758 62.9104 594.86 62.9104L937.14 62.9104C944.242 62.9104 950 68.6598 950 75.752L950 236.803C950 243.895 944.242 249.644 937.14 249.644L594.86 249.644C587.758 249.644 582 243.895 582 236.803Z" stroke="#0078D4" stroke-width="2.00066" stroke-linecap="square" stroke-linejoin="round" stroke-miterlimit="10" stroke-dasharray="6.00197 2.00066" fill="none" fill-rule="evenodd"/><text fill="#003C6A" font-family="Segoe UI,Segoe UI_MSFontService,sans-serif" font-style="italic" font-weight="400" font-size="24" transform="matrix(1 0 0 0.998578 825.816 206)">Test Case</text><text fill="#003C6A" font-family="Segoe UI,Segoe UI_MSFontService,sans-serif" font-style="italic" font-weight="400" font-size="24" transform="matrix(1 0 0 0.998578 816.039 235)">Generation</text><path d="M285.5 91.2614C285.5 84.1518 291.272 78.3884 298.391 78.3884L689.609 78.3884C696.728 78.3884 702.5 84.1518 702.5 91.2614L702.5 97.4698C702.5 104.579 696.728 110.343 689.609 110.343L298.391 110.343C291.272 110.343 285.5 104.579 285.5 97.4698Z" stroke="#8661C5" stroke-width="3.00098" stroke-linejoin="round" stroke-miterlimit="10" fill="#E7DFF3" fill-rule="evenodd"/><text fill="#41276C" font-family="Segoe UI,Segoe UI_MSFontService,sans-serif" font-weight="700" font-size="24" transform="matrix(1 0 0 0.998578 331.839 102)">Pre</text><text fill="#41276C" font-family="Segoe UI,Segoe UI_MSFontService,sans-serif" font-weight="700" font-size="24" transform="matrix(1 0 0 0.998578 368.924 102)">-</text><text fill="#41276C" font-family="Segoe UI,Segoe UI_MSFontService,sans-serif" font-weight="700" font-size="24" transform="matrix(1 0 0 0.998578 378.594 102)">trained Language Model</text><path d="M334 4.99284 334 75.4924 332 75.4924 332 4.99285ZM338.532 68.0046 333 77.475 327.468 68.0046C327.189 67.5281 327.351 66.9164 327.828 66.6384 328.305 66.3605 328.918 66.5214 329.196 66.9979L333.864 74.9892 332.136 74.9892 336.804 66.9979C337.083 66.5214 337.695 66.3604 338.172 66.6384 338.65 66.9164 338.811 67.528 338.532 68.0046Z"/><path d="M655 4.99284 655 75.4921 653 75.4921 653 4.99285ZM659.532 68.0043 654 77.4746 648.468 68.0043C648.189 67.5277 648.351 66.9161 648.828 66.6381 649.305 66.3601 649.918 66.5211 650.196 66.9976L654.864 74.9889 653.136 74.9889 657.804 66.9976C658.083 66.5211 658.695 66.3601 659.172 66.6381 659.65 66.9161 659.811 67.5277 659.532 68.0043Z"/><path d="M384.5 145.293 602.913 145.293" stroke="#CFCFCF" stroke-width="3.33443" stroke-linejoin="round" stroke-miterlimit="10" stroke-dasharray="3.33443 3.33443" fill="none" fill-rule="evenodd"/><path d="M384.5 146.292 602.218 177.807" stroke="#CFCFCF" stroke-width="3.33443" stroke-linejoin="round" stroke-miterlimit="10" stroke-dasharray="3.33443 3.33443" fill="none" fill-rule="evenodd"/><path d="M386.5 146.292 604.369 224.79" stroke="#CFCFCF" stroke-width="3.33443" stroke-linejoin="round" stroke-miterlimit="10" stroke-dasharray="3.33443 3.33443" fill="none" fill-rule="evenodd"/><path d="M0 0 216.865 32.9502" stroke="#CFCFCF" stroke-width="3.32968" stroke-linejoin="round" stroke-miterlimit="10" stroke-dasharray="3.32968 3.32968" fill="none" fill-rule="evenodd" transform="matrix(1.00142 0 0 -1 384.5 178.243)"/><path d="M384.5 178.246 602.913 178.246" stroke="#CFCFCF" stroke-width="3.33443" stroke-linejoin="round" stroke-miterlimit="10" stroke-dasharray="3.33443 3.33443" fill="none" fill-rule="evenodd"/><path d="M384.5 178.246 601.769 224.204" stroke="#CFCFCF" stroke-width="3.33443" stroke-linejoin="round" stroke-miterlimit="10" stroke-dasharray="3.33443 3.33443" fill="none" fill-rule="evenodd"/><path d="M385.5 223.182 600.836 225.122" stroke="#CFCFCF" stroke-width="3.33443" stroke-linejoin="round" stroke-miterlimit="10" stroke-dasharray="3.33443 3.33443" fill="none" fill-rule="evenodd"/><path d="M0 0 216.322 78.3397" stroke="#CFCFCF" stroke-width="3.32968" stroke-linejoin="round" stroke-miterlimit="10" stroke-dasharray="3.32968 3.32968" fill="none" fill-rule="evenodd" transform="matrix(1.00142 0 0 -1 385.5 223.633)"/><path d="M0 0 216.13 45.0425" stroke="#CFCFCF" stroke-width="3.32968" stroke-linejoin="round" stroke-miterlimit="10" stroke-dasharray="3.32968 3.32968" fill="none" fill-rule="evenodd" transform="matrix(1.00142 0 0 -1 386.5 223.289)"/><text fill="#3A3A3A" font-family="Segoe UI,Segoe UI_MSFontService,sans-serif" font-weight="700" font-size="24" transform="matrix(1 0 0 0.998578 470.427 163)">Dual</text><text fill="#3A3A3A" font-family="Segoe UI,Segoe UI_MSFontService,sans-serif" font-weight="700" font-size="24" transform="matrix(1 0 0 0.998578 441.291 192)">Execution</text><text fill="#3A3A3A" font-family="Segoe UI,Segoe UI_MSFontService,sans-serif" font-weight="700" font-size="24" transform="matrix(1 0 0 0.998578 433.375 221)">Agreement</text><path d="M189.239 132.551 383.763 132.551 383.763 167.712 189.239 167.712Z" fill="#FFF1CC" fill-rule="evenodd"/><path d="M189.239 167.712 383.763 167.712 383.763 202.874 189.239 202.874Z" fill="#FFF1CC" fill-rule="evenodd"/><path d="M189.239 202.874 383.763 202.874 383.763 238.036 189.239 238.036Z" fill="#FFF1CC" fill-rule="evenodd"/><path d="M188.572 167.712 384.43 167.712" stroke="#FFB900" stroke-width="1.33377" stroke-linejoin="round" stroke-miterlimit="10" fill="none" fill-rule="evenodd"/><path d="M188.572 202.874 384.43 202.874" stroke="#FFB900" stroke-width="1.33377" stroke-linejoin="round" stroke-miterlimit="10" fill="none" fill-rule="evenodd"/><path d="M189.239 131.885 189.239 238.702" stroke="#FFB900" stroke-width="1.33377" stroke-linejoin="round" stroke-miterlimit="10" fill="none" fill-rule="evenodd"/><path d="M383.763 131.885 383.763 238.702" stroke="#FFB900" stroke-width="1.33377" stroke-linejoin="round" stroke-miterlimit="10" fill="none" fill-rule="evenodd"/><path d="M188.572 132.551 384.43 132.551" stroke="#FFB900" stroke-width="1.33377" stroke-linejoin="round" stroke-miterlimit="10" fill="none" fill-rule="evenodd"/><path d="M188.572 238.036 384.43 238.036" stroke="#FFB900" stroke-width="1.33377" stroke-linejoin="round" stroke-miterlimit="10" fill="none" fill-rule="evenodd"/><text font-family="Segoe UI,Segoe UI_MSFontService,sans-serif" font-style="italic" font-weight="400" font-size="21" transform="matrix(1 0 0 0.998578 213.664 158)">Code Solution</text><text font-family="Cambria Math,Cambria Math_MSFontService,sans-serif" font-weight="400" font-size="21" transform="matrix(1 0 0 0.998578 347.501 158)">1</text><text font-family="Segoe UI,Segoe UI_MSFontService,sans-serif" font-style="italic" font-weight="400" font-size="21" transform="matrix(1 0 0 0.998578 213.664 193)">Code Solution</text><text font-family="Cambria Math,Cambria Math_MSFontService,sans-serif" font-weight="400" font-size="21" transform="matrix(1 0 0 0.998578 347.501 193)">2</text><text font-family="Segoe UI,Segoe UI_MSFontService,sans-serif" font-style="italic" font-weight="400" font-size="21" transform="matrix(1 0 0 0.998578 270.829 228)">……</text><path d="M602.176 132.551 796.701 132.551 796.701 167.712 602.176 167.712Z" fill="#C3E5FF" fill-rule="evenodd"/><path d="M602.176 167.712 796.701 167.712 796.701 202.874 602.176 202.874Z" fill="#C3E5FF" fill-rule="evenodd"/><path d="M602.176 202.874 796.701 202.874 796.701 238.036 602.176 238.036Z" fill="#C3E5FF" fill-rule="evenodd"/><path d="M601.509 167.712 797.368 167.712" stroke="#0078D4" stroke-width="1.33377" stroke-linejoin="round" stroke-miterlimit="10" fill="none" fill-rule="evenodd"/><path d="M601.509 202.874 797.368 202.874" stroke="#0078D4" stroke-width="1.33377" stroke-linejoin="round" stroke-miterlimit="10" fill="none" fill-rule="evenodd"/><path d="M602.176 131.885 602.176 238.702" stroke="#0078D4" stroke-width="1.33377" stroke-linejoin="round" stroke-miterlimit="10" fill="none" fill-rule="evenodd"/><path d="M796.701 131.885 796.701 238.702" stroke="#0078D4" stroke-width="1.33377" stroke-linejoin="round" stroke-miterlimit="10" fill="none" fill-rule="evenodd"/><path d="M601.509 132.551 797.368 132.551" stroke="#0078D4" stroke-width="1.33377" stroke-linejoin="round" stroke-miterlimit="10" fill="none" fill-rule="evenodd"/><path d="M601.509 238.036 797.368 238.036" stroke="#0078D4" stroke-width="1.33377" stroke-linejoin="round" stroke-miterlimit="10" fill="none" fill-rule="evenodd"/><text font-family="Segoe UI,Segoe UI_MSFontService,sans-serif" font-style="italic" font-weight="400" font-size="21" transform="matrix(1 0 0 0.998578 648.318 158)">Test Case</text><text font-family="Cambria Math,Cambria Math_MSFontService,sans-serif" font-weight="400" font-size="21" transform="matrix(1 0 0 0.998578 738.721 158)">1</text><text font-family="Segoe UI,Segoe UI_MSFontService,sans-serif" font-style="italic" font-weight="400" font-size="21" transform="matrix(1 0 0 0.998578 648.318 193)">Test Case</text><text font-family="Cambria Math,Cambria Math_MSFontService,sans-serif" font-weight="400" font-size="21" transform="matrix(1 0 0 0.998578 738.721 193)">2</text><text font-family="Segoe UI,Segoe UI_MSFontService,sans-serif" font-style="italic" font-weight="400" font-size="21" transform="matrix(1 0 0 0.998578 683.767 228)">……</text><text fill="#7F5D00" font-family="Segoe UI,Segoe UI_MSFontService,sans-serif" font-style="italic" font-weight="400" font-size="24" transform="matrix(1 0 0 0.998578 90.211 210)">Code</text><text fill="#7F5D00" font-family="Segoe UI,Segoe UI_MSFontService,sans-serif" font-style="italic" font-weight="400" font-size="24" transform="matrix(1 0 0 0.998578 59.0008 239)">Generation</text><text font-family="Segoe UI,Segoe UI_MSFontService,sans-serif" font-style="italic" font-weight="400" font-size="24" transform="matrix(1 0 0 0.998578 655.078 58)">+Instruction</text><path d="M285.5 5.25197C285.5 4.28166 286.288 3.49507 287.259 3.49507L700.741 3.49507C701.712 3.49507 702.5 4.28166 702.5 5.25197L702.5 34.6912C702.5 35.6615 701.712 36.4481 700.741 36.4481L287.259 36.4481C286.288 36.4481 285.5 35.6615 285.5 34.6912Z" stroke="#000000" stroke-width="3.00098" stroke-linejoin="round" stroke-miterlimit="10" stroke-dasharray="3.00098 3.00098" fill="#E3E3E3" fill-rule="evenodd"/><text font-family="Segoe UI,Segoe UI_MSFontService,sans-serif" font-weight="400" font-size="24" transform="matrix(1 0 0 0.998578 362.199 28)">A Programming Problem</text><rect x="348.5" y="264.124" width="297" height="35.9487" stroke="#FFB900" stroke-width="3.00098" stroke-linejoin="round" stroke-miterlimit="10" fill="#FFF1CC"/><text font-family="Segoe UI,Segoe UI_MSFontService,sans-serif" font-weight="400" font-size="24" transform="matrix(1 0 0 0.998578 373.391 290)">The Best Code Solution</text><path d="M481 246.649 488.026 246.649 488.026 232.669 504.974 232.669 504.974 246.649 512 246.649 496.5 260.629Z" stroke="#737373" stroke-width="2.00066" stroke-miterlimit="8" fill="#E3E3E3" fill-rule="evenodd"/></g></svg>